%TF.GenerationSoftware,KiCad,Pcbnew,4.0.7-e2-6376~58~ubuntu16.04.1*%
%TF.CreationDate,2017-09-12T10:21:48+02:00*%
%TF.ProjectId,flt06,666C7430362E6B696361645F70636200,1*%
%TF.FileFunction,Legend,Top*%
%FSLAX46Y46*%
G04 Gerber Fmt 4.6, Leading zero omitted, Abs format (unit mm)*
G04 Created by KiCad (PCBNEW 4.0.7-e2-6376~58~ubuntu16.04.1) date Tue Sep 12 10:21:48 2017*
%MOMM*%
%LPD*%
G01*
G04 APERTURE LIST*
%ADD10C,0.100000*%
%ADD11C,0.120000*%
%ADD12C,0.150000*%
G04 APERTURE END LIST*
D10*
D11*
X120670000Y-103330000D02*
X123330000Y-103330000D01*
X120670000Y-103270000D02*
X120670000Y-103330000D01*
X123330000Y-103270000D02*
X123330000Y-103330000D01*
X120670000Y-103270000D02*
X123330000Y-103270000D01*
X120670000Y-102000000D02*
X120670000Y-100670000D01*
X120670000Y-100670000D02*
X122000000Y-100670000D01*
X130000000Y-68480000D02*
X132000000Y-68480000D01*
X132000000Y-65520000D02*
X130000000Y-65520000D01*
X132000000Y-69520000D02*
X130000000Y-69520000D01*
X130000000Y-72480000D02*
X132000000Y-72480000D01*
X130600000Y-103650000D02*
X130600000Y-104350000D01*
X129400000Y-104350000D02*
X129400000Y-103650000D01*
X123000000Y-95520000D02*
X121000000Y-95520000D01*
X121000000Y-98480000D02*
X123000000Y-98480000D01*
X132150000Y-89300000D02*
X132850000Y-89300000D01*
X132850000Y-90500000D02*
X132150000Y-90500000D01*
X146250000Y-89500000D02*
X146950000Y-89500000D01*
X146950000Y-90700000D02*
X146250000Y-90700000D01*
X157150000Y-92600000D02*
X156450000Y-92600000D01*
X156450000Y-91400000D02*
X157150000Y-91400000D01*
X128450000Y-98600000D02*
X127750000Y-98600000D01*
X127750000Y-97400000D02*
X128450000Y-97400000D01*
X149550000Y-102600000D02*
X148850000Y-102600000D01*
X148850000Y-101400000D02*
X149550000Y-101400000D01*
X157450000Y-99400000D02*
X158150000Y-99400000D01*
X158150000Y-100600000D02*
X157450000Y-100600000D01*
X138400000Y-99350000D02*
X138400000Y-98650000D01*
X139600000Y-98650000D02*
X139600000Y-99350000D01*
X130600000Y-131650000D02*
X130600000Y-132350000D01*
X129400000Y-132350000D02*
X129400000Y-131650000D01*
X138400000Y-128350000D02*
X138400000Y-127650000D01*
X139600000Y-127650000D02*
X139600000Y-128350000D01*
X149750000Y-131100000D02*
X149050000Y-131100000D01*
X149050000Y-129900000D02*
X149750000Y-129900000D01*
X128450000Y-127100000D02*
X127750000Y-127100000D01*
X127750000Y-125900000D02*
X128450000Y-125900000D01*
X146550000Y-118300000D02*
X147250000Y-118300000D01*
X147250000Y-119500000D02*
X146550000Y-119500000D01*
X136400000Y-63650000D02*
X136400000Y-60350000D01*
X136400000Y-60350000D02*
X131000000Y-60350000D01*
X136400000Y-63650000D02*
X131000000Y-63650000D01*
X129600000Y-74350000D02*
X129600000Y-77650000D01*
X129600000Y-77650000D02*
X135000000Y-77650000D01*
X129600000Y-74350000D02*
X135000000Y-74350000D01*
X135350000Y-72400000D02*
X138650000Y-72400000D01*
X138650000Y-72400000D02*
X138650000Y-67000000D01*
X135350000Y-72400000D02*
X135350000Y-67000000D01*
X118650000Y-91600000D02*
X115350000Y-91600000D01*
X115350000Y-91600000D02*
X115350000Y-97000000D01*
X118650000Y-91600000D02*
X118650000Y-97000000D01*
X118650000Y-99600000D02*
X115350000Y-99600000D01*
X115350000Y-99600000D02*
X115350000Y-105000000D01*
X118650000Y-99600000D02*
X118650000Y-105000000D01*
X118650000Y-120600000D02*
X115350000Y-120600000D01*
X115350000Y-120600000D02*
X115350000Y-126000000D01*
X118650000Y-120600000D02*
X118650000Y-126000000D01*
X118650000Y-128600000D02*
X115350000Y-128600000D01*
X115350000Y-128600000D02*
X115350000Y-134000000D01*
X118650000Y-128600000D02*
X118650000Y-134000000D01*
D12*
X105900000Y-72700000D02*
X105500000Y-72700000D01*
X105900000Y-76300000D02*
X105500000Y-76300000D01*
X107000000Y-69200000D02*
X107000000Y-79800000D01*
X105900000Y-69200000D02*
X105900000Y-79800000D01*
X113100000Y-69200000D02*
X105500000Y-69200000D01*
X105500000Y-79800000D02*
X113100000Y-79800000D01*
X113100000Y-79800000D02*
X113100000Y-69200000D01*
X105900000Y-61750000D02*
X105500000Y-61750000D01*
X107000000Y-58250000D02*
X107000000Y-65250000D01*
X105900000Y-58250000D02*
X105900000Y-65250000D01*
X113100000Y-58250000D02*
X105500000Y-58250000D01*
X105500000Y-65250000D02*
X113100000Y-65250000D01*
X113100000Y-65250000D02*
X113100000Y-58250000D01*
X105900000Y-98750000D02*
X105500000Y-98750000D01*
X107000000Y-95250000D02*
X107000000Y-102250000D01*
X105900000Y-95250000D02*
X105900000Y-102250000D01*
X113100000Y-95250000D02*
X105500000Y-95250000D01*
X105500000Y-102250000D02*
X113100000Y-102250000D01*
X113100000Y-102250000D02*
X113100000Y-95250000D01*
X180100000Y-86250000D02*
X180500000Y-86250000D01*
X179000000Y-89750000D02*
X179000000Y-82750000D01*
X180100000Y-89750000D02*
X180100000Y-82750000D01*
X172900000Y-89750000D02*
X180500000Y-89750000D01*
X180500000Y-82750000D02*
X172900000Y-82750000D01*
X172900000Y-82750000D02*
X172900000Y-89750000D01*
X105900000Y-127750000D02*
X105500000Y-127750000D01*
X107000000Y-124250000D02*
X107000000Y-131250000D01*
X105900000Y-124250000D02*
X105900000Y-131250000D01*
X113100000Y-124250000D02*
X105500000Y-124250000D01*
X105500000Y-131250000D02*
X113100000Y-131250000D01*
X113100000Y-131250000D02*
X113100000Y-124250000D01*
X180100000Y-120250000D02*
X180500000Y-120250000D01*
X179000000Y-123750000D02*
X179000000Y-116750000D01*
X180100000Y-123750000D02*
X180100000Y-116750000D01*
X172900000Y-123750000D02*
X180500000Y-123750000D01*
X180500000Y-116750000D02*
X172900000Y-116750000D01*
X172900000Y-116750000D02*
X172900000Y-123750000D01*
D11*
X120670000Y-92330000D02*
X123330000Y-92330000D01*
X120670000Y-92270000D02*
X120670000Y-92330000D01*
X123330000Y-92270000D02*
X123330000Y-92330000D01*
X120670000Y-92270000D02*
X123330000Y-92270000D01*
X120670000Y-91000000D02*
X120670000Y-89670000D01*
X120670000Y-89670000D02*
X122000000Y-89670000D01*
X126670000Y-90330000D02*
X129330000Y-90330000D01*
X126670000Y-90270000D02*
X126670000Y-90330000D01*
X129330000Y-90270000D02*
X129330000Y-90330000D01*
X126670000Y-90270000D02*
X129330000Y-90270000D01*
X126670000Y-89000000D02*
X126670000Y-87670000D01*
X126670000Y-87670000D02*
X128000000Y-87670000D01*
X135670000Y-105330000D02*
X138330000Y-105330000D01*
X135670000Y-105270000D02*
X135670000Y-105330000D01*
X138330000Y-105270000D02*
X138330000Y-105330000D01*
X135670000Y-105270000D02*
X138330000Y-105270000D01*
X135670000Y-104000000D02*
X135670000Y-102670000D01*
X135670000Y-102670000D02*
X137000000Y-102670000D01*
X164570000Y-80930000D02*
X167230000Y-80930000D01*
X164570000Y-80870000D02*
X164570000Y-80930000D01*
X167230000Y-80870000D02*
X167230000Y-80930000D01*
X164570000Y-80870000D02*
X167230000Y-80870000D01*
X164570000Y-79600000D02*
X164570000Y-78270000D01*
X164570000Y-78270000D02*
X165900000Y-78270000D01*
X164570000Y-89330000D02*
X167230000Y-89330000D01*
X164570000Y-89270000D02*
X164570000Y-89330000D01*
X167230000Y-89270000D02*
X167230000Y-89330000D01*
X164570000Y-89270000D02*
X167230000Y-89270000D01*
X164570000Y-88000000D02*
X164570000Y-86670000D01*
X164570000Y-86670000D02*
X165900000Y-86670000D01*
X120670000Y-121330000D02*
X123330000Y-121330000D01*
X120670000Y-121270000D02*
X120670000Y-121330000D01*
X123330000Y-121270000D02*
X123330000Y-121330000D01*
X120670000Y-121270000D02*
X123330000Y-121270000D01*
X120670000Y-120000000D02*
X120670000Y-118670000D01*
X120670000Y-118670000D02*
X122000000Y-118670000D01*
X120670000Y-132330000D02*
X123330000Y-132330000D01*
X120670000Y-132270000D02*
X120670000Y-132330000D01*
X123330000Y-132270000D02*
X123330000Y-132330000D01*
X120670000Y-132270000D02*
X123330000Y-132270000D01*
X120670000Y-131000000D02*
X120670000Y-129670000D01*
X120670000Y-129670000D02*
X122000000Y-129670000D01*
X126670000Y-119330000D02*
X129330000Y-119330000D01*
X126670000Y-119270000D02*
X126670000Y-119330000D01*
X129330000Y-119270000D02*
X129330000Y-119330000D01*
X126670000Y-119270000D02*
X129330000Y-119270000D01*
X126670000Y-118000000D02*
X126670000Y-116670000D01*
X126670000Y-116670000D02*
X128000000Y-116670000D01*
X136170000Y-133830000D02*
X138830000Y-133830000D01*
X136170000Y-133770000D02*
X136170000Y-133830000D01*
X138830000Y-133770000D02*
X138830000Y-133830000D01*
X136170000Y-133770000D02*
X138830000Y-133770000D01*
X136170000Y-132500000D02*
X136170000Y-131170000D01*
X136170000Y-131170000D02*
X137500000Y-131170000D01*
X164670000Y-124330000D02*
X167330000Y-124330000D01*
X164670000Y-124270000D02*
X164670000Y-124330000D01*
X167330000Y-124270000D02*
X167330000Y-124330000D01*
X164670000Y-124270000D02*
X167330000Y-124270000D01*
X164670000Y-123000000D02*
X164670000Y-121670000D01*
X164670000Y-121670000D02*
X166000000Y-121670000D01*
X122060000Y-62000000D02*
G75*
G03X122060000Y-62000000I-3060000J0D01*
G01*
X122060000Y-62000000D02*
X122580000Y-62000000D01*
X122060000Y-69000000D02*
G75*
G03X122060000Y-69000000I-3060000J0D01*
G01*
X122060000Y-69000000D02*
X122580000Y-69000000D01*
X122060000Y-76000000D02*
G75*
G03X122060000Y-76000000I-3060000J0D01*
G01*
X122060000Y-76000000D02*
X122580000Y-76000000D01*
X133680000Y-103500000D02*
X133680000Y-104500000D01*
X132320000Y-104500000D02*
X132320000Y-103500000D01*
X132320000Y-99500000D02*
X132320000Y-98500000D01*
X133680000Y-98500000D02*
X133680000Y-99500000D01*
X136680000Y-98500000D02*
X136680000Y-99500000D01*
X135320000Y-99500000D02*
X135320000Y-98500000D01*
X124420000Y-101500000D02*
X124420000Y-100500000D01*
X125780000Y-100500000D02*
X125780000Y-101500000D01*
X167430000Y-84800000D02*
X167430000Y-82800000D01*
X169570000Y-82800000D02*
X169570000Y-84800000D01*
X138320000Y-91500000D02*
X138320000Y-90500000D01*
X139680000Y-90500000D02*
X139680000Y-91500000D01*
X138320000Y-95500000D02*
X138320000Y-94500000D01*
X139680000Y-94500000D02*
X139680000Y-95500000D01*
X134180000Y-131500000D02*
X134180000Y-132500000D01*
X132820000Y-132500000D02*
X132820000Y-131500000D01*
X132320000Y-128500000D02*
X132320000Y-127500000D01*
X133680000Y-127500000D02*
X133680000Y-128500000D01*
X136680000Y-127500000D02*
X136680000Y-128500000D01*
X135320000Y-128500000D02*
X135320000Y-127500000D01*
X124920000Y-130400000D02*
X124920000Y-129400000D01*
X126280000Y-129400000D02*
X126280000Y-130400000D01*
X138320000Y-120500000D02*
X138320000Y-119500000D01*
X139680000Y-119500000D02*
X139680000Y-120500000D01*
X138320000Y-124500000D02*
X138320000Y-123500000D01*
X139680000Y-123500000D02*
X139680000Y-124500000D01*
X170000000Y-99930000D02*
X172000000Y-99930000D01*
X172000000Y-102070000D02*
X170000000Y-102070000D01*
X170000000Y-111930000D02*
X172000000Y-111930000D01*
X172000000Y-114070000D02*
X170000000Y-114070000D01*
X170000000Y-133930000D02*
X172000000Y-133930000D01*
X172000000Y-136070000D02*
X170000000Y-136070000D01*
X170000000Y-145930000D02*
X172000000Y-145930000D01*
X172000000Y-148070000D02*
X170000000Y-148070000D01*
D12*
X129375000Y-92375000D02*
X129375000Y-92500000D01*
X132625000Y-92375000D02*
X132625000Y-92600000D01*
X132625000Y-95625000D02*
X132625000Y-95400000D01*
X129375000Y-95625000D02*
X129375000Y-95400000D01*
X129375000Y-92375000D02*
X132625000Y-92375000D01*
X129375000Y-95625000D02*
X132625000Y-95625000D01*
X129375000Y-92500000D02*
X128300000Y-92500000D01*
X145425000Y-98075000D02*
X145475000Y-98075000D01*
X145425000Y-93925000D02*
X145570000Y-93925000D01*
X150575000Y-93925000D02*
X150430000Y-93925000D01*
X150575000Y-98075000D02*
X150430000Y-98075000D01*
X145425000Y-98075000D02*
X145425000Y-93925000D01*
X150575000Y-98075000D02*
X150575000Y-93925000D01*
X145475000Y-98075000D02*
X145475000Y-99475000D01*
D11*
X158610000Y-96900000D02*
X158610000Y-95100000D01*
X155390000Y-95100000D02*
X155390000Y-97550000D01*
D12*
X129375000Y-121375000D02*
X129375000Y-121500000D01*
X132625000Y-121375000D02*
X132625000Y-121600000D01*
X132625000Y-124625000D02*
X132625000Y-124400000D01*
X129375000Y-124625000D02*
X129375000Y-124400000D01*
X129375000Y-121375000D02*
X132625000Y-121375000D01*
X129375000Y-124625000D02*
X132625000Y-124625000D01*
X129375000Y-121500000D02*
X128300000Y-121500000D01*
X150575000Y-122925000D02*
X150525000Y-122925000D01*
X150575000Y-127075000D02*
X150430000Y-127075000D01*
X145425000Y-127075000D02*
X145570000Y-127075000D01*
X145425000Y-122925000D02*
X145570000Y-122925000D01*
X150575000Y-122925000D02*
X150575000Y-127075000D01*
X145425000Y-122925000D02*
X145425000Y-127075000D01*
X150525000Y-122925000D02*
X150525000Y-121525000D01*
D11*
X164670000Y-119330000D02*
X167330000Y-119330000D01*
X164670000Y-119270000D02*
X164670000Y-119330000D01*
X167330000Y-119270000D02*
X167330000Y-119330000D01*
X164670000Y-119270000D02*
X167330000Y-119270000D01*
X164670000Y-118000000D02*
X164670000Y-116670000D01*
X164670000Y-116670000D02*
X166000000Y-116670000D01*
X184320000Y-70279000D02*
X184320000Y-80520000D01*
X179679000Y-70279000D02*
X179679000Y-72635000D01*
X179679000Y-74765000D02*
X179679000Y-76035000D01*
X179679000Y-78165000D02*
X179679000Y-80520000D01*
X184320000Y-70279000D02*
X179679000Y-70279000D01*
X184320000Y-80520000D02*
X179679000Y-80520000D01*
X182811000Y-70279000D02*
X182811000Y-80520000D01*
X184320000Y-73550000D02*
X182811000Y-73550000D01*
X184320000Y-77250000D02*
X182811000Y-77250000D01*
X179679000Y-72000000D02*
X177049000Y-72000000D01*
X179679000Y-75400000D02*
X177065000Y-75400000D01*
X179679000Y-78800000D02*
X177065000Y-78800000D01*
X184320000Y-92279000D02*
X184320000Y-102520000D01*
X179679000Y-92279000D02*
X179679000Y-94635000D01*
X179679000Y-96765000D02*
X179679000Y-98035000D01*
X179679000Y-100165000D02*
X179679000Y-102520000D01*
X184320000Y-92279000D02*
X179679000Y-92279000D01*
X184320000Y-102520000D02*
X179679000Y-102520000D01*
X182811000Y-92279000D02*
X182811000Y-102520000D01*
X184320000Y-95550000D02*
X182811000Y-95550000D01*
X184320000Y-99250000D02*
X182811000Y-99250000D01*
X179679000Y-94000000D02*
X177049000Y-94000000D01*
X179679000Y-97400000D02*
X177065000Y-97400000D01*
X179679000Y-100800000D02*
X177065000Y-100800000D01*
X184320000Y-104279000D02*
X184320000Y-114520000D01*
X179679000Y-104279000D02*
X179679000Y-106635000D01*
X179679000Y-108765000D02*
X179679000Y-110035000D01*
X179679000Y-112165000D02*
X179679000Y-114520000D01*
X184320000Y-104279000D02*
X179679000Y-104279000D01*
X184320000Y-114520000D02*
X179679000Y-114520000D01*
X182811000Y-104279000D02*
X182811000Y-114520000D01*
X184320000Y-107550000D02*
X182811000Y-107550000D01*
X184320000Y-111250000D02*
X182811000Y-111250000D01*
X179679000Y-106000000D02*
X177049000Y-106000000D01*
X179679000Y-109400000D02*
X177065000Y-109400000D01*
X179679000Y-112800000D02*
X177065000Y-112800000D01*
X184320000Y-126279000D02*
X184320000Y-136520000D01*
X179679000Y-126279000D02*
X179679000Y-128635000D01*
X179679000Y-130765000D02*
X179679000Y-132035000D01*
X179679000Y-134165000D02*
X179679000Y-136520000D01*
X184320000Y-126279000D02*
X179679000Y-126279000D01*
X184320000Y-136520000D02*
X179679000Y-136520000D01*
X182811000Y-126279000D02*
X182811000Y-136520000D01*
X184320000Y-129550000D02*
X182811000Y-129550000D01*
X184320000Y-133250000D02*
X182811000Y-133250000D01*
X179679000Y-128000000D02*
X177049000Y-128000000D01*
X179679000Y-131400000D02*
X177065000Y-131400000D01*
X179679000Y-134800000D02*
X177065000Y-134800000D01*
X184320000Y-138279000D02*
X184320000Y-148520000D01*
X179679000Y-138279000D02*
X179679000Y-140635000D01*
X179679000Y-142765000D02*
X179679000Y-144035000D01*
X179679000Y-146165000D02*
X179679000Y-148520000D01*
X184320000Y-138279000D02*
X179679000Y-138279000D01*
X184320000Y-148520000D02*
X179679000Y-148520000D01*
X182811000Y-138279000D02*
X182811000Y-148520000D01*
X184320000Y-141550000D02*
X182811000Y-141550000D01*
X184320000Y-145250000D02*
X182811000Y-145250000D01*
X179679000Y-140000000D02*
X177049000Y-140000000D01*
X179679000Y-143400000D02*
X177065000Y-143400000D01*
X179679000Y-146800000D02*
X177065000Y-146800000D01*
X123000000Y-124520000D02*
X121000000Y-124520000D01*
X121000000Y-127480000D02*
X123000000Y-127480000D01*
X132150000Y-118900000D02*
X132850000Y-118900000D01*
X132850000Y-120100000D02*
X132150000Y-120100000D01*
X136680000Y-90500000D02*
X136680000Y-91500000D01*
X135320000Y-91500000D02*
X135320000Y-90500000D01*
X136680000Y-119500000D02*
X136680000Y-120500000D01*
X135320000Y-120500000D02*
X135320000Y-119500000D01*
D12*
X153900000Y-63250000D02*
X153500000Y-63250000D01*
X155000000Y-59750000D02*
X155000000Y-66750000D01*
X153900000Y-59750000D02*
X153900000Y-66750000D01*
X161100000Y-59750000D02*
X153500000Y-59750000D01*
X153500000Y-66750000D02*
X161100000Y-66750000D01*
X161100000Y-66750000D02*
X161100000Y-59750000D01*
X180100000Y-63250000D02*
X180500000Y-63250000D01*
X179000000Y-66750000D02*
X179000000Y-59750000D01*
X180100000Y-66750000D02*
X180100000Y-59750000D01*
X172900000Y-66750000D02*
X180500000Y-66750000D01*
X180500000Y-59750000D02*
X172900000Y-59750000D01*
X172900000Y-59750000D02*
X172900000Y-66750000D01*
D11*
X167760000Y-64580000D02*
X167760000Y-63650000D01*
X167760000Y-61420000D02*
X167760000Y-62350000D01*
X167760000Y-61420000D02*
X165600000Y-61420000D01*
X167760000Y-64580000D02*
X166300000Y-64580000D01*
D12*
X121666667Y-99122381D02*
X121666667Y-99836667D01*
X121619047Y-99979524D01*
X121523809Y-100074762D01*
X121380952Y-100122381D01*
X121285714Y-100122381D01*
X122285714Y-99550952D02*
X122190476Y-99503333D01*
X122142857Y-99455714D01*
X122095238Y-99360476D01*
X122095238Y-99312857D01*
X122142857Y-99217619D01*
X122190476Y-99170000D01*
X122285714Y-99122381D01*
X122476191Y-99122381D01*
X122571429Y-99170000D01*
X122619048Y-99217619D01*
X122666667Y-99312857D01*
X122666667Y-99360476D01*
X122619048Y-99455714D01*
X122571429Y-99503333D01*
X122476191Y-99550952D01*
X122285714Y-99550952D01*
X122190476Y-99598571D01*
X122142857Y-99646190D01*
X122095238Y-99741429D01*
X122095238Y-99931905D01*
X122142857Y-100027143D01*
X122190476Y-100074762D01*
X122285714Y-100122381D01*
X122476191Y-100122381D01*
X122571429Y-100074762D01*
X122619048Y-100027143D01*
X122666667Y-99931905D01*
X122666667Y-99741429D01*
X122619048Y-99646190D01*
X122571429Y-99598571D01*
X122476191Y-99550952D01*
X129633334Y-65057143D02*
X129585715Y-65104762D01*
X129442858Y-65152381D01*
X129347620Y-65152381D01*
X129204762Y-65104762D01*
X129109524Y-65009524D01*
X129061905Y-64914286D01*
X129014286Y-64723810D01*
X129014286Y-64580952D01*
X129061905Y-64390476D01*
X129109524Y-64295238D01*
X129204762Y-64200000D01*
X129347620Y-64152381D01*
X129442858Y-64152381D01*
X129585715Y-64200000D01*
X129633334Y-64247619D01*
X130585715Y-65152381D02*
X130014286Y-65152381D01*
X130300000Y-65152381D02*
X130300000Y-64152381D01*
X130204762Y-64295238D01*
X130109524Y-64390476D01*
X130014286Y-64438095D01*
X129633334Y-73757143D02*
X129585715Y-73804762D01*
X129442858Y-73852381D01*
X129347620Y-73852381D01*
X129204762Y-73804762D01*
X129109524Y-73709524D01*
X129061905Y-73614286D01*
X129014286Y-73423810D01*
X129014286Y-73280952D01*
X129061905Y-73090476D01*
X129109524Y-72995238D01*
X129204762Y-72900000D01*
X129347620Y-72852381D01*
X129442858Y-72852381D01*
X129585715Y-72900000D01*
X129633334Y-72947619D01*
X130014286Y-72947619D02*
X130061905Y-72900000D01*
X130157143Y-72852381D01*
X130395239Y-72852381D01*
X130490477Y-72900000D01*
X130538096Y-72947619D01*
X130585715Y-73042857D01*
X130585715Y-73138095D01*
X130538096Y-73280952D01*
X129966667Y-73852381D01*
X130585715Y-73852381D01*
X128857143Y-104166666D02*
X128904762Y-104214285D01*
X128952381Y-104357142D01*
X128952381Y-104452380D01*
X128904762Y-104595238D01*
X128809524Y-104690476D01*
X128714286Y-104738095D01*
X128523810Y-104785714D01*
X128380952Y-104785714D01*
X128190476Y-104738095D01*
X128095238Y-104690476D01*
X128000000Y-104595238D01*
X127952381Y-104452380D01*
X127952381Y-104357142D01*
X128000000Y-104214285D01*
X128047619Y-104166666D01*
X127952381Y-103833333D02*
X127952381Y-103214285D01*
X128333333Y-103547619D01*
X128333333Y-103404761D01*
X128380952Y-103309523D01*
X128428571Y-103261904D01*
X128523810Y-103214285D01*
X128761905Y-103214285D01*
X128857143Y-103261904D01*
X128904762Y-103309523D01*
X128952381Y-103404761D01*
X128952381Y-103690476D01*
X128904762Y-103785714D01*
X128857143Y-103833333D01*
X121833334Y-95107143D02*
X121785715Y-95154762D01*
X121642858Y-95202381D01*
X121547620Y-95202381D01*
X121404762Y-95154762D01*
X121309524Y-95059524D01*
X121261905Y-94964286D01*
X121214286Y-94773810D01*
X121214286Y-94630952D01*
X121261905Y-94440476D01*
X121309524Y-94345238D01*
X121404762Y-94250000D01*
X121547620Y-94202381D01*
X121642858Y-94202381D01*
X121785715Y-94250000D01*
X121833334Y-94297619D01*
X122690477Y-94535714D02*
X122690477Y-95202381D01*
X122452381Y-94154762D02*
X122214286Y-94869048D01*
X122833334Y-94869048D01*
X132933334Y-88857143D02*
X132885715Y-88904762D01*
X132742858Y-88952381D01*
X132647620Y-88952381D01*
X132504762Y-88904762D01*
X132409524Y-88809524D01*
X132361905Y-88714286D01*
X132314286Y-88523810D01*
X132314286Y-88380952D01*
X132361905Y-88190476D01*
X132409524Y-88095238D01*
X132504762Y-88000000D01*
X132647620Y-87952381D01*
X132742858Y-87952381D01*
X132885715Y-88000000D01*
X132933334Y-88047619D01*
X133838096Y-87952381D02*
X133361905Y-87952381D01*
X133314286Y-88428571D01*
X133361905Y-88380952D01*
X133457143Y-88333333D01*
X133695239Y-88333333D01*
X133790477Y-88380952D01*
X133838096Y-88428571D01*
X133885715Y-88523810D01*
X133885715Y-88761905D01*
X133838096Y-88857143D01*
X133790477Y-88904762D01*
X133695239Y-88952381D01*
X133457143Y-88952381D01*
X133361905Y-88904762D01*
X133314286Y-88857143D01*
X146433334Y-89057143D02*
X146385715Y-89104762D01*
X146242858Y-89152381D01*
X146147620Y-89152381D01*
X146004762Y-89104762D01*
X145909524Y-89009524D01*
X145861905Y-88914286D01*
X145814286Y-88723810D01*
X145814286Y-88580952D01*
X145861905Y-88390476D01*
X145909524Y-88295238D01*
X146004762Y-88200000D01*
X146147620Y-88152381D01*
X146242858Y-88152381D01*
X146385715Y-88200000D01*
X146433334Y-88247619D01*
X147290477Y-88152381D02*
X147100000Y-88152381D01*
X147004762Y-88200000D01*
X146957143Y-88247619D01*
X146861905Y-88390476D01*
X146814286Y-88580952D01*
X146814286Y-88961905D01*
X146861905Y-89057143D01*
X146909524Y-89104762D01*
X147004762Y-89152381D01*
X147195239Y-89152381D01*
X147290477Y-89104762D01*
X147338096Y-89057143D01*
X147385715Y-88961905D01*
X147385715Y-88723810D01*
X147338096Y-88628571D01*
X147290477Y-88580952D01*
X147195239Y-88533333D01*
X147004762Y-88533333D01*
X146909524Y-88580952D01*
X146861905Y-88628571D01*
X146814286Y-88723810D01*
X156133334Y-90857143D02*
X156085715Y-90904762D01*
X155942858Y-90952381D01*
X155847620Y-90952381D01*
X155704762Y-90904762D01*
X155609524Y-90809524D01*
X155561905Y-90714286D01*
X155514286Y-90523810D01*
X155514286Y-90380952D01*
X155561905Y-90190476D01*
X155609524Y-90095238D01*
X155704762Y-90000000D01*
X155847620Y-89952381D01*
X155942858Y-89952381D01*
X156085715Y-90000000D01*
X156133334Y-90047619D01*
X156466667Y-89952381D02*
X157133334Y-89952381D01*
X156704762Y-90952381D01*
X126733334Y-96957143D02*
X126685715Y-97004762D01*
X126542858Y-97052381D01*
X126447620Y-97052381D01*
X126304762Y-97004762D01*
X126209524Y-96909524D01*
X126161905Y-96814286D01*
X126114286Y-96623810D01*
X126114286Y-96480952D01*
X126161905Y-96290476D01*
X126209524Y-96195238D01*
X126304762Y-96100000D01*
X126447620Y-96052381D01*
X126542858Y-96052381D01*
X126685715Y-96100000D01*
X126733334Y-96147619D01*
X127209524Y-97052381D02*
X127400000Y-97052381D01*
X127495239Y-97004762D01*
X127542858Y-96957143D01*
X127638096Y-96814286D01*
X127685715Y-96623810D01*
X127685715Y-96242857D01*
X127638096Y-96147619D01*
X127590477Y-96100000D01*
X127495239Y-96052381D01*
X127304762Y-96052381D01*
X127209524Y-96100000D01*
X127161905Y-96147619D01*
X127114286Y-96242857D01*
X127114286Y-96480952D01*
X127161905Y-96576190D01*
X127209524Y-96623810D01*
X127304762Y-96671429D01*
X127495239Y-96671429D01*
X127590477Y-96623810D01*
X127638096Y-96576190D01*
X127685715Y-96480952D01*
X148557143Y-103857143D02*
X148509524Y-103904762D01*
X148366667Y-103952381D01*
X148271429Y-103952381D01*
X148128571Y-103904762D01*
X148033333Y-103809524D01*
X147985714Y-103714286D01*
X147938095Y-103523810D01*
X147938095Y-103380952D01*
X147985714Y-103190476D01*
X148033333Y-103095238D01*
X148128571Y-103000000D01*
X148271429Y-102952381D01*
X148366667Y-102952381D01*
X148509524Y-103000000D01*
X148557143Y-103047619D01*
X149509524Y-103952381D02*
X148938095Y-103952381D01*
X149223809Y-103952381D02*
X149223809Y-102952381D01*
X149128571Y-103095238D01*
X149033333Y-103190476D01*
X148938095Y-103238095D01*
X150128571Y-102952381D02*
X150223810Y-102952381D01*
X150319048Y-103000000D01*
X150366667Y-103047619D01*
X150414286Y-103142857D01*
X150461905Y-103333333D01*
X150461905Y-103571429D01*
X150414286Y-103761905D01*
X150366667Y-103857143D01*
X150319048Y-103904762D01*
X150223810Y-103952381D01*
X150128571Y-103952381D01*
X150033333Y-103904762D01*
X149985714Y-103857143D01*
X149938095Y-103761905D01*
X149890476Y-103571429D01*
X149890476Y-103333333D01*
X149938095Y-103142857D01*
X149985714Y-103047619D01*
X150033333Y-103000000D01*
X150128571Y-102952381D01*
X157157143Y-101857143D02*
X157109524Y-101904762D01*
X156966667Y-101952381D01*
X156871429Y-101952381D01*
X156728571Y-101904762D01*
X156633333Y-101809524D01*
X156585714Y-101714286D01*
X156538095Y-101523810D01*
X156538095Y-101380952D01*
X156585714Y-101190476D01*
X156633333Y-101095238D01*
X156728571Y-101000000D01*
X156871429Y-100952381D01*
X156966667Y-100952381D01*
X157109524Y-101000000D01*
X157157143Y-101047619D01*
X158109524Y-101952381D02*
X157538095Y-101952381D01*
X157823809Y-101952381D02*
X157823809Y-100952381D01*
X157728571Y-101095238D01*
X157633333Y-101190476D01*
X157538095Y-101238095D01*
X159061905Y-101952381D02*
X158490476Y-101952381D01*
X158776190Y-101952381D02*
X158776190Y-100952381D01*
X158680952Y-101095238D01*
X158585714Y-101190476D01*
X158490476Y-101238095D01*
X140857143Y-99642857D02*
X140904762Y-99690476D01*
X140952381Y-99833333D01*
X140952381Y-99928571D01*
X140904762Y-100071429D01*
X140809524Y-100166667D01*
X140714286Y-100214286D01*
X140523810Y-100261905D01*
X140380952Y-100261905D01*
X140190476Y-100214286D01*
X140095238Y-100166667D01*
X140000000Y-100071429D01*
X139952381Y-99928571D01*
X139952381Y-99833333D01*
X140000000Y-99690476D01*
X140047619Y-99642857D01*
X140952381Y-98690476D02*
X140952381Y-99261905D01*
X140952381Y-98976191D02*
X139952381Y-98976191D01*
X140095238Y-99071429D01*
X140190476Y-99166667D01*
X140238095Y-99261905D01*
X139952381Y-98357143D02*
X139952381Y-97738095D01*
X140333333Y-98071429D01*
X140333333Y-97928571D01*
X140380952Y-97833333D01*
X140428571Y-97785714D01*
X140523810Y-97738095D01*
X140761905Y-97738095D01*
X140857143Y-97785714D01*
X140904762Y-97833333D01*
X140952381Y-97928571D01*
X140952381Y-98214286D01*
X140904762Y-98309524D01*
X140857143Y-98357143D01*
X128857143Y-132642857D02*
X128904762Y-132690476D01*
X128952381Y-132833333D01*
X128952381Y-132928571D01*
X128904762Y-133071429D01*
X128809524Y-133166667D01*
X128714286Y-133214286D01*
X128523810Y-133261905D01*
X128380952Y-133261905D01*
X128190476Y-133214286D01*
X128095238Y-133166667D01*
X128000000Y-133071429D01*
X127952381Y-132928571D01*
X127952381Y-132833333D01*
X128000000Y-132690476D01*
X128047619Y-132642857D01*
X128952381Y-131690476D02*
X128952381Y-132261905D01*
X128952381Y-131976191D02*
X127952381Y-131976191D01*
X128095238Y-132071429D01*
X128190476Y-132166667D01*
X128238095Y-132261905D01*
X128285714Y-130833333D02*
X128952381Y-130833333D01*
X127904762Y-131071429D02*
X128619048Y-131309524D01*
X128619048Y-130690476D01*
X140857143Y-128642857D02*
X140904762Y-128690476D01*
X140952381Y-128833333D01*
X140952381Y-128928571D01*
X140904762Y-129071429D01*
X140809524Y-129166667D01*
X140714286Y-129214286D01*
X140523810Y-129261905D01*
X140380952Y-129261905D01*
X140190476Y-129214286D01*
X140095238Y-129166667D01*
X140000000Y-129071429D01*
X139952381Y-128928571D01*
X139952381Y-128833333D01*
X140000000Y-128690476D01*
X140047619Y-128642857D01*
X140952381Y-127690476D02*
X140952381Y-128261905D01*
X140952381Y-127976191D02*
X139952381Y-127976191D01*
X140095238Y-128071429D01*
X140190476Y-128166667D01*
X140238095Y-128261905D01*
X139952381Y-126833333D02*
X139952381Y-127023810D01*
X140000000Y-127119048D01*
X140047619Y-127166667D01*
X140190476Y-127261905D01*
X140380952Y-127309524D01*
X140761905Y-127309524D01*
X140857143Y-127261905D01*
X140904762Y-127214286D01*
X140952381Y-127119048D01*
X140952381Y-126928571D01*
X140904762Y-126833333D01*
X140857143Y-126785714D01*
X140761905Y-126738095D01*
X140523810Y-126738095D01*
X140428571Y-126785714D01*
X140380952Y-126833333D01*
X140333333Y-126928571D01*
X140333333Y-127119048D01*
X140380952Y-127214286D01*
X140428571Y-127261905D01*
X140523810Y-127309524D01*
X147557143Y-132357143D02*
X147509524Y-132404762D01*
X147366667Y-132452381D01*
X147271429Y-132452381D01*
X147128571Y-132404762D01*
X147033333Y-132309524D01*
X146985714Y-132214286D01*
X146938095Y-132023810D01*
X146938095Y-131880952D01*
X146985714Y-131690476D01*
X147033333Y-131595238D01*
X147128571Y-131500000D01*
X147271429Y-131452381D01*
X147366667Y-131452381D01*
X147509524Y-131500000D01*
X147557143Y-131547619D01*
X148509524Y-132452381D02*
X147938095Y-132452381D01*
X148223809Y-132452381D02*
X148223809Y-131452381D01*
X148128571Y-131595238D01*
X148033333Y-131690476D01*
X147938095Y-131738095D01*
X149080952Y-131880952D02*
X148985714Y-131833333D01*
X148938095Y-131785714D01*
X148890476Y-131690476D01*
X148890476Y-131642857D01*
X148938095Y-131547619D01*
X148985714Y-131500000D01*
X149080952Y-131452381D01*
X149271429Y-131452381D01*
X149366667Y-131500000D01*
X149414286Y-131547619D01*
X149461905Y-131642857D01*
X149461905Y-131690476D01*
X149414286Y-131785714D01*
X149366667Y-131833333D01*
X149271429Y-131880952D01*
X149080952Y-131880952D01*
X148985714Y-131928571D01*
X148938095Y-131976190D01*
X148890476Y-132071429D01*
X148890476Y-132261905D01*
X148938095Y-132357143D01*
X148985714Y-132404762D01*
X149080952Y-132452381D01*
X149271429Y-132452381D01*
X149366667Y-132404762D01*
X149414286Y-132357143D01*
X149461905Y-132261905D01*
X149461905Y-132071429D01*
X149414286Y-131976190D01*
X149366667Y-131928571D01*
X149271429Y-131880952D01*
X125657143Y-125357143D02*
X125609524Y-125404762D01*
X125466667Y-125452381D01*
X125371429Y-125452381D01*
X125228571Y-125404762D01*
X125133333Y-125309524D01*
X125085714Y-125214286D01*
X125038095Y-125023810D01*
X125038095Y-124880952D01*
X125085714Y-124690476D01*
X125133333Y-124595238D01*
X125228571Y-124500000D01*
X125371429Y-124452381D01*
X125466667Y-124452381D01*
X125609524Y-124500000D01*
X125657143Y-124547619D01*
X126038095Y-124547619D02*
X126085714Y-124500000D01*
X126180952Y-124452381D01*
X126419048Y-124452381D01*
X126514286Y-124500000D01*
X126561905Y-124547619D01*
X126609524Y-124642857D01*
X126609524Y-124738095D01*
X126561905Y-124880952D01*
X125990476Y-125452381D01*
X126609524Y-125452381D01*
X126942857Y-124452381D02*
X127561905Y-124452381D01*
X127228571Y-124833333D01*
X127371429Y-124833333D01*
X127466667Y-124880952D01*
X127514286Y-124928571D01*
X127561905Y-125023810D01*
X127561905Y-125261905D01*
X127514286Y-125357143D01*
X127466667Y-125404762D01*
X127371429Y-125452381D01*
X127085714Y-125452381D01*
X126990476Y-125404762D01*
X126942857Y-125357143D01*
X146257143Y-117857143D02*
X146209524Y-117904762D01*
X146066667Y-117952381D01*
X145971429Y-117952381D01*
X145828571Y-117904762D01*
X145733333Y-117809524D01*
X145685714Y-117714286D01*
X145638095Y-117523810D01*
X145638095Y-117380952D01*
X145685714Y-117190476D01*
X145733333Y-117095238D01*
X145828571Y-117000000D01*
X145971429Y-116952381D01*
X146066667Y-116952381D01*
X146209524Y-117000000D01*
X146257143Y-117047619D01*
X146638095Y-117047619D02*
X146685714Y-117000000D01*
X146780952Y-116952381D01*
X147019048Y-116952381D01*
X147114286Y-117000000D01*
X147161905Y-117047619D01*
X147209524Y-117142857D01*
X147209524Y-117238095D01*
X147161905Y-117380952D01*
X146590476Y-117952381D01*
X147209524Y-117952381D01*
X148066667Y-117285714D02*
X148066667Y-117952381D01*
X147828571Y-116904762D02*
X147590476Y-117619048D01*
X148209524Y-117619048D01*
X132261905Y-59752381D02*
X132261905Y-58752381D01*
X132500000Y-58752381D01*
X132642858Y-58800000D01*
X132738096Y-58895238D01*
X132785715Y-58990476D01*
X132833334Y-59180952D01*
X132833334Y-59323810D01*
X132785715Y-59514286D01*
X132738096Y-59609524D01*
X132642858Y-59704762D01*
X132500000Y-59752381D01*
X132261905Y-59752381D01*
X133785715Y-59752381D02*
X133214286Y-59752381D01*
X133500000Y-59752381D02*
X133500000Y-58752381D01*
X133404762Y-58895238D01*
X133309524Y-58990476D01*
X133214286Y-59038095D01*
X132161905Y-79252381D02*
X132161905Y-78252381D01*
X132400000Y-78252381D01*
X132542858Y-78300000D01*
X132638096Y-78395238D01*
X132685715Y-78490476D01*
X132733334Y-78680952D01*
X132733334Y-78823810D01*
X132685715Y-79014286D01*
X132638096Y-79109524D01*
X132542858Y-79204762D01*
X132400000Y-79252381D01*
X132161905Y-79252381D01*
X133114286Y-78347619D02*
X133161905Y-78300000D01*
X133257143Y-78252381D01*
X133495239Y-78252381D01*
X133590477Y-78300000D01*
X133638096Y-78347619D01*
X133685715Y-78442857D01*
X133685715Y-78538095D01*
X133638096Y-78680952D01*
X133066667Y-79252381D01*
X133685715Y-79252381D01*
X140252381Y-69738095D02*
X139252381Y-69738095D01*
X139252381Y-69500000D01*
X139300000Y-69357142D01*
X139395238Y-69261904D01*
X139490476Y-69214285D01*
X139680952Y-69166666D01*
X139823810Y-69166666D01*
X140014286Y-69214285D01*
X140109524Y-69261904D01*
X140204762Y-69357142D01*
X140252381Y-69500000D01*
X140252381Y-69738095D01*
X139252381Y-68833333D02*
X139252381Y-68214285D01*
X139633333Y-68547619D01*
X139633333Y-68404761D01*
X139680952Y-68309523D01*
X139728571Y-68261904D01*
X139823810Y-68214285D01*
X140061905Y-68214285D01*
X140157143Y-68261904D01*
X140204762Y-68309523D01*
X140252381Y-68404761D01*
X140252381Y-68690476D01*
X140204762Y-68785714D01*
X140157143Y-68833333D01*
X119952381Y-94938095D02*
X118952381Y-94938095D01*
X118952381Y-94700000D01*
X119000000Y-94557142D01*
X119095238Y-94461904D01*
X119190476Y-94414285D01*
X119380952Y-94366666D01*
X119523810Y-94366666D01*
X119714286Y-94414285D01*
X119809524Y-94461904D01*
X119904762Y-94557142D01*
X119952381Y-94700000D01*
X119952381Y-94938095D01*
X119285714Y-93509523D02*
X119952381Y-93509523D01*
X118904762Y-93747619D02*
X119619048Y-93985714D01*
X119619048Y-93366666D01*
X119952381Y-103738095D02*
X118952381Y-103738095D01*
X118952381Y-103500000D01*
X119000000Y-103357142D01*
X119095238Y-103261904D01*
X119190476Y-103214285D01*
X119380952Y-103166666D01*
X119523810Y-103166666D01*
X119714286Y-103214285D01*
X119809524Y-103261904D01*
X119904762Y-103357142D01*
X119952381Y-103500000D01*
X119952381Y-103738095D01*
X118952381Y-102261904D02*
X118952381Y-102738095D01*
X119428571Y-102785714D01*
X119380952Y-102738095D01*
X119333333Y-102642857D01*
X119333333Y-102404761D01*
X119380952Y-102309523D01*
X119428571Y-102261904D01*
X119523810Y-102214285D01*
X119761905Y-102214285D01*
X119857143Y-102261904D01*
X119904762Y-102309523D01*
X119952381Y-102404761D01*
X119952381Y-102642857D01*
X119904762Y-102738095D01*
X119857143Y-102785714D01*
X119952381Y-124138095D02*
X118952381Y-124138095D01*
X118952381Y-123900000D01*
X119000000Y-123757142D01*
X119095238Y-123661904D01*
X119190476Y-123614285D01*
X119380952Y-123566666D01*
X119523810Y-123566666D01*
X119714286Y-123614285D01*
X119809524Y-123661904D01*
X119904762Y-123757142D01*
X119952381Y-123900000D01*
X119952381Y-124138095D01*
X118952381Y-122709523D02*
X118952381Y-122900000D01*
X119000000Y-122995238D01*
X119047619Y-123042857D01*
X119190476Y-123138095D01*
X119380952Y-123185714D01*
X119761905Y-123185714D01*
X119857143Y-123138095D01*
X119904762Y-123090476D01*
X119952381Y-122995238D01*
X119952381Y-122804761D01*
X119904762Y-122709523D01*
X119857143Y-122661904D01*
X119761905Y-122614285D01*
X119523810Y-122614285D01*
X119428571Y-122661904D01*
X119380952Y-122709523D01*
X119333333Y-122804761D01*
X119333333Y-122995238D01*
X119380952Y-123090476D01*
X119428571Y-123138095D01*
X119523810Y-123185714D01*
X119952381Y-132738095D02*
X118952381Y-132738095D01*
X118952381Y-132500000D01*
X119000000Y-132357142D01*
X119095238Y-132261904D01*
X119190476Y-132214285D01*
X119380952Y-132166666D01*
X119523810Y-132166666D01*
X119714286Y-132214285D01*
X119809524Y-132261904D01*
X119904762Y-132357142D01*
X119952381Y-132500000D01*
X119952381Y-132738095D01*
X118952381Y-131833333D02*
X118952381Y-131166666D01*
X119952381Y-131595238D01*
X113752381Y-74833333D02*
X114466667Y-74833333D01*
X114609524Y-74880953D01*
X114704762Y-74976191D01*
X114752381Y-75119048D01*
X114752381Y-75214286D01*
X114752381Y-73833333D02*
X114752381Y-74404762D01*
X114752381Y-74119048D02*
X113752381Y-74119048D01*
X113895238Y-74214286D01*
X113990476Y-74309524D01*
X114038095Y-74404762D01*
X113752381Y-62083333D02*
X114466667Y-62083333D01*
X114609524Y-62130953D01*
X114704762Y-62226191D01*
X114752381Y-62369048D01*
X114752381Y-62464286D01*
X113847619Y-61654762D02*
X113800000Y-61607143D01*
X113752381Y-61511905D01*
X113752381Y-61273809D01*
X113800000Y-61178571D01*
X113847619Y-61130952D01*
X113942857Y-61083333D01*
X114038095Y-61083333D01*
X114180952Y-61130952D01*
X114752381Y-61702381D01*
X114752381Y-61083333D01*
X113752381Y-99083333D02*
X114466667Y-99083333D01*
X114609524Y-99130953D01*
X114704762Y-99226191D01*
X114752381Y-99369048D01*
X114752381Y-99464286D01*
X113752381Y-98702381D02*
X113752381Y-98083333D01*
X114133333Y-98416667D01*
X114133333Y-98273809D01*
X114180952Y-98178571D01*
X114228571Y-98130952D01*
X114323810Y-98083333D01*
X114561905Y-98083333D01*
X114657143Y-98130952D01*
X114704762Y-98178571D01*
X114752381Y-98273809D01*
X114752381Y-98559524D01*
X114704762Y-98654762D01*
X114657143Y-98702381D01*
X171152381Y-86583333D02*
X171866667Y-86583333D01*
X172009524Y-86630953D01*
X172104762Y-86726191D01*
X172152381Y-86869048D01*
X172152381Y-86964286D01*
X171485714Y-85678571D02*
X172152381Y-85678571D01*
X171104762Y-85916667D02*
X171819048Y-86154762D01*
X171819048Y-85535714D01*
X113752381Y-128083333D02*
X114466667Y-128083333D01*
X114609524Y-128130953D01*
X114704762Y-128226191D01*
X114752381Y-128369048D01*
X114752381Y-128464286D01*
X113752381Y-127130952D02*
X113752381Y-127607143D01*
X114228571Y-127654762D01*
X114180952Y-127607143D01*
X114133333Y-127511905D01*
X114133333Y-127273809D01*
X114180952Y-127178571D01*
X114228571Y-127130952D01*
X114323810Y-127083333D01*
X114561905Y-127083333D01*
X114657143Y-127130952D01*
X114704762Y-127178571D01*
X114752381Y-127273809D01*
X114752381Y-127511905D01*
X114704762Y-127607143D01*
X114657143Y-127654762D01*
X171152381Y-120583333D02*
X171866667Y-120583333D01*
X172009524Y-120630953D01*
X172104762Y-120726191D01*
X172152381Y-120869048D01*
X172152381Y-120964286D01*
X171152381Y-119678571D02*
X171152381Y-119869048D01*
X171200000Y-119964286D01*
X171247619Y-120011905D01*
X171390476Y-120107143D01*
X171580952Y-120154762D01*
X171961905Y-120154762D01*
X172057143Y-120107143D01*
X172104762Y-120059524D01*
X172152381Y-119964286D01*
X172152381Y-119773809D01*
X172104762Y-119678571D01*
X172057143Y-119630952D01*
X171961905Y-119583333D01*
X171723810Y-119583333D01*
X171628571Y-119630952D01*
X171580952Y-119678571D01*
X171533333Y-119773809D01*
X171533333Y-119964286D01*
X171580952Y-120059524D01*
X171628571Y-120107143D01*
X171723810Y-120154762D01*
X121666667Y-88122381D02*
X121666667Y-88836667D01*
X121619047Y-88979524D01*
X121523809Y-89074762D01*
X121380952Y-89122381D01*
X121285714Y-89122381D01*
X122047619Y-88122381D02*
X122714286Y-88122381D01*
X122285714Y-89122381D01*
X127666667Y-86122381D02*
X127666667Y-86836667D01*
X127619047Y-86979524D01*
X127523809Y-87074762D01*
X127380952Y-87122381D01*
X127285714Y-87122381D01*
X128190476Y-87122381D02*
X128380952Y-87122381D01*
X128476191Y-87074762D01*
X128523810Y-87027143D01*
X128619048Y-86884286D01*
X128666667Y-86693810D01*
X128666667Y-86312857D01*
X128619048Y-86217619D01*
X128571429Y-86170000D01*
X128476191Y-86122381D01*
X128285714Y-86122381D01*
X128190476Y-86170000D01*
X128142857Y-86217619D01*
X128095238Y-86312857D01*
X128095238Y-86550952D01*
X128142857Y-86646190D01*
X128190476Y-86693810D01*
X128285714Y-86741429D01*
X128476191Y-86741429D01*
X128571429Y-86693810D01*
X128619048Y-86646190D01*
X128666667Y-86550952D01*
X136190477Y-101122381D02*
X136190477Y-101836667D01*
X136142857Y-101979524D01*
X136047619Y-102074762D01*
X135904762Y-102122381D01*
X135809524Y-102122381D01*
X137190477Y-102122381D02*
X136619048Y-102122381D01*
X136904762Y-102122381D02*
X136904762Y-101122381D01*
X136809524Y-101265238D01*
X136714286Y-101360476D01*
X136619048Y-101408095D01*
X137809524Y-101122381D02*
X137904763Y-101122381D01*
X138000001Y-101170000D01*
X138047620Y-101217619D01*
X138095239Y-101312857D01*
X138142858Y-101503333D01*
X138142858Y-101741429D01*
X138095239Y-101931905D01*
X138047620Y-102027143D01*
X138000001Y-102074762D01*
X137904763Y-102122381D01*
X137809524Y-102122381D01*
X137714286Y-102074762D01*
X137666667Y-102027143D01*
X137619048Y-101931905D01*
X137571429Y-101741429D01*
X137571429Y-101503333D01*
X137619048Y-101312857D01*
X137666667Y-101217619D01*
X137714286Y-101170000D01*
X137809524Y-101122381D01*
X165090477Y-76722381D02*
X165090477Y-77436667D01*
X165042857Y-77579524D01*
X164947619Y-77674762D01*
X164804762Y-77722381D01*
X164709524Y-77722381D01*
X166090477Y-77722381D02*
X165519048Y-77722381D01*
X165804762Y-77722381D02*
X165804762Y-76722381D01*
X165709524Y-76865238D01*
X165614286Y-76960476D01*
X165519048Y-77008095D01*
X167042858Y-77722381D02*
X166471429Y-77722381D01*
X166757143Y-77722381D02*
X166757143Y-76722381D01*
X166661905Y-76865238D01*
X166566667Y-76960476D01*
X166471429Y-77008095D01*
X165090477Y-85122381D02*
X165090477Y-85836667D01*
X165042857Y-85979524D01*
X164947619Y-86074762D01*
X164804762Y-86122381D01*
X164709524Y-86122381D01*
X166090477Y-86122381D02*
X165519048Y-86122381D01*
X165804762Y-86122381D02*
X165804762Y-85122381D01*
X165709524Y-85265238D01*
X165614286Y-85360476D01*
X165519048Y-85408095D01*
X166471429Y-85217619D02*
X166519048Y-85170000D01*
X166614286Y-85122381D01*
X166852382Y-85122381D01*
X166947620Y-85170000D01*
X166995239Y-85217619D01*
X167042858Y-85312857D01*
X167042858Y-85408095D01*
X166995239Y-85550952D01*
X166423810Y-86122381D01*
X167042858Y-86122381D01*
X121190477Y-117122381D02*
X121190477Y-117836667D01*
X121142857Y-117979524D01*
X121047619Y-118074762D01*
X120904762Y-118122381D01*
X120809524Y-118122381D01*
X122190477Y-118122381D02*
X121619048Y-118122381D01*
X121904762Y-118122381D02*
X121904762Y-117122381D01*
X121809524Y-117265238D01*
X121714286Y-117360476D01*
X121619048Y-117408095D01*
X122523810Y-117122381D02*
X123142858Y-117122381D01*
X122809524Y-117503333D01*
X122952382Y-117503333D01*
X123047620Y-117550952D01*
X123095239Y-117598571D01*
X123142858Y-117693810D01*
X123142858Y-117931905D01*
X123095239Y-118027143D01*
X123047620Y-118074762D01*
X122952382Y-118122381D01*
X122666667Y-118122381D01*
X122571429Y-118074762D01*
X122523810Y-118027143D01*
X121190477Y-128122381D02*
X121190477Y-128836667D01*
X121142857Y-128979524D01*
X121047619Y-129074762D01*
X120904762Y-129122381D01*
X120809524Y-129122381D01*
X122190477Y-129122381D02*
X121619048Y-129122381D01*
X121904762Y-129122381D02*
X121904762Y-128122381D01*
X121809524Y-128265238D01*
X121714286Y-128360476D01*
X121619048Y-128408095D01*
X123047620Y-128455714D02*
X123047620Y-129122381D01*
X122809524Y-128074762D02*
X122571429Y-128789048D01*
X123190477Y-128789048D01*
X127190477Y-115122381D02*
X127190477Y-115836667D01*
X127142857Y-115979524D01*
X127047619Y-116074762D01*
X126904762Y-116122381D01*
X126809524Y-116122381D01*
X128190477Y-116122381D02*
X127619048Y-116122381D01*
X127904762Y-116122381D02*
X127904762Y-115122381D01*
X127809524Y-115265238D01*
X127714286Y-115360476D01*
X127619048Y-115408095D01*
X129095239Y-115122381D02*
X128619048Y-115122381D01*
X128571429Y-115598571D01*
X128619048Y-115550952D01*
X128714286Y-115503333D01*
X128952382Y-115503333D01*
X129047620Y-115550952D01*
X129095239Y-115598571D01*
X129142858Y-115693810D01*
X129142858Y-115931905D01*
X129095239Y-116027143D01*
X129047620Y-116074762D01*
X128952382Y-116122381D01*
X128714286Y-116122381D01*
X128619048Y-116074762D01*
X128571429Y-116027143D01*
X136690477Y-129622381D02*
X136690477Y-130336667D01*
X136642857Y-130479524D01*
X136547619Y-130574762D01*
X136404762Y-130622381D01*
X136309524Y-130622381D01*
X137690477Y-130622381D02*
X137119048Y-130622381D01*
X137404762Y-130622381D02*
X137404762Y-129622381D01*
X137309524Y-129765238D01*
X137214286Y-129860476D01*
X137119048Y-129908095D01*
X138547620Y-129622381D02*
X138357143Y-129622381D01*
X138261905Y-129670000D01*
X138214286Y-129717619D01*
X138119048Y-129860476D01*
X138071429Y-130050952D01*
X138071429Y-130431905D01*
X138119048Y-130527143D01*
X138166667Y-130574762D01*
X138261905Y-130622381D01*
X138452382Y-130622381D01*
X138547620Y-130574762D01*
X138595239Y-130527143D01*
X138642858Y-130431905D01*
X138642858Y-130193810D01*
X138595239Y-130098571D01*
X138547620Y-130050952D01*
X138452382Y-130003333D01*
X138261905Y-130003333D01*
X138166667Y-130050952D01*
X138119048Y-130098571D01*
X138071429Y-130193810D01*
X165190477Y-120122381D02*
X165190477Y-120836667D01*
X165142857Y-120979524D01*
X165047619Y-121074762D01*
X164904762Y-121122381D01*
X164809524Y-121122381D01*
X166190477Y-121122381D02*
X165619048Y-121122381D01*
X165904762Y-121122381D02*
X165904762Y-120122381D01*
X165809524Y-120265238D01*
X165714286Y-120360476D01*
X165619048Y-120408095D01*
X166523810Y-120122381D02*
X167190477Y-120122381D01*
X166761905Y-121122381D01*
X126633334Y-62452381D02*
X126157143Y-62452381D01*
X126157143Y-61452381D01*
X127490477Y-62452381D02*
X126919048Y-62452381D01*
X127204762Y-62452381D02*
X127204762Y-61452381D01*
X127109524Y-61595238D01*
X127014286Y-61690476D01*
X126919048Y-61738095D01*
X126633334Y-69552381D02*
X126157143Y-69552381D01*
X126157143Y-68552381D01*
X126919048Y-68647619D02*
X126966667Y-68600000D01*
X127061905Y-68552381D01*
X127300001Y-68552381D01*
X127395239Y-68600000D01*
X127442858Y-68647619D01*
X127490477Y-68742857D01*
X127490477Y-68838095D01*
X127442858Y-68980952D01*
X126871429Y-69552381D01*
X127490477Y-69552381D01*
X126533334Y-76452381D02*
X126057143Y-76452381D01*
X126057143Y-75452381D01*
X126771429Y-75452381D02*
X127390477Y-75452381D01*
X127057143Y-75833333D01*
X127200001Y-75833333D01*
X127295239Y-75880952D01*
X127342858Y-75928571D01*
X127390477Y-76023810D01*
X127390477Y-76261905D01*
X127342858Y-76357143D01*
X127295239Y-76404762D01*
X127200001Y-76452381D01*
X126914286Y-76452381D01*
X126819048Y-76404762D01*
X126771429Y-76357143D01*
X132002381Y-104166666D02*
X131526190Y-104500000D01*
X132002381Y-104738095D02*
X131002381Y-104738095D01*
X131002381Y-104357142D01*
X131050000Y-104261904D01*
X131097619Y-104214285D01*
X131192857Y-104166666D01*
X131335714Y-104166666D01*
X131430952Y-104214285D01*
X131478571Y-104261904D01*
X131526190Y-104357142D01*
X131526190Y-104738095D01*
X132002381Y-103214285D02*
X132002381Y-103785714D01*
X132002381Y-103500000D02*
X131002381Y-103500000D01*
X131145238Y-103595238D01*
X131240476Y-103690476D01*
X131288095Y-103785714D01*
X131952381Y-99166666D02*
X131476190Y-99500000D01*
X131952381Y-99738095D02*
X130952381Y-99738095D01*
X130952381Y-99357142D01*
X131000000Y-99261904D01*
X131047619Y-99214285D01*
X131142857Y-99166666D01*
X131285714Y-99166666D01*
X131380952Y-99214285D01*
X131428571Y-99261904D01*
X131476190Y-99357142D01*
X131476190Y-99738095D01*
X131047619Y-98785714D02*
X131000000Y-98738095D01*
X130952381Y-98642857D01*
X130952381Y-98404761D01*
X131000000Y-98309523D01*
X131047619Y-98261904D01*
X131142857Y-98214285D01*
X131238095Y-98214285D01*
X131380952Y-98261904D01*
X131952381Y-98833333D01*
X131952381Y-98214285D01*
X135002381Y-99166666D02*
X134526190Y-99500000D01*
X135002381Y-99738095D02*
X134002381Y-99738095D01*
X134002381Y-99357142D01*
X134050000Y-99261904D01*
X134097619Y-99214285D01*
X134192857Y-99166666D01*
X134335714Y-99166666D01*
X134430952Y-99214285D01*
X134478571Y-99261904D01*
X134526190Y-99357142D01*
X134526190Y-99738095D01*
X134002381Y-98833333D02*
X134002381Y-98214285D01*
X134383333Y-98547619D01*
X134383333Y-98404761D01*
X134430952Y-98309523D01*
X134478571Y-98261904D01*
X134573810Y-98214285D01*
X134811905Y-98214285D01*
X134907143Y-98261904D01*
X134954762Y-98309523D01*
X135002381Y-98404761D01*
X135002381Y-98690476D01*
X134954762Y-98785714D01*
X134907143Y-98833333D01*
X127002381Y-101166666D02*
X126526190Y-101500000D01*
X127002381Y-101738095D02*
X126002381Y-101738095D01*
X126002381Y-101357142D01*
X126050000Y-101261904D01*
X126097619Y-101214285D01*
X126192857Y-101166666D01*
X126335714Y-101166666D01*
X126430952Y-101214285D01*
X126478571Y-101261904D01*
X126526190Y-101357142D01*
X126526190Y-101738095D01*
X126335714Y-100309523D02*
X127002381Y-100309523D01*
X125954762Y-100547619D02*
X126669048Y-100785714D01*
X126669048Y-100166666D01*
X170802381Y-83966666D02*
X170326190Y-84300000D01*
X170802381Y-84538095D02*
X169802381Y-84538095D01*
X169802381Y-84157142D01*
X169850000Y-84061904D01*
X169897619Y-84014285D01*
X169992857Y-83966666D01*
X170135714Y-83966666D01*
X170230952Y-84014285D01*
X170278571Y-84061904D01*
X170326190Y-84157142D01*
X170326190Y-84538095D01*
X169802381Y-83061904D02*
X169802381Y-83538095D01*
X170278571Y-83585714D01*
X170230952Y-83538095D01*
X170183333Y-83442857D01*
X170183333Y-83204761D01*
X170230952Y-83109523D01*
X170278571Y-83061904D01*
X170373810Y-83014285D01*
X170611905Y-83014285D01*
X170707143Y-83061904D01*
X170754762Y-83109523D01*
X170802381Y-83204761D01*
X170802381Y-83442857D01*
X170754762Y-83538095D01*
X170707143Y-83585714D01*
X140902381Y-91166666D02*
X140426190Y-91500000D01*
X140902381Y-91738095D02*
X139902381Y-91738095D01*
X139902381Y-91357142D01*
X139950000Y-91261904D01*
X139997619Y-91214285D01*
X140092857Y-91166666D01*
X140235714Y-91166666D01*
X140330952Y-91214285D01*
X140378571Y-91261904D01*
X140426190Y-91357142D01*
X140426190Y-91738095D01*
X139902381Y-90309523D02*
X139902381Y-90500000D01*
X139950000Y-90595238D01*
X139997619Y-90642857D01*
X140140476Y-90738095D01*
X140330952Y-90785714D01*
X140711905Y-90785714D01*
X140807143Y-90738095D01*
X140854762Y-90690476D01*
X140902381Y-90595238D01*
X140902381Y-90404761D01*
X140854762Y-90309523D01*
X140807143Y-90261904D01*
X140711905Y-90214285D01*
X140473810Y-90214285D01*
X140378571Y-90261904D01*
X140330952Y-90309523D01*
X140283333Y-90404761D01*
X140283333Y-90595238D01*
X140330952Y-90690476D01*
X140378571Y-90738095D01*
X140473810Y-90785714D01*
X140902381Y-95166666D02*
X140426190Y-95500000D01*
X140902381Y-95738095D02*
X139902381Y-95738095D01*
X139902381Y-95357142D01*
X139950000Y-95261904D01*
X139997619Y-95214285D01*
X140092857Y-95166666D01*
X140235714Y-95166666D01*
X140330952Y-95214285D01*
X140378571Y-95261904D01*
X140426190Y-95357142D01*
X140426190Y-95738095D01*
X140330952Y-94595238D02*
X140283333Y-94690476D01*
X140235714Y-94738095D01*
X140140476Y-94785714D01*
X140092857Y-94785714D01*
X139997619Y-94738095D01*
X139950000Y-94690476D01*
X139902381Y-94595238D01*
X139902381Y-94404761D01*
X139950000Y-94309523D01*
X139997619Y-94261904D01*
X140092857Y-94214285D01*
X140140476Y-94214285D01*
X140235714Y-94261904D01*
X140283333Y-94309523D01*
X140330952Y-94404761D01*
X140330952Y-94595238D01*
X140378571Y-94690476D01*
X140426190Y-94738095D01*
X140521429Y-94785714D01*
X140711905Y-94785714D01*
X140807143Y-94738095D01*
X140854762Y-94690476D01*
X140902381Y-94595238D01*
X140902381Y-94404761D01*
X140854762Y-94309523D01*
X140807143Y-94261904D01*
X140711905Y-94214285D01*
X140521429Y-94214285D01*
X140426190Y-94261904D01*
X140378571Y-94309523D01*
X140330952Y-94404761D01*
X132502381Y-132166666D02*
X132026190Y-132500000D01*
X132502381Y-132738095D02*
X131502381Y-132738095D01*
X131502381Y-132357142D01*
X131550000Y-132261904D01*
X131597619Y-132214285D01*
X131692857Y-132166666D01*
X131835714Y-132166666D01*
X131930952Y-132214285D01*
X131978571Y-132261904D01*
X132026190Y-132357142D01*
X132026190Y-132738095D01*
X132502381Y-131690476D02*
X132502381Y-131500000D01*
X132454762Y-131404761D01*
X132407143Y-131357142D01*
X132264286Y-131261904D01*
X132073810Y-131214285D01*
X131692857Y-131214285D01*
X131597619Y-131261904D01*
X131550000Y-131309523D01*
X131502381Y-131404761D01*
X131502381Y-131595238D01*
X131550000Y-131690476D01*
X131597619Y-131738095D01*
X131692857Y-131785714D01*
X131930952Y-131785714D01*
X132026190Y-131738095D01*
X132073810Y-131690476D01*
X132121429Y-131595238D01*
X132121429Y-131404761D01*
X132073810Y-131309523D01*
X132026190Y-131261904D01*
X131930952Y-131214285D01*
X131952381Y-128642857D02*
X131476190Y-128976191D01*
X131952381Y-129214286D02*
X130952381Y-129214286D01*
X130952381Y-128833333D01*
X131000000Y-128738095D01*
X131047619Y-128690476D01*
X131142857Y-128642857D01*
X131285714Y-128642857D01*
X131380952Y-128690476D01*
X131428571Y-128738095D01*
X131476190Y-128833333D01*
X131476190Y-129214286D01*
X131952381Y-127690476D02*
X131952381Y-128261905D01*
X131952381Y-127976191D02*
X130952381Y-127976191D01*
X131095238Y-128071429D01*
X131190476Y-128166667D01*
X131238095Y-128261905D01*
X130952381Y-127071429D02*
X130952381Y-126976190D01*
X131000000Y-126880952D01*
X131047619Y-126833333D01*
X131142857Y-126785714D01*
X131333333Y-126738095D01*
X131571429Y-126738095D01*
X131761905Y-126785714D01*
X131857143Y-126833333D01*
X131904762Y-126880952D01*
X131952381Y-126976190D01*
X131952381Y-127071429D01*
X131904762Y-127166667D01*
X131857143Y-127214286D01*
X131761905Y-127261905D01*
X131571429Y-127309524D01*
X131333333Y-127309524D01*
X131142857Y-127261905D01*
X131047619Y-127214286D01*
X131000000Y-127166667D01*
X130952381Y-127071429D01*
X135002381Y-128642857D02*
X134526190Y-128976191D01*
X135002381Y-129214286D02*
X134002381Y-129214286D01*
X134002381Y-128833333D01*
X134050000Y-128738095D01*
X134097619Y-128690476D01*
X134192857Y-128642857D01*
X134335714Y-128642857D01*
X134430952Y-128690476D01*
X134478571Y-128738095D01*
X134526190Y-128833333D01*
X134526190Y-129214286D01*
X135002381Y-127690476D02*
X135002381Y-128261905D01*
X135002381Y-127976191D02*
X134002381Y-127976191D01*
X134145238Y-128071429D01*
X134240476Y-128166667D01*
X134288095Y-128261905D01*
X135002381Y-126738095D02*
X135002381Y-127309524D01*
X135002381Y-127023810D02*
X134002381Y-127023810D01*
X134145238Y-127119048D01*
X134240476Y-127214286D01*
X134288095Y-127309524D01*
X127502381Y-130542857D02*
X127026190Y-130876191D01*
X127502381Y-131114286D02*
X126502381Y-131114286D01*
X126502381Y-130733333D01*
X126550000Y-130638095D01*
X126597619Y-130590476D01*
X126692857Y-130542857D01*
X126835714Y-130542857D01*
X126930952Y-130590476D01*
X126978571Y-130638095D01*
X127026190Y-130733333D01*
X127026190Y-131114286D01*
X127502381Y-129590476D02*
X127502381Y-130161905D01*
X127502381Y-129876191D02*
X126502381Y-129876191D01*
X126645238Y-129971429D01*
X126740476Y-130066667D01*
X126788095Y-130161905D01*
X126597619Y-129209524D02*
X126550000Y-129161905D01*
X126502381Y-129066667D01*
X126502381Y-128828571D01*
X126550000Y-128733333D01*
X126597619Y-128685714D01*
X126692857Y-128638095D01*
X126788095Y-128638095D01*
X126930952Y-128685714D01*
X127502381Y-129257143D01*
X127502381Y-128638095D01*
X140902381Y-120642857D02*
X140426190Y-120976191D01*
X140902381Y-121214286D02*
X139902381Y-121214286D01*
X139902381Y-120833333D01*
X139950000Y-120738095D01*
X139997619Y-120690476D01*
X140092857Y-120642857D01*
X140235714Y-120642857D01*
X140330952Y-120690476D01*
X140378571Y-120738095D01*
X140426190Y-120833333D01*
X140426190Y-121214286D01*
X140902381Y-119690476D02*
X140902381Y-120261905D01*
X140902381Y-119976191D02*
X139902381Y-119976191D01*
X140045238Y-120071429D01*
X140140476Y-120166667D01*
X140188095Y-120261905D01*
X139902381Y-119357143D02*
X139902381Y-118738095D01*
X140283333Y-119071429D01*
X140283333Y-118928571D01*
X140330952Y-118833333D01*
X140378571Y-118785714D01*
X140473810Y-118738095D01*
X140711905Y-118738095D01*
X140807143Y-118785714D01*
X140854762Y-118833333D01*
X140902381Y-118928571D01*
X140902381Y-119214286D01*
X140854762Y-119309524D01*
X140807143Y-119357143D01*
X140902381Y-124642857D02*
X140426190Y-124976191D01*
X140902381Y-125214286D02*
X139902381Y-125214286D01*
X139902381Y-124833333D01*
X139950000Y-124738095D01*
X139997619Y-124690476D01*
X140092857Y-124642857D01*
X140235714Y-124642857D01*
X140330952Y-124690476D01*
X140378571Y-124738095D01*
X140426190Y-124833333D01*
X140426190Y-125214286D01*
X140902381Y-123690476D02*
X140902381Y-124261905D01*
X140902381Y-123976191D02*
X139902381Y-123976191D01*
X140045238Y-124071429D01*
X140140476Y-124166667D01*
X140188095Y-124261905D01*
X139902381Y-122785714D02*
X139902381Y-123261905D01*
X140378571Y-123309524D01*
X140330952Y-123261905D01*
X140283333Y-123166667D01*
X140283333Y-122928571D01*
X140330952Y-122833333D01*
X140378571Y-122785714D01*
X140473810Y-122738095D01*
X140711905Y-122738095D01*
X140807143Y-122785714D01*
X140854762Y-122833333D01*
X140902381Y-122928571D01*
X140902381Y-123166667D01*
X140854762Y-123261905D01*
X140807143Y-123309524D01*
X170357143Y-103302381D02*
X170023809Y-102826190D01*
X169785714Y-103302381D02*
X169785714Y-102302381D01*
X170166667Y-102302381D01*
X170261905Y-102350000D01*
X170309524Y-102397619D01*
X170357143Y-102492857D01*
X170357143Y-102635714D01*
X170309524Y-102730952D01*
X170261905Y-102778571D01*
X170166667Y-102826190D01*
X169785714Y-102826190D01*
X171309524Y-103302381D02*
X170738095Y-103302381D01*
X171023809Y-103302381D02*
X171023809Y-102302381D01*
X170928571Y-102445238D01*
X170833333Y-102540476D01*
X170738095Y-102588095D01*
X172166667Y-102302381D02*
X171976190Y-102302381D01*
X171880952Y-102350000D01*
X171833333Y-102397619D01*
X171738095Y-102540476D01*
X171690476Y-102730952D01*
X171690476Y-103111905D01*
X171738095Y-103207143D01*
X171785714Y-103254762D01*
X171880952Y-103302381D01*
X172071429Y-103302381D01*
X172166667Y-103254762D01*
X172214286Y-103207143D01*
X172261905Y-103111905D01*
X172261905Y-102873810D01*
X172214286Y-102778571D01*
X172166667Y-102730952D01*
X172071429Y-102683333D01*
X171880952Y-102683333D01*
X171785714Y-102730952D01*
X171738095Y-102778571D01*
X171690476Y-102873810D01*
X170357143Y-115302381D02*
X170023809Y-114826190D01*
X169785714Y-115302381D02*
X169785714Y-114302381D01*
X170166667Y-114302381D01*
X170261905Y-114350000D01*
X170309524Y-114397619D01*
X170357143Y-114492857D01*
X170357143Y-114635714D01*
X170309524Y-114730952D01*
X170261905Y-114778571D01*
X170166667Y-114826190D01*
X169785714Y-114826190D01*
X171309524Y-115302381D02*
X170738095Y-115302381D01*
X171023809Y-115302381D02*
X171023809Y-114302381D01*
X170928571Y-114445238D01*
X170833333Y-114540476D01*
X170738095Y-114588095D01*
X171642857Y-114302381D02*
X172309524Y-114302381D01*
X171880952Y-115302381D01*
X170357143Y-137302381D02*
X170023809Y-136826190D01*
X169785714Y-137302381D02*
X169785714Y-136302381D01*
X170166667Y-136302381D01*
X170261905Y-136350000D01*
X170309524Y-136397619D01*
X170357143Y-136492857D01*
X170357143Y-136635714D01*
X170309524Y-136730952D01*
X170261905Y-136778571D01*
X170166667Y-136826190D01*
X169785714Y-136826190D01*
X171309524Y-137302381D02*
X170738095Y-137302381D01*
X171023809Y-137302381D02*
X171023809Y-136302381D01*
X170928571Y-136445238D01*
X170833333Y-136540476D01*
X170738095Y-136588095D01*
X171880952Y-136730952D02*
X171785714Y-136683333D01*
X171738095Y-136635714D01*
X171690476Y-136540476D01*
X171690476Y-136492857D01*
X171738095Y-136397619D01*
X171785714Y-136350000D01*
X171880952Y-136302381D01*
X172071429Y-136302381D01*
X172166667Y-136350000D01*
X172214286Y-136397619D01*
X172261905Y-136492857D01*
X172261905Y-136540476D01*
X172214286Y-136635714D01*
X172166667Y-136683333D01*
X172071429Y-136730952D01*
X171880952Y-136730952D01*
X171785714Y-136778571D01*
X171738095Y-136826190D01*
X171690476Y-136921429D01*
X171690476Y-137111905D01*
X171738095Y-137207143D01*
X171785714Y-137254762D01*
X171880952Y-137302381D01*
X172071429Y-137302381D01*
X172166667Y-137254762D01*
X172214286Y-137207143D01*
X172261905Y-137111905D01*
X172261905Y-136921429D01*
X172214286Y-136826190D01*
X172166667Y-136778571D01*
X172071429Y-136730952D01*
X170357143Y-149302381D02*
X170023809Y-148826190D01*
X169785714Y-149302381D02*
X169785714Y-148302381D01*
X170166667Y-148302381D01*
X170261905Y-148350000D01*
X170309524Y-148397619D01*
X170357143Y-148492857D01*
X170357143Y-148635714D01*
X170309524Y-148730952D01*
X170261905Y-148778571D01*
X170166667Y-148826190D01*
X169785714Y-148826190D01*
X171309524Y-149302381D02*
X170738095Y-149302381D01*
X171023809Y-149302381D02*
X171023809Y-148302381D01*
X170928571Y-148445238D01*
X170833333Y-148540476D01*
X170738095Y-148588095D01*
X171785714Y-149302381D02*
X171976190Y-149302381D01*
X172071429Y-149254762D01*
X172119048Y-149207143D01*
X172214286Y-149064286D01*
X172261905Y-148873810D01*
X172261905Y-148492857D01*
X172214286Y-148397619D01*
X172166667Y-148350000D01*
X172071429Y-148302381D01*
X171880952Y-148302381D01*
X171785714Y-148350000D01*
X171738095Y-148397619D01*
X171690476Y-148492857D01*
X171690476Y-148730952D01*
X171738095Y-148826190D01*
X171785714Y-148873810D01*
X171880952Y-148921429D01*
X172071429Y-148921429D01*
X172166667Y-148873810D01*
X172214286Y-148826190D01*
X172261905Y-148730952D01*
X130238095Y-96152381D02*
X130238095Y-96961905D01*
X130285714Y-97057143D01*
X130333333Y-97104762D01*
X130428571Y-97152381D01*
X130619048Y-97152381D01*
X130714286Y-97104762D01*
X130761905Y-97057143D01*
X130809524Y-96961905D01*
X130809524Y-96152381D01*
X131809524Y-97152381D02*
X131238095Y-97152381D01*
X131523809Y-97152381D02*
X131523809Y-96152381D01*
X131428571Y-96295238D01*
X131333333Y-96390476D01*
X131238095Y-96438095D01*
X143952381Y-96761905D02*
X144761905Y-96761905D01*
X144857143Y-96714286D01*
X144904762Y-96666667D01*
X144952381Y-96571429D01*
X144952381Y-96380952D01*
X144904762Y-96285714D01*
X144857143Y-96238095D01*
X144761905Y-96190476D01*
X143952381Y-96190476D01*
X144047619Y-95761905D02*
X144000000Y-95714286D01*
X143952381Y-95619048D01*
X143952381Y-95380952D01*
X144000000Y-95285714D01*
X144047619Y-95238095D01*
X144142857Y-95190476D01*
X144238095Y-95190476D01*
X144380952Y-95238095D01*
X144952381Y-95809524D01*
X144952381Y-95190476D01*
X159152381Y-96661905D02*
X159961905Y-96661905D01*
X160057143Y-96614286D01*
X160104762Y-96566667D01*
X160152381Y-96471429D01*
X160152381Y-96280952D01*
X160104762Y-96185714D01*
X160057143Y-96138095D01*
X159961905Y-96090476D01*
X159152381Y-96090476D01*
X159485714Y-95185714D02*
X160152381Y-95185714D01*
X159104762Y-95423810D02*
X159819048Y-95661905D01*
X159819048Y-95042857D01*
X130238095Y-125152381D02*
X130238095Y-125961905D01*
X130285714Y-126057143D01*
X130333333Y-126104762D01*
X130428571Y-126152381D01*
X130619048Y-126152381D01*
X130714286Y-126104762D01*
X130761905Y-126057143D01*
X130809524Y-125961905D01*
X130809524Y-125152381D01*
X131761905Y-125152381D02*
X131285714Y-125152381D01*
X131238095Y-125628571D01*
X131285714Y-125580952D01*
X131380952Y-125533333D01*
X131619048Y-125533333D01*
X131714286Y-125580952D01*
X131761905Y-125628571D01*
X131809524Y-125723810D01*
X131809524Y-125961905D01*
X131761905Y-126057143D01*
X131714286Y-126104762D01*
X131619048Y-126152381D01*
X131380952Y-126152381D01*
X131285714Y-126104762D01*
X131238095Y-126057143D01*
X150952381Y-125761905D02*
X151761905Y-125761905D01*
X151857143Y-125714286D01*
X151904762Y-125666667D01*
X151952381Y-125571429D01*
X151952381Y-125380952D01*
X151904762Y-125285714D01*
X151857143Y-125238095D01*
X151761905Y-125190476D01*
X150952381Y-125190476D01*
X150952381Y-124285714D02*
X150952381Y-124476191D01*
X151000000Y-124571429D01*
X151047619Y-124619048D01*
X151190476Y-124714286D01*
X151380952Y-124761905D01*
X151761905Y-124761905D01*
X151857143Y-124714286D01*
X151904762Y-124666667D01*
X151952381Y-124571429D01*
X151952381Y-124380952D01*
X151904762Y-124285714D01*
X151857143Y-124238095D01*
X151761905Y-124190476D01*
X151523810Y-124190476D01*
X151428571Y-124238095D01*
X151380952Y-124285714D01*
X151333333Y-124380952D01*
X151333333Y-124571429D01*
X151380952Y-124666667D01*
X151428571Y-124714286D01*
X151523810Y-124761905D01*
X165190477Y-115122381D02*
X165190477Y-115836667D01*
X165142857Y-115979524D01*
X165047619Y-116074762D01*
X164904762Y-116122381D01*
X164809524Y-116122381D01*
X166190477Y-116122381D02*
X165619048Y-116122381D01*
X165904762Y-116122381D02*
X165904762Y-115122381D01*
X165809524Y-115265238D01*
X165714286Y-115360476D01*
X165619048Y-115408095D01*
X166761905Y-115550952D02*
X166666667Y-115503333D01*
X166619048Y-115455714D01*
X166571429Y-115360476D01*
X166571429Y-115312857D01*
X166619048Y-115217619D01*
X166666667Y-115170000D01*
X166761905Y-115122381D01*
X166952382Y-115122381D01*
X167047620Y-115170000D01*
X167095239Y-115217619D01*
X167142858Y-115312857D01*
X167142858Y-115360476D01*
X167095239Y-115455714D01*
X167047620Y-115503333D01*
X166952382Y-115550952D01*
X166761905Y-115550952D01*
X166666667Y-115598571D01*
X166619048Y-115646190D01*
X166571429Y-115741429D01*
X166571429Y-115931905D01*
X166619048Y-116027143D01*
X166666667Y-116074762D01*
X166761905Y-116122381D01*
X166952382Y-116122381D01*
X167047620Y-116074762D01*
X167095239Y-116027143D01*
X167142858Y-115931905D01*
X167142858Y-115741429D01*
X167095239Y-115646190D01*
X167047620Y-115598571D01*
X166952382Y-115550952D01*
X180952381Y-69361905D02*
X181761905Y-69361905D01*
X181857143Y-69314286D01*
X181904762Y-69266667D01*
X181952381Y-69171429D01*
X181952381Y-68980952D01*
X181904762Y-68885714D01*
X181857143Y-68838095D01*
X181761905Y-68790476D01*
X180952381Y-68790476D01*
X180952381Y-68409524D02*
X180952381Y-67790476D01*
X181333333Y-68123810D01*
X181333333Y-67980952D01*
X181380952Y-67885714D01*
X181428571Y-67838095D01*
X181523810Y-67790476D01*
X181761905Y-67790476D01*
X181857143Y-67838095D01*
X181904762Y-67885714D01*
X181952381Y-67980952D01*
X181952381Y-68266667D01*
X181904762Y-68361905D01*
X181857143Y-68409524D01*
X181152381Y-91361905D02*
X181961905Y-91361905D01*
X182057143Y-91314286D01*
X182104762Y-91266667D01*
X182152381Y-91171429D01*
X182152381Y-90980952D01*
X182104762Y-90885714D01*
X182057143Y-90838095D01*
X181961905Y-90790476D01*
X181152381Y-90790476D01*
X181152381Y-90409524D02*
X181152381Y-89742857D01*
X182152381Y-90171429D01*
X181152381Y-116761905D02*
X181961905Y-116761905D01*
X182057143Y-116714286D01*
X182104762Y-116666667D01*
X182152381Y-116571429D01*
X182152381Y-116380952D01*
X182104762Y-116285714D01*
X182057143Y-116238095D01*
X181961905Y-116190476D01*
X181152381Y-116190476D01*
X181580952Y-115571429D02*
X181533333Y-115666667D01*
X181485714Y-115714286D01*
X181390476Y-115761905D01*
X181342857Y-115761905D01*
X181247619Y-115714286D01*
X181200000Y-115666667D01*
X181152381Y-115571429D01*
X181152381Y-115380952D01*
X181200000Y-115285714D01*
X181247619Y-115238095D01*
X181342857Y-115190476D01*
X181390476Y-115190476D01*
X181485714Y-115238095D01*
X181533333Y-115285714D01*
X181580952Y-115380952D01*
X181580952Y-115571429D01*
X181628571Y-115666667D01*
X181676190Y-115714286D01*
X181771429Y-115761905D01*
X181961905Y-115761905D01*
X182057143Y-115714286D01*
X182104762Y-115666667D01*
X182152381Y-115571429D01*
X182152381Y-115380952D01*
X182104762Y-115285714D01*
X182057143Y-115238095D01*
X181961905Y-115190476D01*
X181771429Y-115190476D01*
X181676190Y-115238095D01*
X181628571Y-115285714D01*
X181580952Y-115380952D01*
X181152381Y-125361905D02*
X181961905Y-125361905D01*
X182057143Y-125314286D01*
X182104762Y-125266667D01*
X182152381Y-125171429D01*
X182152381Y-124980952D01*
X182104762Y-124885714D01*
X182057143Y-124838095D01*
X181961905Y-124790476D01*
X181152381Y-124790476D01*
X182152381Y-124266667D02*
X182152381Y-124076191D01*
X182104762Y-123980952D01*
X182057143Y-123933333D01*
X181914286Y-123838095D01*
X181723810Y-123790476D01*
X181342857Y-123790476D01*
X181247619Y-123838095D01*
X181200000Y-123885714D01*
X181152381Y-123980952D01*
X181152381Y-124171429D01*
X181200000Y-124266667D01*
X181247619Y-124314286D01*
X181342857Y-124361905D01*
X181580952Y-124361905D01*
X181676190Y-124314286D01*
X181723810Y-124266667D01*
X181771429Y-124171429D01*
X181771429Y-123980952D01*
X181723810Y-123885714D01*
X181676190Y-123838095D01*
X181580952Y-123790476D01*
X180852381Y-151738095D02*
X181661905Y-151738095D01*
X181757143Y-151690476D01*
X181804762Y-151642857D01*
X181852381Y-151547619D01*
X181852381Y-151357142D01*
X181804762Y-151261904D01*
X181757143Y-151214285D01*
X181661905Y-151166666D01*
X180852381Y-151166666D01*
X181852381Y-150166666D02*
X181852381Y-150738095D01*
X181852381Y-150452381D02*
X180852381Y-150452381D01*
X180995238Y-150547619D01*
X181090476Y-150642857D01*
X181138095Y-150738095D01*
X180852381Y-149547619D02*
X180852381Y-149452380D01*
X180900000Y-149357142D01*
X180947619Y-149309523D01*
X181042857Y-149261904D01*
X181233333Y-149214285D01*
X181471429Y-149214285D01*
X181661905Y-149261904D01*
X181757143Y-149309523D01*
X181804762Y-149357142D01*
X181852381Y-149452380D01*
X181852381Y-149547619D01*
X181804762Y-149642857D01*
X181757143Y-149690476D01*
X181661905Y-149738095D01*
X181471429Y-149785714D01*
X181233333Y-149785714D01*
X181042857Y-149738095D01*
X180947619Y-149690476D01*
X180900000Y-149642857D01*
X180852381Y-149547619D01*
X121357143Y-124107143D02*
X121309524Y-124154762D01*
X121166667Y-124202381D01*
X121071429Y-124202381D01*
X120928571Y-124154762D01*
X120833333Y-124059524D01*
X120785714Y-123964286D01*
X120738095Y-123773810D01*
X120738095Y-123630952D01*
X120785714Y-123440476D01*
X120833333Y-123345238D01*
X120928571Y-123250000D01*
X121071429Y-123202381D01*
X121166667Y-123202381D01*
X121309524Y-123250000D01*
X121357143Y-123297619D01*
X122309524Y-124202381D02*
X121738095Y-124202381D01*
X122023809Y-124202381D02*
X122023809Y-123202381D01*
X121928571Y-123345238D01*
X121833333Y-123440476D01*
X121738095Y-123488095D01*
X123214286Y-123202381D02*
X122738095Y-123202381D01*
X122690476Y-123678571D01*
X122738095Y-123630952D01*
X122833333Y-123583333D01*
X123071429Y-123583333D01*
X123166667Y-123630952D01*
X123214286Y-123678571D01*
X123261905Y-123773810D01*
X123261905Y-124011905D01*
X123214286Y-124107143D01*
X123166667Y-124154762D01*
X123071429Y-124202381D01*
X122833333Y-124202381D01*
X122738095Y-124154762D01*
X122690476Y-124107143D01*
X131957143Y-118357143D02*
X131909524Y-118404762D01*
X131766667Y-118452381D01*
X131671429Y-118452381D01*
X131528571Y-118404762D01*
X131433333Y-118309524D01*
X131385714Y-118214286D01*
X131338095Y-118023810D01*
X131338095Y-117880952D01*
X131385714Y-117690476D01*
X131433333Y-117595238D01*
X131528571Y-117500000D01*
X131671429Y-117452381D01*
X131766667Y-117452381D01*
X131909524Y-117500000D01*
X131957143Y-117547619D01*
X132909524Y-118452381D02*
X132338095Y-118452381D01*
X132623809Y-118452381D02*
X132623809Y-117452381D01*
X132528571Y-117595238D01*
X132433333Y-117690476D01*
X132338095Y-117738095D01*
X133242857Y-117452381D02*
X133909524Y-117452381D01*
X133480952Y-118452381D01*
X135002381Y-91166666D02*
X134526190Y-91500000D01*
X135002381Y-91738095D02*
X134002381Y-91738095D01*
X134002381Y-91357142D01*
X134050000Y-91261904D01*
X134097619Y-91214285D01*
X134192857Y-91166666D01*
X134335714Y-91166666D01*
X134430952Y-91214285D01*
X134478571Y-91261904D01*
X134526190Y-91357142D01*
X134526190Y-91738095D01*
X134002381Y-90833333D02*
X134002381Y-90166666D01*
X135002381Y-90595238D01*
X135002381Y-120642857D02*
X134526190Y-120976191D01*
X135002381Y-121214286D02*
X134002381Y-121214286D01*
X134002381Y-120833333D01*
X134050000Y-120738095D01*
X134097619Y-120690476D01*
X134192857Y-120642857D01*
X134335714Y-120642857D01*
X134430952Y-120690476D01*
X134478571Y-120738095D01*
X134526190Y-120833333D01*
X134526190Y-121214286D01*
X135002381Y-119690476D02*
X135002381Y-120261905D01*
X135002381Y-119976191D02*
X134002381Y-119976191D01*
X134145238Y-120071429D01*
X134240476Y-120166667D01*
X134288095Y-120261905D01*
X134335714Y-118833333D02*
X135002381Y-118833333D01*
X133954762Y-119071429D02*
X134669048Y-119309524D01*
X134669048Y-118690476D01*
X161752381Y-64059523D02*
X162466667Y-64059523D01*
X162609524Y-64107143D01*
X162704762Y-64202381D01*
X162752381Y-64345238D01*
X162752381Y-64440476D01*
X162752381Y-63059523D02*
X162752381Y-63630952D01*
X162752381Y-63345238D02*
X161752381Y-63345238D01*
X161895238Y-63440476D01*
X161990476Y-63535714D01*
X162038095Y-63630952D01*
X162752381Y-62583333D02*
X162752381Y-62392857D01*
X162704762Y-62297618D01*
X162657143Y-62249999D01*
X162514286Y-62154761D01*
X162323810Y-62107142D01*
X161942857Y-62107142D01*
X161847619Y-62154761D01*
X161800000Y-62202380D01*
X161752381Y-62297618D01*
X161752381Y-62488095D01*
X161800000Y-62583333D01*
X161847619Y-62630952D01*
X161942857Y-62678571D01*
X162180952Y-62678571D01*
X162276190Y-62630952D01*
X162323810Y-62583333D01*
X162371429Y-62488095D01*
X162371429Y-62297618D01*
X162323810Y-62202380D01*
X162276190Y-62154761D01*
X162180952Y-62107142D01*
X171152381Y-64059523D02*
X171866667Y-64059523D01*
X172009524Y-64107143D01*
X172104762Y-64202381D01*
X172152381Y-64345238D01*
X172152381Y-64440476D01*
X171247619Y-63630952D02*
X171200000Y-63583333D01*
X171152381Y-63488095D01*
X171152381Y-63249999D01*
X171200000Y-63154761D01*
X171247619Y-63107142D01*
X171342857Y-63059523D01*
X171438095Y-63059523D01*
X171580952Y-63107142D01*
X172152381Y-63678571D01*
X172152381Y-63059523D01*
X171152381Y-62440476D02*
X171152381Y-62345237D01*
X171200000Y-62249999D01*
X171247619Y-62202380D01*
X171342857Y-62154761D01*
X171533333Y-62107142D01*
X171771429Y-62107142D01*
X171961905Y-62154761D01*
X172057143Y-62202380D01*
X172104762Y-62249999D01*
X172152381Y-62345237D01*
X172152381Y-62440476D01*
X172104762Y-62535714D01*
X172057143Y-62583333D01*
X171961905Y-62630952D01*
X171771429Y-62678571D01*
X171533333Y-62678571D01*
X171342857Y-62630952D01*
X171247619Y-62583333D01*
X171200000Y-62535714D01*
X171152381Y-62440476D01*
X166904762Y-61047619D02*
X166809524Y-61000000D01*
X166714286Y-60904762D01*
X166571429Y-60761905D01*
X166476190Y-60714286D01*
X166380952Y-60714286D01*
X166428571Y-60952381D02*
X166333333Y-60904762D01*
X166238095Y-60809524D01*
X166190476Y-60619048D01*
X166190476Y-60285714D01*
X166238095Y-60095238D01*
X166333333Y-60000000D01*
X166428571Y-59952381D01*
X166619048Y-59952381D01*
X166714286Y-60000000D01*
X166809524Y-60095238D01*
X166857143Y-60285714D01*
X166857143Y-60619048D01*
X166809524Y-60809524D01*
X166714286Y-60904762D01*
X166619048Y-60952381D01*
X166428571Y-60952381D01*
X167809524Y-60952381D02*
X167238095Y-60952381D01*
X167523809Y-60952381D02*
X167523809Y-59952381D01*
X167428571Y-60095238D01*
X167333333Y-60190476D01*
X167238095Y-60238095D01*
M02*
