%TF.GenerationSoftware,KiCad,Pcbnew,4.0.7-e2-6376~58~ubuntu16.04.1*%
%TF.CreationDate,2017-09-12T10:21:48+02:00*%
%TF.ProjectId,flt06,666C7430362E6B696361645F70636200,1*%
%TF.FileFunction,Copper,L1,Top,Signal*%
%FSLAX46Y46*%
G04 Gerber Fmt 4.6, Leading zero omitted, Abs format (unit mm)*
G04 Created by KiCad (PCBNEW 4.0.7-e2-6376~58~ubuntu16.04.1) date Tue Sep 12 10:21:48 2017*
%MOMM*%
%LPD*%
G01*
G04 APERTURE LIST*
%ADD10C,0.100000*%
%ADD11C,0.600000*%
%ADD12R,1.700000X1.700000*%
%ADD13C,5.500000*%
%ADD14R,1.000000X2.500000*%
%ADD15R,0.750000X0.800000*%
%ADD16R,0.800000X0.750000*%
%ADD17R,2.500000X1.800000*%
%ADD18R,1.800000X2.500000*%
%ADD19C,2.400000*%
%ADD20R,2.400000X2.400000*%
%ADD21O,2.400000X2.400000*%
%ADD22R,0.900000X0.500000*%
%ADD23R,1.700000X0.900000*%
%ADD24R,0.900000X1.700000*%
%ADD25R,1.100000X0.400000*%
%ADD26R,0.600000X1.550000*%
%ADD27R,0.650000X1.060000*%
%ADD28R,1.800000X1.800000*%
%ADD29O,1.800000X1.800000*%
%ADD30R,0.900000X0.800000*%
%ADD31C,0.500000*%
%ADD32C,0.250000*%
%ADD33C,1.000000*%
%ADD34C,0.254000*%
G04 APERTURE END LIST*
D10*
D11*
X134200000Y-134400000D03*
X168700000Y-90400000D03*
X151500000Y-89000000D03*
X153200000Y-125000000D03*
D12*
X122000000Y-102000000D03*
D13*
X161000000Y-84000000D03*
X161000000Y-146000000D03*
X109000000Y-84000000D03*
X109000000Y-146000000D03*
D14*
X132500000Y-67000000D03*
X129500000Y-67000000D03*
X129500000Y-71000000D03*
X132500000Y-71000000D03*
D15*
X130000000Y-103250000D03*
X130000000Y-104750000D03*
D14*
X120500000Y-97000000D03*
X123500000Y-97000000D03*
D16*
X131750000Y-89900000D03*
X133250000Y-89900000D03*
X145850000Y-90100000D03*
X147350000Y-90100000D03*
X157550000Y-92000000D03*
X156050000Y-92000000D03*
X128850000Y-98000000D03*
X127350000Y-98000000D03*
X149950000Y-102000000D03*
X148450000Y-102000000D03*
X157050000Y-100000000D03*
X158550000Y-100000000D03*
D15*
X139000000Y-99750000D03*
X139000000Y-98250000D03*
X130000000Y-131250000D03*
X130000000Y-132750000D03*
X139000000Y-128750000D03*
X139000000Y-127250000D03*
D16*
X150150000Y-130500000D03*
X148650000Y-130500000D03*
X128850000Y-126500000D03*
X127350000Y-126500000D03*
X146150000Y-118900000D03*
X147650000Y-118900000D03*
D17*
X135000000Y-62000000D03*
X131000000Y-62000000D03*
X131000000Y-76000000D03*
X135000000Y-76000000D03*
D18*
X137000000Y-71000000D03*
X137000000Y-67000000D03*
X117000000Y-93000000D03*
X117000000Y-97000000D03*
X117000000Y-101000000D03*
X117000000Y-105000000D03*
X117000000Y-122000000D03*
X117000000Y-126000000D03*
X117000000Y-130000000D03*
X117000000Y-134000000D03*
D19*
X110000000Y-74500000D03*
X110000000Y-78000000D03*
D20*
X110000000Y-71000000D03*
D19*
X110000000Y-63500000D03*
D20*
X110000000Y-60000000D03*
D19*
X110000000Y-100500000D03*
D20*
X110000000Y-97000000D03*
D19*
X176000000Y-84500000D03*
D20*
X176000000Y-88000000D03*
D19*
X110000000Y-129500000D03*
D20*
X110000000Y-126000000D03*
D19*
X176000000Y-118500000D03*
D20*
X176000000Y-122000000D03*
D12*
X122000000Y-91000000D03*
X128000000Y-89000000D03*
X137000000Y-104000000D03*
X165900000Y-79600000D03*
X165900000Y-88000000D03*
X122000000Y-120000000D03*
X122000000Y-131000000D03*
X128000000Y-118000000D03*
X137500000Y-132500000D03*
X166000000Y-123000000D03*
D19*
X119000000Y-62000000D03*
D21*
X124080000Y-62000000D03*
D19*
X119000000Y-69000000D03*
D21*
X124080000Y-69000000D03*
D19*
X119000000Y-76000000D03*
D21*
X124080000Y-76000000D03*
D22*
X133000000Y-104750000D03*
X133000000Y-103250000D03*
X133000000Y-98250000D03*
X133000000Y-99750000D03*
X136000000Y-99750000D03*
X136000000Y-98250000D03*
X125100000Y-100250000D03*
X125100000Y-101750000D03*
D23*
X168500000Y-82350000D03*
X168500000Y-85250000D03*
D22*
X139000000Y-90250000D03*
X139000000Y-91750000D03*
X139000000Y-94250000D03*
X139000000Y-95750000D03*
X133500000Y-132750000D03*
X133500000Y-131250000D03*
X133000000Y-127250000D03*
X133000000Y-128750000D03*
X136000000Y-128750000D03*
X136000000Y-127250000D03*
X125600000Y-129150000D03*
X125600000Y-130650000D03*
X139000000Y-119250000D03*
X139000000Y-120750000D03*
X139000000Y-123250000D03*
X139000000Y-124750000D03*
D24*
X172450000Y-101000000D03*
X169550000Y-101000000D03*
X172450000Y-113000000D03*
X169550000Y-113000000D03*
X172450000Y-135000000D03*
X169550000Y-135000000D03*
X172450000Y-147000000D03*
X169550000Y-147000000D03*
D25*
X128850000Y-93025000D03*
X128850000Y-93675000D03*
X128850000Y-94325000D03*
X128850000Y-94975000D03*
X133150000Y-94975000D03*
X133150000Y-94325000D03*
X133150000Y-93675000D03*
X133150000Y-93025000D03*
D26*
X146095000Y-98700000D03*
X147365000Y-98700000D03*
X148635000Y-98700000D03*
X149905000Y-98700000D03*
X149905000Y-93300000D03*
X148635000Y-93300000D03*
X147365000Y-93300000D03*
X146095000Y-93300000D03*
D27*
X156050000Y-97100000D03*
X157000000Y-97100000D03*
X157950000Y-97100000D03*
X157950000Y-94900000D03*
X156050000Y-94900000D03*
D25*
X128850000Y-122025000D03*
X128850000Y-122675000D03*
X128850000Y-123325000D03*
X128850000Y-123975000D03*
X133150000Y-123975000D03*
X133150000Y-123325000D03*
X133150000Y-122675000D03*
X133150000Y-122025000D03*
D26*
X149905000Y-122300000D03*
X148635000Y-122300000D03*
X147365000Y-122300000D03*
X146095000Y-122300000D03*
X146095000Y-127700000D03*
X147365000Y-127700000D03*
X148635000Y-127700000D03*
X149905000Y-127700000D03*
D12*
X166000000Y-118000000D03*
D28*
X176000000Y-72000000D03*
D29*
X179700000Y-73700000D03*
X176000000Y-75400000D03*
X179700000Y-77100000D03*
X176000000Y-78800000D03*
D28*
X176000000Y-94000000D03*
D29*
X179700000Y-95700000D03*
X176000000Y-97400000D03*
X179700000Y-99100000D03*
X176000000Y-100800000D03*
D28*
X176000000Y-106000000D03*
D29*
X179700000Y-107700000D03*
X176000000Y-109400000D03*
X179700000Y-111100000D03*
X176000000Y-112800000D03*
D28*
X176000000Y-128000000D03*
D29*
X179700000Y-129700000D03*
X176000000Y-131400000D03*
X179700000Y-133100000D03*
X176000000Y-134800000D03*
D28*
X176000000Y-140000000D03*
D29*
X179700000Y-141700000D03*
X176000000Y-143400000D03*
X179700000Y-145100000D03*
X176000000Y-146800000D03*
D14*
X120500000Y-126000000D03*
X123500000Y-126000000D03*
D16*
X131750000Y-119500000D03*
X133250000Y-119500000D03*
D22*
X136000000Y-91750000D03*
X136000000Y-90250000D03*
X136000000Y-120750000D03*
X136000000Y-119250000D03*
D19*
X158000000Y-65000000D03*
D20*
X158000000Y-61500000D03*
D19*
X176000000Y-61500000D03*
D20*
X176000000Y-65000000D03*
D30*
X166000000Y-62050000D03*
X166000000Y-63950000D03*
X168000000Y-63000000D03*
D11*
X144500000Y-98700000D03*
X146700000Y-102000000D03*
X150100000Y-131900000D03*
X149700000Y-118900000D03*
X139000000Y-130200000D03*
X137400000Y-124800000D03*
X130300000Y-119500000D03*
X125600000Y-132100000D03*
X125800000Y-126500000D03*
X127500000Y-71000000D03*
X127500000Y-67000000D03*
X161500000Y-97400000D03*
X157900000Y-90200000D03*
X144200000Y-90100000D03*
X139000000Y-101300000D03*
X137300000Y-95800000D03*
X131700000Y-88300000D03*
X125100000Y-103100000D03*
X125800000Y-98000000D03*
X178600000Y-78800000D03*
X151900000Y-96000000D03*
X154300000Y-96000000D03*
D31*
X117000000Y-122000000D02*
X117000000Y-114900000D01*
X117000000Y-114900000D02*
X117000000Y-115000000D01*
X117000000Y-115000000D02*
X117000000Y-114900000D01*
X133250000Y-119500000D02*
X133250000Y-115450000D01*
X132700000Y-114900000D02*
X117000000Y-114900000D01*
X117000000Y-114900000D02*
X105100000Y-114900000D01*
X133250000Y-115450000D02*
X132700000Y-114900000D01*
X117000000Y-93000000D02*
X105100000Y-93000000D01*
X105100000Y-93000000D02*
X105100000Y-93100000D01*
X110000000Y-60000000D02*
X105100000Y-64900000D01*
X105100000Y-64900000D02*
X105100000Y-93100000D01*
X105100000Y-139300000D02*
X106000000Y-140200000D01*
X105100000Y-114900000D02*
X105100000Y-139300000D01*
X148650000Y-130500000D02*
X148650000Y-139250000D01*
X148650000Y-139250000D02*
X147700000Y-140200000D01*
X106000000Y-140200000D02*
X147700000Y-140200000D01*
X105100000Y-93100000D02*
X105100000Y-114900000D01*
X148635000Y-127700000D02*
X148650000Y-127715000D01*
X148650000Y-127715000D02*
X148650000Y-130500000D01*
X147365000Y-86800000D02*
X147365000Y-85700000D01*
X147400000Y-85800000D02*
X147400000Y-85700000D01*
X147400000Y-85735000D02*
X147400000Y-85800000D01*
X147365000Y-85700000D02*
X147400000Y-85735000D01*
X156050000Y-92000000D02*
X156050000Y-88850000D01*
X156050000Y-88850000D02*
X152900000Y-85700000D01*
X152900000Y-85700000D02*
X147400000Y-85700000D01*
X147400000Y-85700000D02*
X146600000Y-85700000D01*
X156050000Y-94900000D02*
X156050000Y-92000000D01*
X133250000Y-89900000D02*
X133250000Y-92750000D01*
D32*
X133250000Y-92750000D02*
X133150000Y-92850000D01*
X133150000Y-92850000D02*
X133150000Y-93025000D01*
D31*
X133200000Y-85700000D02*
X133250000Y-85750000D01*
X133250000Y-85750000D02*
X133250000Y-89900000D01*
X147365000Y-93300000D02*
X147365000Y-90115000D01*
X147365000Y-90115000D02*
X147350000Y-90100000D01*
X147365000Y-93300000D02*
X147365000Y-86800000D01*
X147365000Y-86800000D02*
X147365000Y-86465000D01*
X117000000Y-86400000D02*
X117000000Y-93000000D01*
X117700000Y-85700000D02*
X117000000Y-86400000D01*
X146600000Y-85700000D02*
X133200000Y-85700000D01*
X133200000Y-85700000D02*
X117700000Y-85700000D01*
D32*
X156050000Y-92200000D02*
X156250000Y-92000000D01*
D33*
X137000000Y-67000000D02*
X137000000Y-66000000D01*
X137000000Y-66000000D02*
X135000000Y-64000000D01*
X135000000Y-64000000D02*
X135000000Y-62000000D01*
X179700000Y-73700000D02*
X179700000Y-71300000D01*
X139000000Y-67000000D02*
X137000000Y-67000000D01*
X141400000Y-69400000D02*
X139000000Y-67000000D01*
X177800000Y-69400000D02*
X141400000Y-69400000D01*
X179700000Y-71300000D02*
X177800000Y-69400000D01*
X137000000Y-67000000D02*
X132500000Y-67000000D01*
X135000000Y-62000000D02*
X132200000Y-59200000D01*
X132200000Y-59200000D02*
X110800000Y-59200000D01*
X110800000Y-59200000D02*
X110000000Y-60000000D01*
D32*
X148750000Y-130500000D02*
X148635000Y-130385000D01*
X133250000Y-119500000D02*
X133250000Y-121925000D01*
X133250000Y-121925000D02*
X133150000Y-122025000D01*
X146095000Y-98700000D02*
X144500000Y-98700000D01*
X148450000Y-102000000D02*
X146700000Y-102000000D01*
X150150000Y-130500000D02*
X150100000Y-130550000D01*
X150100000Y-130550000D02*
X150100000Y-131900000D01*
X147650000Y-118900000D02*
X149700000Y-118900000D01*
X139000000Y-128750000D02*
X139000000Y-130200000D01*
X139000000Y-124750000D02*
X137450000Y-124750000D01*
X137450000Y-124750000D02*
X137400000Y-124800000D01*
X131750000Y-119500000D02*
X130300000Y-119500000D01*
X125600000Y-130650000D02*
X125600000Y-132100000D01*
X127350000Y-126500000D02*
X125800000Y-126500000D01*
X129500000Y-71000000D02*
X127500000Y-71000000D01*
X129500000Y-67000000D02*
X127500000Y-67000000D01*
X158550000Y-100000000D02*
X159500000Y-100000000D01*
X161500000Y-98000000D02*
X161500000Y-97400000D01*
X159500000Y-100000000D02*
X161500000Y-98000000D01*
X157550000Y-92000000D02*
X157550000Y-90550000D01*
X157550000Y-90550000D02*
X157900000Y-90200000D01*
X145850000Y-90100000D02*
X144200000Y-90100000D01*
X139000000Y-99750000D02*
X139000000Y-101300000D01*
X139000000Y-95750000D02*
X137350000Y-95750000D01*
X137350000Y-95750000D02*
X137300000Y-95800000D01*
X131750000Y-89900000D02*
X131750000Y-88350000D01*
X131750000Y-88350000D02*
X131700000Y-88300000D01*
X125100000Y-101750000D02*
X125100000Y-103100000D01*
X127350000Y-98000000D02*
X125800000Y-98000000D01*
D31*
X155950000Y-85350000D02*
X155950000Y-76000000D01*
X159900000Y-89300000D02*
X155950000Y-85350000D01*
X159900000Y-97900000D02*
X159900000Y-89300000D01*
X155950000Y-76000000D02*
X156000000Y-76000000D01*
D33*
X140900000Y-76000000D02*
X156000000Y-76000000D01*
X156000000Y-76000000D02*
X175400000Y-76000000D01*
X175400000Y-76000000D02*
X176000000Y-75400000D01*
D31*
X159200000Y-98600000D02*
X157000000Y-98600000D01*
X159800000Y-98000000D02*
X159900000Y-97900000D01*
X159900000Y-97900000D02*
X159200000Y-98600000D01*
X146150000Y-118900000D02*
X146150000Y-117550000D01*
X146700000Y-117000000D02*
X151500000Y-117000000D01*
X146150000Y-117550000D02*
X146700000Y-117000000D01*
X128850000Y-126500000D02*
X128850000Y-128250000D01*
X127400000Y-129700000D02*
X127400000Y-136200000D01*
X128850000Y-128250000D02*
X127400000Y-129700000D01*
X128850000Y-126500000D02*
X128850000Y-124250000D01*
D32*
X128850000Y-124250000D02*
X128850000Y-123975000D01*
D31*
X151500000Y-107400000D02*
X151500000Y-117000000D01*
X151500000Y-117000000D02*
X151500000Y-123000000D01*
X142700000Y-136200000D02*
X127400000Y-136200000D01*
X143600000Y-135300000D02*
X142700000Y-136200000D01*
X143600000Y-127700000D02*
X143600000Y-135300000D01*
X146600000Y-124700000D02*
X143600000Y-127700000D01*
X149800000Y-124700000D02*
X146600000Y-124700000D01*
X151500000Y-123000000D02*
X149800000Y-124700000D01*
X119200000Y-136200000D02*
X117000000Y-134000000D01*
X127400000Y-136200000D02*
X119200000Y-136200000D01*
X146095000Y-122300000D02*
X146095000Y-118955000D01*
X146095000Y-118955000D02*
X146150000Y-118900000D01*
X149900000Y-107400000D02*
X149900000Y-102050000D01*
X149900000Y-102050000D02*
X149950000Y-102000000D01*
X149905000Y-98700000D02*
X149905000Y-101955000D01*
X149905000Y-101955000D02*
X149950000Y-102000000D01*
X128850000Y-98000000D02*
X128850000Y-95250000D01*
D32*
X128850000Y-95250000D02*
X128850000Y-94975000D01*
D31*
X127000000Y-107400000D02*
X127000000Y-101400000D01*
X128850000Y-99550000D02*
X128850000Y-98000000D01*
X127000000Y-101400000D02*
X128850000Y-99550000D01*
X176000000Y-97400000D02*
X169000000Y-97400000D01*
X159000000Y-107400000D02*
X151500000Y-107400000D01*
X151500000Y-107400000D02*
X149900000Y-107400000D01*
X149900000Y-107400000D02*
X146100000Y-107400000D01*
X146100000Y-107400000D02*
X127000000Y-107400000D01*
X169000000Y-97400000D02*
X159000000Y-107400000D01*
X119400000Y-107400000D02*
X117000000Y-105000000D01*
X127000000Y-107400000D02*
X119400000Y-107400000D01*
X157000000Y-97100000D02*
X157000000Y-98600000D01*
X157000000Y-98600000D02*
X157000000Y-99950000D01*
X157000000Y-99950000D02*
X157050000Y-100000000D01*
D32*
X157000000Y-99750000D02*
X157250000Y-100000000D01*
X149905000Y-101845000D02*
X149750000Y-102000000D01*
D33*
X141100000Y-76000000D02*
X140900000Y-76000000D01*
X140900000Y-76000000D02*
X135000000Y-76000000D01*
X137000000Y-71000000D02*
X137000000Y-71600000D01*
X137000000Y-71600000D02*
X135000000Y-73600000D01*
X135000000Y-73600000D02*
X135000000Y-76000000D01*
X137000000Y-71000000D02*
X132500000Y-71000000D01*
D32*
X133000000Y-99750000D02*
X136000000Y-99750000D01*
X130000000Y-103250000D02*
X130000000Y-101800000D01*
X132050000Y-99750000D02*
X133000000Y-99750000D01*
X130000000Y-101800000D02*
X132050000Y-99750000D01*
X141300000Y-95200000D02*
X149100000Y-95200000D01*
X149905000Y-94395000D02*
X149905000Y-93300000D01*
X149100000Y-95200000D02*
X149905000Y-94395000D01*
X137000000Y-104000000D02*
X139600000Y-104000000D01*
X141300000Y-92550000D02*
X139000000Y-90250000D01*
X141300000Y-102300000D02*
X141300000Y-95200000D01*
X141300000Y-95200000D02*
X141300000Y-92550000D01*
X139600000Y-104000000D02*
X141300000Y-102300000D01*
X136000000Y-90250000D02*
X139000000Y-90250000D01*
X133000000Y-103250000D02*
X136250000Y-103250000D01*
X136250000Y-103250000D02*
X137000000Y-104000000D01*
X130000000Y-104750000D02*
X131500000Y-103250000D01*
X131500000Y-103250000D02*
X133000000Y-103250000D01*
X120500000Y-97000000D02*
X117000000Y-97000000D01*
X117000000Y-97000000D02*
X117000000Y-101000000D01*
X120500000Y-97000000D02*
X120500000Y-92500000D01*
X120500000Y-92500000D02*
X122000000Y-91000000D01*
X110000000Y-97000000D02*
X117000000Y-97000000D01*
X125100000Y-100250000D02*
X123500000Y-100250000D01*
X123500000Y-100250000D02*
X123500000Y-100300000D01*
X128850000Y-94325000D02*
X124575000Y-94325000D01*
X123500000Y-95400000D02*
X123500000Y-97000000D01*
X124575000Y-94325000D02*
X123500000Y-95400000D01*
X123500000Y-97000000D02*
X123500000Y-100300000D01*
X123500000Y-100300000D02*
X123500000Y-100500000D01*
X123500000Y-100500000D02*
X122000000Y-102000000D01*
X123500000Y-96800000D02*
X123400000Y-96900000D01*
X136000000Y-127250000D02*
X139000000Y-127250000D01*
X136000000Y-127250000D02*
X136000000Y-126000000D01*
X133975000Y-123975000D02*
X133150000Y-123975000D01*
X136000000Y-126000000D02*
X133975000Y-123975000D01*
X117000000Y-126000000D02*
X117000000Y-130000000D01*
X117000000Y-126000000D02*
X120500000Y-126000000D01*
X122000000Y-120000000D02*
X120500000Y-121500000D01*
X120500000Y-121500000D02*
X120500000Y-126000000D01*
X110000000Y-126000000D02*
X117000000Y-126000000D01*
D33*
X124080000Y-62000000D02*
X131000000Y-62000000D01*
X124080000Y-76000000D02*
X131000000Y-76000000D01*
X110000000Y-74500000D02*
X113500000Y-74500000D01*
X113500000Y-74500000D02*
X119000000Y-69000000D01*
X110000000Y-78000000D02*
X117000000Y-78000000D01*
X117000000Y-78000000D02*
X119000000Y-76000000D01*
X110000000Y-71000000D02*
X119000000Y-62000000D01*
X171800000Y-88000000D02*
X169500000Y-88000000D01*
X176000000Y-88000000D02*
X171800000Y-88000000D01*
X168500000Y-87000000D02*
X168500000Y-85250000D01*
X168500000Y-87000000D02*
X169500000Y-88000000D01*
D32*
X165900000Y-95000000D02*
X165900000Y-92700000D01*
X165900000Y-92700000D02*
X165900000Y-88000000D01*
X156050000Y-97100000D02*
X156050000Y-100750000D01*
X159500000Y-101400000D02*
X165900000Y-95000000D01*
X156700000Y-101400000D02*
X159500000Y-101400000D01*
X156050000Y-100750000D02*
X156700000Y-101400000D01*
X168500000Y-85250000D02*
X166450000Y-85250000D01*
X166450000Y-85250000D02*
X165900000Y-85800000D01*
X165900000Y-85800000D02*
X165900000Y-88000000D01*
X146095000Y-127700000D02*
X146095000Y-126705000D01*
X152900000Y-123000000D02*
X166000000Y-123000000D01*
X150200000Y-125700000D02*
X152900000Y-123000000D01*
X147100000Y-125700000D02*
X150200000Y-125700000D01*
X146095000Y-126705000D02*
X147100000Y-125700000D01*
X146095000Y-127305000D02*
X146095000Y-127700000D01*
X166000000Y-123000000D02*
X169550000Y-123000000D01*
X169550000Y-123000000D02*
X169600000Y-123000000D01*
X169600000Y-123000000D02*
X169550000Y-123000000D01*
D33*
X176000000Y-122000000D02*
X169550000Y-122000000D01*
X169550000Y-122000000D02*
X169550000Y-122200000D01*
X169550000Y-113000000D02*
X169550000Y-122200000D01*
X169550000Y-122200000D02*
X169550000Y-123000000D01*
X169550000Y-123000000D02*
X169550000Y-135000000D01*
X169550000Y-101000000D02*
X169550000Y-113000000D01*
X169550000Y-147000000D02*
X169550000Y-135000000D01*
D32*
X133000000Y-98250000D02*
X131200000Y-98250000D01*
X128850000Y-93675000D02*
X130375000Y-93675000D01*
X133000000Y-105400000D02*
X133000000Y-104750000D01*
X132600000Y-105800000D02*
X133000000Y-105400000D01*
X128900000Y-105800000D02*
X132600000Y-105800000D01*
X128400000Y-105300000D02*
X128900000Y-105800000D01*
X128400000Y-101800000D02*
X128400000Y-105300000D01*
X131200000Y-99000000D02*
X128400000Y-101800000D01*
X131200000Y-94500000D02*
X131200000Y-98250000D01*
X131200000Y-98250000D02*
X131200000Y-99000000D01*
X130375000Y-93675000D02*
X131200000Y-94500000D01*
X128000000Y-89000000D02*
X128850000Y-89850000D01*
X128850000Y-89850000D02*
X128850000Y-93025000D01*
X128850000Y-93675000D02*
X128850000Y-93025000D01*
X153400000Y-99900000D02*
X152700000Y-99200000D01*
X150100000Y-95100000D02*
X147365000Y-97835000D01*
X147365000Y-98700000D02*
X147365000Y-97835000D01*
X178600000Y-89600000D02*
X177900000Y-90300000D01*
X178600000Y-78800000D02*
X178600000Y-89500000D01*
X178600000Y-89500000D02*
X178600000Y-89600000D01*
X160100000Y-102500000D02*
X156000000Y-102500000D01*
X172300000Y-90300000D02*
X160100000Y-102500000D01*
X177900000Y-90300000D02*
X172300000Y-90300000D01*
X156000000Y-102500000D02*
X153400000Y-99900000D01*
X150100000Y-95100000D02*
X150600000Y-94600000D01*
X152100000Y-94600000D02*
X150600000Y-94600000D01*
X152700000Y-95200000D02*
X152100000Y-94600000D01*
X152700000Y-99200000D02*
X152700000Y-95200000D01*
D33*
X171800000Y-78800000D02*
X169500000Y-78800000D01*
X169500000Y-78800000D02*
X168500000Y-79800000D01*
X168500000Y-82350000D02*
X168500000Y-79800000D01*
X171800000Y-78800000D02*
X176000000Y-78800000D01*
D32*
X168500000Y-82350000D02*
X166450000Y-82350000D01*
X165900000Y-81800000D02*
X165900000Y-79600000D01*
X166450000Y-82350000D02*
X165900000Y-81800000D01*
X133000000Y-127250000D02*
X131650000Y-127250000D01*
X131650000Y-127250000D02*
X131500000Y-127400000D01*
X128850000Y-122675000D02*
X130675000Y-122675000D01*
X132250000Y-134000000D02*
X133500000Y-132750000D01*
X129300000Y-134000000D02*
X132250000Y-134000000D01*
X128400000Y-133100000D02*
X129300000Y-134000000D01*
X128400000Y-130500000D02*
X128400000Y-133100000D01*
X131500000Y-127400000D02*
X128400000Y-130500000D01*
X131500000Y-123500000D02*
X131500000Y-127400000D01*
X130675000Y-122675000D02*
X131500000Y-123500000D01*
X128850000Y-122025000D02*
X128850000Y-122675000D01*
X128000000Y-118000000D02*
X128850000Y-118850000D01*
X128850000Y-118850000D02*
X128850000Y-122025000D01*
X139000000Y-91750000D02*
X139000000Y-94250000D01*
X133150000Y-94325000D02*
X138925000Y-94325000D01*
X138925000Y-94325000D02*
X139000000Y-94250000D01*
X133150000Y-123325000D02*
X138925000Y-123325000D01*
X138925000Y-123325000D02*
X139000000Y-123250000D01*
X139000000Y-120750000D02*
X139000000Y-123250000D01*
D33*
X176000000Y-100800000D02*
X172650000Y-100800000D01*
X172650000Y-100800000D02*
X172450000Y-101000000D01*
X176000000Y-112800000D02*
X172650000Y-112800000D01*
X172650000Y-112800000D02*
X172450000Y-113000000D01*
X176000000Y-134800000D02*
X172650000Y-134800000D01*
X172650000Y-134800000D02*
X172450000Y-135000000D01*
X176000000Y-146800000D02*
X172650000Y-146800000D01*
X172650000Y-146800000D02*
X172450000Y-147000000D01*
D32*
X157950000Y-96000000D02*
X154300000Y-96000000D01*
X148635000Y-97565000D02*
X148635000Y-98700000D01*
X150200000Y-96000000D02*
X148635000Y-97565000D01*
X151900000Y-96000000D02*
X150200000Y-96000000D01*
X157950000Y-94900000D02*
X157950000Y-96000000D01*
X157950000Y-96000000D02*
X157950000Y-97100000D01*
X154000000Y-99600000D02*
X153400000Y-99000000D01*
X177500000Y-73500000D02*
X177500000Y-79300000D01*
X177500000Y-79300000D02*
X178000000Y-79800000D01*
X178000000Y-79800000D02*
X178000000Y-89500000D01*
X178000000Y-89500000D02*
X177700000Y-89800000D01*
X177700000Y-89800000D02*
X171900000Y-89800000D01*
X171900000Y-89800000D02*
X159800000Y-101900000D01*
X159800000Y-101900000D02*
X156300000Y-101900000D01*
X156300000Y-101900000D02*
X154000000Y-99600000D01*
X176000000Y-72000000D02*
X177500000Y-73500000D01*
X153400000Y-92500000D02*
X152600000Y-91700000D01*
X153400000Y-99000000D02*
X153400000Y-92500000D01*
X148635000Y-92265000D02*
X148635000Y-93300000D01*
X149200000Y-91700000D02*
X148635000Y-92265000D01*
X150600000Y-91700000D02*
X149200000Y-91700000D01*
X150600000Y-91700000D02*
X152600000Y-91700000D01*
X151900000Y-126700000D02*
X151900000Y-148000000D01*
X153300000Y-149400000D02*
X176400000Y-149400000D01*
X176400000Y-149400000D02*
X177800000Y-148000000D01*
X177800000Y-148000000D02*
X177800000Y-140000000D01*
X151900000Y-148000000D02*
X153300000Y-149400000D01*
X147365000Y-127700000D02*
X147365000Y-126735000D01*
X151400000Y-126200000D02*
X151900000Y-126700000D01*
X151900000Y-126700000D02*
X151900000Y-126700000D01*
X147900000Y-126200000D02*
X151400000Y-126200000D01*
X147365000Y-126735000D02*
X147900000Y-126200000D01*
X176000000Y-140000000D02*
X177800000Y-140000000D01*
X176000000Y-128000000D02*
X177800000Y-128000000D01*
X176000000Y-106000000D02*
X177800000Y-106000000D01*
X177800000Y-95800000D02*
X176000000Y-94000000D01*
X177800000Y-140000000D02*
X177800000Y-128000000D01*
X177800000Y-128000000D02*
X177800000Y-106000000D01*
X177800000Y-106000000D02*
X177800000Y-95800000D01*
X133150000Y-94975000D02*
X134175000Y-94975000D01*
X136000000Y-96800000D02*
X136000000Y-98250000D01*
X134175000Y-94975000D02*
X136000000Y-96800000D01*
X136000000Y-98250000D02*
X139000000Y-98250000D01*
X133000000Y-128750000D02*
X136000000Y-128750000D01*
X130000000Y-131250000D02*
X130000000Y-130700000D01*
X131950000Y-128750000D02*
X133000000Y-128750000D01*
X130000000Y-130700000D02*
X131950000Y-128750000D01*
X148635000Y-122300000D02*
X148635000Y-123465000D01*
X148400000Y-123700000D02*
X141400000Y-123700000D01*
X148635000Y-123465000D02*
X148400000Y-123700000D01*
X137500000Y-132500000D02*
X140300000Y-132500000D01*
X141400000Y-121650000D02*
X139000000Y-119250000D01*
X141400000Y-131400000D02*
X141400000Y-124600000D01*
X141400000Y-124600000D02*
X141400000Y-123700000D01*
X141400000Y-123700000D02*
X141400000Y-121650000D01*
X140300000Y-132500000D02*
X141400000Y-131400000D01*
X136000000Y-119250000D02*
X139000000Y-119250000D01*
X133500000Y-131250000D02*
X131500000Y-131250000D01*
X131500000Y-131250000D02*
X130000000Y-132750000D01*
X133500000Y-131250000D02*
X136250000Y-131250000D01*
X136250000Y-131250000D02*
X137500000Y-132500000D01*
X125600000Y-129150000D02*
X125450000Y-129000000D01*
X125450000Y-129000000D02*
X123500000Y-129000000D01*
X122000000Y-131000000D02*
X123500000Y-129500000D01*
X123500000Y-129500000D02*
X123500000Y-129000000D01*
X123500000Y-129000000D02*
X123500000Y-126000000D01*
X123500000Y-126000000D02*
X123500000Y-124000000D01*
X124175000Y-123325000D02*
X128850000Y-123325000D01*
X123500000Y-124000000D02*
X124175000Y-123325000D01*
X123500000Y-126000000D02*
X123700000Y-126200000D01*
X133150000Y-93675000D02*
X135425000Y-93675000D01*
X136000000Y-93100000D02*
X136000000Y-91750000D01*
X135425000Y-93675000D02*
X136000000Y-93100000D01*
X133150000Y-122675000D02*
X135125000Y-122675000D01*
X136000000Y-121800000D02*
X136000000Y-120750000D01*
X135125000Y-122675000D02*
X136000000Y-121800000D01*
X166000000Y-62050000D02*
X158550000Y-62050000D01*
X158550000Y-62050000D02*
X158000000Y-61500000D01*
X165950000Y-62000000D02*
X166000000Y-62050000D01*
X166000000Y-63950000D02*
X170950000Y-63950000D01*
X179000000Y-64500000D02*
X176000000Y-61500000D01*
X179000000Y-67000000D02*
X179000000Y-64500000D01*
X178000000Y-68000000D02*
X179000000Y-67000000D01*
X175000000Y-68000000D02*
X178000000Y-68000000D01*
X170950000Y-63950000D02*
X175000000Y-68000000D01*
X168000000Y-63000000D02*
X174000000Y-63000000D01*
X174000000Y-63000000D02*
X176000000Y-65000000D01*
D34*
G36*
X182174500Y-153174500D02*
X103825660Y-153174500D01*
X103825660Y-146670364D01*
X105614414Y-146670364D01*
X106128663Y-147914943D01*
X107080048Y-148867990D01*
X108323728Y-149384411D01*
X109670364Y-149385586D01*
X110914943Y-148871337D01*
X111867990Y-147919952D01*
X112384411Y-146676272D01*
X112385586Y-145329636D01*
X111871337Y-144085057D01*
X110919952Y-143132010D01*
X109676272Y-142615589D01*
X108329636Y-142614414D01*
X107085057Y-143128663D01*
X106132010Y-144080048D01*
X105615589Y-145323728D01*
X105614414Y-146670364D01*
X103825660Y-146670364D01*
X103825660Y-64900000D01*
X104214999Y-64900000D01*
X104215000Y-64900005D01*
X104215000Y-139299995D01*
X104214999Y-139300000D01*
X104247343Y-139462599D01*
X104282367Y-139638675D01*
X104329464Y-139709161D01*
X104474210Y-139925790D01*
X105374208Y-140825787D01*
X105374210Y-140825790D01*
X105661325Y-141017633D01*
X106000000Y-141085001D01*
X106000005Y-141085000D01*
X147699995Y-141085000D01*
X147700000Y-141085001D01*
X147982484Y-141028810D01*
X148038675Y-141017633D01*
X148325790Y-140825790D01*
X148325791Y-140825789D01*
X149275787Y-139875792D01*
X149275790Y-139875790D01*
X149467633Y-139588675D01*
X149492711Y-139462599D01*
X149535001Y-139250000D01*
X149535000Y-139249995D01*
X149535000Y-131473263D01*
X149623691Y-131510000D01*
X149864250Y-131510000D01*
X150023000Y-131351250D01*
X150023000Y-130627000D01*
X150003000Y-130627000D01*
X150003000Y-130373000D01*
X150023000Y-130373000D01*
X150023000Y-129648750D01*
X149864250Y-129490000D01*
X149623691Y-129490000D01*
X149535000Y-129526737D01*
X149535000Y-129108265D01*
X149605000Y-129122440D01*
X150205000Y-129122440D01*
X150440317Y-129078162D01*
X150656441Y-128939090D01*
X150801431Y-128726890D01*
X150852440Y-128475000D01*
X150852440Y-126960000D01*
X151085198Y-126960000D01*
X151140000Y-127014802D01*
X151140000Y-129890051D01*
X151088327Y-129765301D01*
X150909698Y-129586673D01*
X150676309Y-129490000D01*
X150435750Y-129490000D01*
X150277000Y-129648750D01*
X150277000Y-130373000D01*
X150297000Y-130373000D01*
X150297000Y-130627000D01*
X150277000Y-130627000D01*
X150277000Y-131351250D01*
X150435750Y-131510000D01*
X150676309Y-131510000D01*
X150909698Y-131413327D01*
X151088327Y-131234699D01*
X151140000Y-131109949D01*
X151140000Y-148000000D01*
X151197852Y-148290839D01*
X151362599Y-148537401D01*
X152762599Y-149937401D01*
X153009161Y-150102148D01*
X153300000Y-150160000D01*
X176400000Y-150160000D01*
X176690839Y-150102148D01*
X176937401Y-149937401D01*
X178337401Y-148537401D01*
X178502148Y-148290839D01*
X178560000Y-148000000D01*
X178560000Y-146133780D01*
X178614591Y-146215481D01*
X179112581Y-146548227D01*
X179700000Y-146665072D01*
X180287419Y-146548227D01*
X180785409Y-146215481D01*
X181118155Y-145717491D01*
X181235000Y-145130072D01*
X181235000Y-145069928D01*
X181118155Y-144482509D01*
X180785409Y-143984519D01*
X180287419Y-143651773D01*
X179700000Y-143534928D01*
X179112581Y-143651773D01*
X178614591Y-143984519D01*
X178560000Y-144066220D01*
X178560000Y-142733780D01*
X178614591Y-142815481D01*
X179112581Y-143148227D01*
X179700000Y-143265072D01*
X180287419Y-143148227D01*
X180785409Y-142815481D01*
X181118155Y-142317491D01*
X181235000Y-141730072D01*
X181235000Y-141669928D01*
X181118155Y-141082509D01*
X180785409Y-140584519D01*
X180287419Y-140251773D01*
X179700000Y-140134928D01*
X179112581Y-140251773D01*
X178614591Y-140584519D01*
X178560000Y-140666220D01*
X178560000Y-134133780D01*
X178614591Y-134215481D01*
X179112581Y-134548227D01*
X179700000Y-134665072D01*
X180287419Y-134548227D01*
X180785409Y-134215481D01*
X181118155Y-133717491D01*
X181235000Y-133130072D01*
X181235000Y-133069928D01*
X181118155Y-132482509D01*
X180785409Y-131984519D01*
X180287419Y-131651773D01*
X179700000Y-131534928D01*
X179112581Y-131651773D01*
X178614591Y-131984519D01*
X178560000Y-132066220D01*
X178560000Y-130733780D01*
X178614591Y-130815481D01*
X179112581Y-131148227D01*
X179700000Y-131265072D01*
X180287419Y-131148227D01*
X180785409Y-130815481D01*
X181118155Y-130317491D01*
X181235000Y-129730072D01*
X181235000Y-129669928D01*
X181118155Y-129082509D01*
X180785409Y-128584519D01*
X180287419Y-128251773D01*
X179700000Y-128134928D01*
X179112581Y-128251773D01*
X178614591Y-128584519D01*
X178560000Y-128666220D01*
X178560000Y-112133780D01*
X178614591Y-112215481D01*
X179112581Y-112548227D01*
X179700000Y-112665072D01*
X180287419Y-112548227D01*
X180785409Y-112215481D01*
X181118155Y-111717491D01*
X181235000Y-111130072D01*
X181235000Y-111069928D01*
X181118155Y-110482509D01*
X180785409Y-109984519D01*
X180287419Y-109651773D01*
X179700000Y-109534928D01*
X179112581Y-109651773D01*
X178614591Y-109984519D01*
X178560000Y-110066220D01*
X178560000Y-108733780D01*
X178614591Y-108815481D01*
X179112581Y-109148227D01*
X179700000Y-109265072D01*
X180287419Y-109148227D01*
X180785409Y-108815481D01*
X181118155Y-108317491D01*
X181235000Y-107730072D01*
X181235000Y-107669928D01*
X181118155Y-107082509D01*
X180785409Y-106584519D01*
X180287419Y-106251773D01*
X179700000Y-106134928D01*
X179112581Y-106251773D01*
X178614591Y-106584519D01*
X178560000Y-106666220D01*
X178560000Y-100133780D01*
X178614591Y-100215481D01*
X179112581Y-100548227D01*
X179700000Y-100665072D01*
X180287419Y-100548227D01*
X180785409Y-100215481D01*
X181118155Y-99717491D01*
X181235000Y-99130072D01*
X181235000Y-99069928D01*
X181118155Y-98482509D01*
X180785409Y-97984519D01*
X180287419Y-97651773D01*
X179700000Y-97534928D01*
X179112581Y-97651773D01*
X178614591Y-97984519D01*
X178560000Y-98066220D01*
X178560000Y-96733780D01*
X178614591Y-96815481D01*
X179112581Y-97148227D01*
X179700000Y-97265072D01*
X180287419Y-97148227D01*
X180785409Y-96815481D01*
X181118155Y-96317491D01*
X181235000Y-95730072D01*
X181235000Y-95669928D01*
X181118155Y-95082509D01*
X180785409Y-94584519D01*
X180287419Y-94251773D01*
X179700000Y-94134928D01*
X179112581Y-94251773D01*
X178614591Y-94584519D01*
X178281845Y-95082509D01*
X178261183Y-95186381D01*
X177547440Y-94472638D01*
X177547440Y-93100000D01*
X177503162Y-92864683D01*
X177364090Y-92648559D01*
X177151890Y-92503569D01*
X176900000Y-92452560D01*
X175100000Y-92452560D01*
X174864683Y-92496838D01*
X174648559Y-92635910D01*
X174503569Y-92848110D01*
X174452560Y-93100000D01*
X174452560Y-94900000D01*
X174496838Y-95135317D01*
X174635910Y-95351441D01*
X174848110Y-95496431D01*
X175100000Y-95547440D01*
X176472638Y-95547440D01*
X177040000Y-96114802D01*
X177040000Y-96254178D01*
X176587419Y-95951773D01*
X176000000Y-95834928D01*
X175412581Y-95951773D01*
X174914591Y-96284519D01*
X174760589Y-96515000D01*
X169000005Y-96515000D01*
X169000000Y-96514999D01*
X168723498Y-96570000D01*
X168661325Y-96582367D01*
X168374210Y-96774210D01*
X168374208Y-96774213D01*
X158633420Y-106515000D01*
X150785000Y-106515000D01*
X150785000Y-102849669D01*
X150801441Y-102839090D01*
X150946431Y-102626890D01*
X150997440Y-102375000D01*
X150997440Y-101625000D01*
X150953162Y-101389683D01*
X150814090Y-101173559D01*
X150790000Y-101157099D01*
X150790000Y-99743620D01*
X150801431Y-99726890D01*
X150852440Y-99475000D01*
X150852440Y-97925000D01*
X150808162Y-97689683D01*
X150669090Y-97473559D01*
X150456890Y-97328569D01*
X150205000Y-97277560D01*
X149997242Y-97277560D01*
X150514802Y-96760000D01*
X151337537Y-96760000D01*
X151369673Y-96792192D01*
X151713201Y-96934838D01*
X151940000Y-96935036D01*
X151940000Y-99200000D01*
X151997852Y-99490839D01*
X152162599Y-99737401D01*
X152862598Y-100437401D01*
X152862601Y-100437403D01*
X155462599Y-103037401D01*
X155709160Y-103202148D01*
X156000000Y-103260000D01*
X160100000Y-103260000D01*
X160390839Y-103202148D01*
X160637401Y-103037401D01*
X172614802Y-91060000D01*
X177900000Y-91060000D01*
X178190839Y-91002148D01*
X178437401Y-90837401D01*
X179137401Y-90137402D01*
X179256497Y-89959161D01*
X179302148Y-89890839D01*
X179360000Y-89600000D01*
X179360000Y-79362463D01*
X179392192Y-79330327D01*
X179534838Y-78986799D01*
X179535147Y-78632281D01*
X179700000Y-78665072D01*
X180287419Y-78548227D01*
X180785409Y-78215481D01*
X181118155Y-77717491D01*
X181235000Y-77130072D01*
X181235000Y-77069928D01*
X181118155Y-76482509D01*
X180785409Y-75984519D01*
X180287419Y-75651773D01*
X179700000Y-75534928D01*
X179112581Y-75651773D01*
X178614591Y-75984519D01*
X178281845Y-76482509D01*
X178260000Y-76592331D01*
X178260000Y-74207669D01*
X178281845Y-74317491D01*
X178614591Y-74815481D01*
X179112581Y-75148227D01*
X179700000Y-75265072D01*
X180287419Y-75148227D01*
X180785409Y-74815481D01*
X181118155Y-74317491D01*
X181235000Y-73730072D01*
X181235000Y-73669928D01*
X181118155Y-73082509D01*
X180835000Y-72658737D01*
X180835000Y-71300000D01*
X180748603Y-70865654D01*
X180502566Y-70497434D01*
X178602566Y-68597434D01*
X178525061Y-68545647D01*
X178537401Y-68537401D01*
X179537401Y-67537401D01*
X179702148Y-67290839D01*
X179760000Y-67000000D01*
X179760000Y-64500000D01*
X179702148Y-64209161D01*
X179537401Y-63962599D01*
X177719293Y-62144491D01*
X177834681Y-61866605D01*
X177835318Y-61136597D01*
X177556545Y-60461914D01*
X177040801Y-59945270D01*
X176366605Y-59665319D01*
X175636597Y-59664682D01*
X174961914Y-59943455D01*
X174445270Y-60459199D01*
X174165319Y-61133395D01*
X174164682Y-61863403D01*
X174364540Y-62347097D01*
X174290839Y-62297852D01*
X174000000Y-62240000D01*
X168972931Y-62240000D01*
X168914090Y-62148559D01*
X168701890Y-62003569D01*
X168450000Y-61952560D01*
X167550000Y-61952560D01*
X167314683Y-61996838D01*
X167098559Y-62135910D01*
X167097440Y-62137548D01*
X167097440Y-61650000D01*
X167053162Y-61414683D01*
X166914090Y-61198559D01*
X166701890Y-61053569D01*
X166450000Y-61002560D01*
X165550000Y-61002560D01*
X165314683Y-61046838D01*
X165098559Y-61185910D01*
X165027437Y-61290000D01*
X159847440Y-61290000D01*
X159847440Y-60300000D01*
X159803162Y-60064683D01*
X159664090Y-59848559D01*
X159451890Y-59703569D01*
X159200000Y-59652560D01*
X156800000Y-59652560D01*
X156564683Y-59696838D01*
X156348559Y-59835910D01*
X156203569Y-60048110D01*
X156152560Y-60300000D01*
X156152560Y-62700000D01*
X156196838Y-62935317D01*
X156335910Y-63151441D01*
X156548110Y-63296431D01*
X156800000Y-63347440D01*
X157169181Y-63347440D01*
X157005565Y-63415212D01*
X156882430Y-63702825D01*
X158000000Y-64820395D01*
X159117570Y-63702825D01*
X158994435Y-63415212D01*
X158816564Y-63347440D01*
X159200000Y-63347440D01*
X159435317Y-63303162D01*
X159651441Y-63164090D01*
X159796431Y-62951890D01*
X159825164Y-62810000D01*
X165027069Y-62810000D01*
X165085910Y-62901441D01*
X165231083Y-63000633D01*
X165098559Y-63085910D01*
X164953569Y-63298110D01*
X164902560Y-63550000D01*
X164902560Y-64350000D01*
X164946838Y-64585317D01*
X165085910Y-64801441D01*
X165298110Y-64946431D01*
X165550000Y-64997440D01*
X166450000Y-64997440D01*
X166685317Y-64953162D01*
X166901441Y-64814090D01*
X166972563Y-64710000D01*
X170635198Y-64710000D01*
X174190198Y-68265000D01*
X141870133Y-68265000D01*
X139902308Y-66297175D01*
X156882430Y-66297175D01*
X157005565Y-66584788D01*
X157687734Y-66844707D01*
X158417443Y-66823786D01*
X158994435Y-66584788D01*
X159117570Y-66297175D01*
X158000000Y-65179605D01*
X156882430Y-66297175D01*
X139902308Y-66297175D01*
X139802566Y-66197434D01*
X139507085Y-66000000D01*
X139434346Y-65951397D01*
X139000000Y-65865000D01*
X138547440Y-65865000D01*
X138547440Y-65750000D01*
X138503162Y-65514683D01*
X138364090Y-65298559D01*
X138151890Y-65153569D01*
X137900000Y-65102560D01*
X137707692Y-65102560D01*
X137292866Y-64687734D01*
X156155293Y-64687734D01*
X156176214Y-65417443D01*
X156415212Y-65994435D01*
X156702825Y-66117570D01*
X157820395Y-65000000D01*
X158179605Y-65000000D01*
X159297175Y-66117570D01*
X159584788Y-65994435D01*
X159844707Y-65312266D01*
X159823786Y-64582557D01*
X159584788Y-64005565D01*
X159297175Y-63882430D01*
X158179605Y-65000000D01*
X157820395Y-65000000D01*
X156702825Y-63882430D01*
X156415212Y-64005565D01*
X156155293Y-64687734D01*
X137292866Y-64687734D01*
X136152572Y-63547440D01*
X136250000Y-63547440D01*
X136485317Y-63503162D01*
X136701441Y-63364090D01*
X136846431Y-63151890D01*
X136897440Y-62900000D01*
X136897440Y-61100000D01*
X136853162Y-60864683D01*
X136714090Y-60648559D01*
X136501890Y-60503569D01*
X136250000Y-60452560D01*
X135057692Y-60452560D01*
X133002566Y-58397434D01*
X132910489Y-58335910D01*
X132634346Y-58151397D01*
X132200000Y-58065000D01*
X110800000Y-58065000D01*
X110365654Y-58151397D01*
X110363913Y-58152560D01*
X108800000Y-58152560D01*
X108564683Y-58196838D01*
X108348559Y-58335910D01*
X108203569Y-58548110D01*
X108152560Y-58800000D01*
X108152560Y-60595861D01*
X104474210Y-64274210D01*
X104282367Y-64561325D01*
X104282367Y-64561326D01*
X104214999Y-64900000D01*
X103825660Y-64900000D01*
X103825660Y-54825700D01*
X182174500Y-54825700D01*
X182174500Y-153174500D01*
X182174500Y-153174500D01*
G37*
X182174500Y-153174500D02*
X103825660Y-153174500D01*
X103825660Y-146670364D01*
X105614414Y-146670364D01*
X106128663Y-147914943D01*
X107080048Y-148867990D01*
X108323728Y-149384411D01*
X109670364Y-149385586D01*
X110914943Y-148871337D01*
X111867990Y-147919952D01*
X112384411Y-146676272D01*
X112385586Y-145329636D01*
X111871337Y-144085057D01*
X110919952Y-143132010D01*
X109676272Y-142615589D01*
X108329636Y-142614414D01*
X107085057Y-143128663D01*
X106132010Y-144080048D01*
X105615589Y-145323728D01*
X105614414Y-146670364D01*
X103825660Y-146670364D01*
X103825660Y-64900000D01*
X104214999Y-64900000D01*
X104215000Y-64900005D01*
X104215000Y-139299995D01*
X104214999Y-139300000D01*
X104247343Y-139462599D01*
X104282367Y-139638675D01*
X104329464Y-139709161D01*
X104474210Y-139925790D01*
X105374208Y-140825787D01*
X105374210Y-140825790D01*
X105661325Y-141017633D01*
X106000000Y-141085001D01*
X106000005Y-141085000D01*
X147699995Y-141085000D01*
X147700000Y-141085001D01*
X147982484Y-141028810D01*
X148038675Y-141017633D01*
X148325790Y-140825790D01*
X148325791Y-140825789D01*
X149275787Y-139875792D01*
X149275790Y-139875790D01*
X149467633Y-139588675D01*
X149492711Y-139462599D01*
X149535001Y-139250000D01*
X149535000Y-139249995D01*
X149535000Y-131473263D01*
X149623691Y-131510000D01*
X149864250Y-131510000D01*
X150023000Y-131351250D01*
X150023000Y-130627000D01*
X150003000Y-130627000D01*
X150003000Y-130373000D01*
X150023000Y-130373000D01*
X150023000Y-129648750D01*
X149864250Y-129490000D01*
X149623691Y-129490000D01*
X149535000Y-129526737D01*
X149535000Y-129108265D01*
X149605000Y-129122440D01*
X150205000Y-129122440D01*
X150440317Y-129078162D01*
X150656441Y-128939090D01*
X150801431Y-128726890D01*
X150852440Y-128475000D01*
X150852440Y-126960000D01*
X151085198Y-126960000D01*
X151140000Y-127014802D01*
X151140000Y-129890051D01*
X151088327Y-129765301D01*
X150909698Y-129586673D01*
X150676309Y-129490000D01*
X150435750Y-129490000D01*
X150277000Y-129648750D01*
X150277000Y-130373000D01*
X150297000Y-130373000D01*
X150297000Y-130627000D01*
X150277000Y-130627000D01*
X150277000Y-131351250D01*
X150435750Y-131510000D01*
X150676309Y-131510000D01*
X150909698Y-131413327D01*
X151088327Y-131234699D01*
X151140000Y-131109949D01*
X151140000Y-148000000D01*
X151197852Y-148290839D01*
X151362599Y-148537401D01*
X152762599Y-149937401D01*
X153009161Y-150102148D01*
X153300000Y-150160000D01*
X176400000Y-150160000D01*
X176690839Y-150102148D01*
X176937401Y-149937401D01*
X178337401Y-148537401D01*
X178502148Y-148290839D01*
X178560000Y-148000000D01*
X178560000Y-146133780D01*
X178614591Y-146215481D01*
X179112581Y-146548227D01*
X179700000Y-146665072D01*
X180287419Y-146548227D01*
X180785409Y-146215481D01*
X181118155Y-145717491D01*
X181235000Y-145130072D01*
X181235000Y-145069928D01*
X181118155Y-144482509D01*
X180785409Y-143984519D01*
X180287419Y-143651773D01*
X179700000Y-143534928D01*
X179112581Y-143651773D01*
X178614591Y-143984519D01*
X178560000Y-144066220D01*
X178560000Y-142733780D01*
X178614591Y-142815481D01*
X179112581Y-143148227D01*
X179700000Y-143265072D01*
X180287419Y-143148227D01*
X180785409Y-142815481D01*
X181118155Y-142317491D01*
X181235000Y-141730072D01*
X181235000Y-141669928D01*
X181118155Y-141082509D01*
X180785409Y-140584519D01*
X180287419Y-140251773D01*
X179700000Y-140134928D01*
X179112581Y-140251773D01*
X178614591Y-140584519D01*
X178560000Y-140666220D01*
X178560000Y-134133780D01*
X178614591Y-134215481D01*
X179112581Y-134548227D01*
X179700000Y-134665072D01*
X180287419Y-134548227D01*
X180785409Y-134215481D01*
X181118155Y-133717491D01*
X181235000Y-133130072D01*
X181235000Y-133069928D01*
X181118155Y-132482509D01*
X180785409Y-131984519D01*
X180287419Y-131651773D01*
X179700000Y-131534928D01*
X179112581Y-131651773D01*
X178614591Y-131984519D01*
X178560000Y-132066220D01*
X178560000Y-130733780D01*
X178614591Y-130815481D01*
X179112581Y-131148227D01*
X179700000Y-131265072D01*
X180287419Y-131148227D01*
X180785409Y-130815481D01*
X181118155Y-130317491D01*
X181235000Y-129730072D01*
X181235000Y-129669928D01*
X181118155Y-129082509D01*
X180785409Y-128584519D01*
X180287419Y-128251773D01*
X179700000Y-128134928D01*
X179112581Y-128251773D01*
X178614591Y-128584519D01*
X178560000Y-128666220D01*
X178560000Y-112133780D01*
X178614591Y-112215481D01*
X179112581Y-112548227D01*
X179700000Y-112665072D01*
X180287419Y-112548227D01*
X180785409Y-112215481D01*
X181118155Y-111717491D01*
X181235000Y-111130072D01*
X181235000Y-111069928D01*
X181118155Y-110482509D01*
X180785409Y-109984519D01*
X180287419Y-109651773D01*
X179700000Y-109534928D01*
X179112581Y-109651773D01*
X178614591Y-109984519D01*
X178560000Y-110066220D01*
X178560000Y-108733780D01*
X178614591Y-108815481D01*
X179112581Y-109148227D01*
X179700000Y-109265072D01*
X180287419Y-109148227D01*
X180785409Y-108815481D01*
X181118155Y-108317491D01*
X181235000Y-107730072D01*
X181235000Y-107669928D01*
X181118155Y-107082509D01*
X180785409Y-106584519D01*
X180287419Y-106251773D01*
X179700000Y-106134928D01*
X179112581Y-106251773D01*
X178614591Y-106584519D01*
X178560000Y-106666220D01*
X178560000Y-100133780D01*
X178614591Y-100215481D01*
X179112581Y-100548227D01*
X179700000Y-100665072D01*
X180287419Y-100548227D01*
X180785409Y-100215481D01*
X181118155Y-99717491D01*
X181235000Y-99130072D01*
X181235000Y-99069928D01*
X181118155Y-98482509D01*
X180785409Y-97984519D01*
X180287419Y-97651773D01*
X179700000Y-97534928D01*
X179112581Y-97651773D01*
X178614591Y-97984519D01*
X178560000Y-98066220D01*
X178560000Y-96733780D01*
X178614591Y-96815481D01*
X179112581Y-97148227D01*
X179700000Y-97265072D01*
X180287419Y-97148227D01*
X180785409Y-96815481D01*
X181118155Y-96317491D01*
X181235000Y-95730072D01*
X181235000Y-95669928D01*
X181118155Y-95082509D01*
X180785409Y-94584519D01*
X180287419Y-94251773D01*
X179700000Y-94134928D01*
X179112581Y-94251773D01*
X178614591Y-94584519D01*
X178281845Y-95082509D01*
X178261183Y-95186381D01*
X177547440Y-94472638D01*
X177547440Y-93100000D01*
X177503162Y-92864683D01*
X177364090Y-92648559D01*
X177151890Y-92503569D01*
X176900000Y-92452560D01*
X175100000Y-92452560D01*
X174864683Y-92496838D01*
X174648559Y-92635910D01*
X174503569Y-92848110D01*
X174452560Y-93100000D01*
X174452560Y-94900000D01*
X174496838Y-95135317D01*
X174635910Y-95351441D01*
X174848110Y-95496431D01*
X175100000Y-95547440D01*
X176472638Y-95547440D01*
X177040000Y-96114802D01*
X177040000Y-96254178D01*
X176587419Y-95951773D01*
X176000000Y-95834928D01*
X175412581Y-95951773D01*
X174914591Y-96284519D01*
X174760589Y-96515000D01*
X169000005Y-96515000D01*
X169000000Y-96514999D01*
X168723498Y-96570000D01*
X168661325Y-96582367D01*
X168374210Y-96774210D01*
X168374208Y-96774213D01*
X158633420Y-106515000D01*
X150785000Y-106515000D01*
X150785000Y-102849669D01*
X150801441Y-102839090D01*
X150946431Y-102626890D01*
X150997440Y-102375000D01*
X150997440Y-101625000D01*
X150953162Y-101389683D01*
X150814090Y-101173559D01*
X150790000Y-101157099D01*
X150790000Y-99743620D01*
X150801431Y-99726890D01*
X150852440Y-99475000D01*
X150852440Y-97925000D01*
X150808162Y-97689683D01*
X150669090Y-97473559D01*
X150456890Y-97328569D01*
X150205000Y-97277560D01*
X149997242Y-97277560D01*
X150514802Y-96760000D01*
X151337537Y-96760000D01*
X151369673Y-96792192D01*
X151713201Y-96934838D01*
X151940000Y-96935036D01*
X151940000Y-99200000D01*
X151997852Y-99490839D01*
X152162599Y-99737401D01*
X152862598Y-100437401D01*
X152862601Y-100437403D01*
X155462599Y-103037401D01*
X155709160Y-103202148D01*
X156000000Y-103260000D01*
X160100000Y-103260000D01*
X160390839Y-103202148D01*
X160637401Y-103037401D01*
X172614802Y-91060000D01*
X177900000Y-91060000D01*
X178190839Y-91002148D01*
X178437401Y-90837401D01*
X179137401Y-90137402D01*
X179256497Y-89959161D01*
X179302148Y-89890839D01*
X179360000Y-89600000D01*
X179360000Y-79362463D01*
X179392192Y-79330327D01*
X179534838Y-78986799D01*
X179535147Y-78632281D01*
X179700000Y-78665072D01*
X180287419Y-78548227D01*
X180785409Y-78215481D01*
X181118155Y-77717491D01*
X181235000Y-77130072D01*
X181235000Y-77069928D01*
X181118155Y-76482509D01*
X180785409Y-75984519D01*
X180287419Y-75651773D01*
X179700000Y-75534928D01*
X179112581Y-75651773D01*
X178614591Y-75984519D01*
X178281845Y-76482509D01*
X178260000Y-76592331D01*
X178260000Y-74207669D01*
X178281845Y-74317491D01*
X178614591Y-74815481D01*
X179112581Y-75148227D01*
X179700000Y-75265072D01*
X180287419Y-75148227D01*
X180785409Y-74815481D01*
X181118155Y-74317491D01*
X181235000Y-73730072D01*
X181235000Y-73669928D01*
X181118155Y-73082509D01*
X180835000Y-72658737D01*
X180835000Y-71300000D01*
X180748603Y-70865654D01*
X180502566Y-70497434D01*
X178602566Y-68597434D01*
X178525061Y-68545647D01*
X178537401Y-68537401D01*
X179537401Y-67537401D01*
X179702148Y-67290839D01*
X179760000Y-67000000D01*
X179760000Y-64500000D01*
X179702148Y-64209161D01*
X179537401Y-63962599D01*
X177719293Y-62144491D01*
X177834681Y-61866605D01*
X177835318Y-61136597D01*
X177556545Y-60461914D01*
X177040801Y-59945270D01*
X176366605Y-59665319D01*
X175636597Y-59664682D01*
X174961914Y-59943455D01*
X174445270Y-60459199D01*
X174165319Y-61133395D01*
X174164682Y-61863403D01*
X174364540Y-62347097D01*
X174290839Y-62297852D01*
X174000000Y-62240000D01*
X168972931Y-62240000D01*
X168914090Y-62148559D01*
X168701890Y-62003569D01*
X168450000Y-61952560D01*
X167550000Y-61952560D01*
X167314683Y-61996838D01*
X167098559Y-62135910D01*
X167097440Y-62137548D01*
X167097440Y-61650000D01*
X167053162Y-61414683D01*
X166914090Y-61198559D01*
X166701890Y-61053569D01*
X166450000Y-61002560D01*
X165550000Y-61002560D01*
X165314683Y-61046838D01*
X165098559Y-61185910D01*
X165027437Y-61290000D01*
X159847440Y-61290000D01*
X159847440Y-60300000D01*
X159803162Y-60064683D01*
X159664090Y-59848559D01*
X159451890Y-59703569D01*
X159200000Y-59652560D01*
X156800000Y-59652560D01*
X156564683Y-59696838D01*
X156348559Y-59835910D01*
X156203569Y-60048110D01*
X156152560Y-60300000D01*
X156152560Y-62700000D01*
X156196838Y-62935317D01*
X156335910Y-63151441D01*
X156548110Y-63296431D01*
X156800000Y-63347440D01*
X157169181Y-63347440D01*
X157005565Y-63415212D01*
X156882430Y-63702825D01*
X158000000Y-64820395D01*
X159117570Y-63702825D01*
X158994435Y-63415212D01*
X158816564Y-63347440D01*
X159200000Y-63347440D01*
X159435317Y-63303162D01*
X159651441Y-63164090D01*
X159796431Y-62951890D01*
X159825164Y-62810000D01*
X165027069Y-62810000D01*
X165085910Y-62901441D01*
X165231083Y-63000633D01*
X165098559Y-63085910D01*
X164953569Y-63298110D01*
X164902560Y-63550000D01*
X164902560Y-64350000D01*
X164946838Y-64585317D01*
X165085910Y-64801441D01*
X165298110Y-64946431D01*
X165550000Y-64997440D01*
X166450000Y-64997440D01*
X166685317Y-64953162D01*
X166901441Y-64814090D01*
X166972563Y-64710000D01*
X170635198Y-64710000D01*
X174190198Y-68265000D01*
X141870133Y-68265000D01*
X139902308Y-66297175D01*
X156882430Y-66297175D01*
X157005565Y-66584788D01*
X157687734Y-66844707D01*
X158417443Y-66823786D01*
X158994435Y-66584788D01*
X159117570Y-66297175D01*
X158000000Y-65179605D01*
X156882430Y-66297175D01*
X139902308Y-66297175D01*
X139802566Y-66197434D01*
X139507085Y-66000000D01*
X139434346Y-65951397D01*
X139000000Y-65865000D01*
X138547440Y-65865000D01*
X138547440Y-65750000D01*
X138503162Y-65514683D01*
X138364090Y-65298559D01*
X138151890Y-65153569D01*
X137900000Y-65102560D01*
X137707692Y-65102560D01*
X137292866Y-64687734D01*
X156155293Y-64687734D01*
X156176214Y-65417443D01*
X156415212Y-65994435D01*
X156702825Y-66117570D01*
X157820395Y-65000000D01*
X158179605Y-65000000D01*
X159297175Y-66117570D01*
X159584788Y-65994435D01*
X159844707Y-65312266D01*
X159823786Y-64582557D01*
X159584788Y-64005565D01*
X159297175Y-63882430D01*
X158179605Y-65000000D01*
X157820395Y-65000000D01*
X156702825Y-63882430D01*
X156415212Y-64005565D01*
X156155293Y-64687734D01*
X137292866Y-64687734D01*
X136152572Y-63547440D01*
X136250000Y-63547440D01*
X136485317Y-63503162D01*
X136701441Y-63364090D01*
X136846431Y-63151890D01*
X136897440Y-62900000D01*
X136897440Y-61100000D01*
X136853162Y-60864683D01*
X136714090Y-60648559D01*
X136501890Y-60503569D01*
X136250000Y-60452560D01*
X135057692Y-60452560D01*
X133002566Y-58397434D01*
X132910489Y-58335910D01*
X132634346Y-58151397D01*
X132200000Y-58065000D01*
X110800000Y-58065000D01*
X110365654Y-58151397D01*
X110363913Y-58152560D01*
X108800000Y-58152560D01*
X108564683Y-58196838D01*
X108348559Y-58335910D01*
X108203569Y-58548110D01*
X108152560Y-58800000D01*
X108152560Y-60595861D01*
X104474210Y-64274210D01*
X104282367Y-64561325D01*
X104282367Y-64561326D01*
X104214999Y-64900000D01*
X103825660Y-64900000D01*
X103825660Y-54825700D01*
X182174500Y-54825700D01*
X182174500Y-153174500D01*
G36*
X174152560Y-123200000D02*
X174196838Y-123435317D01*
X174335910Y-123651441D01*
X174548110Y-123796431D01*
X174800000Y-123847440D01*
X177040000Y-123847440D01*
X177040000Y-126480911D01*
X176900000Y-126452560D01*
X175100000Y-126452560D01*
X174864683Y-126496838D01*
X174648559Y-126635910D01*
X174503569Y-126848110D01*
X174452560Y-127100000D01*
X174452560Y-128900000D01*
X174496838Y-129135317D01*
X174635910Y-129351441D01*
X174848110Y-129496431D01*
X175100000Y-129547440D01*
X176900000Y-129547440D01*
X177040000Y-129521097D01*
X177040000Y-130254178D01*
X176587419Y-129951773D01*
X176000000Y-129834928D01*
X175412581Y-129951773D01*
X174914591Y-130284519D01*
X174581845Y-130782509D01*
X174465000Y-131369928D01*
X174465000Y-131430072D01*
X174581845Y-132017491D01*
X174914591Y-132515481D01*
X175412581Y-132848227D01*
X176000000Y-132965072D01*
X176587419Y-132848227D01*
X177040000Y-132545822D01*
X177040000Y-133654178D01*
X176587419Y-133351773D01*
X176000000Y-133234928D01*
X175412581Y-133351773D01*
X174943803Y-133665000D01*
X173314975Y-133665000D01*
X173151890Y-133553569D01*
X172900000Y-133502560D01*
X172000000Y-133502560D01*
X171764683Y-133546838D01*
X171548559Y-133685910D01*
X171403569Y-133898110D01*
X171352560Y-134150000D01*
X171352560Y-134811174D01*
X171315000Y-135000000D01*
X171352560Y-135188826D01*
X171352560Y-135850000D01*
X171396838Y-136085317D01*
X171535910Y-136301441D01*
X171748110Y-136446431D01*
X172000000Y-136497440D01*
X172900000Y-136497440D01*
X173135317Y-136453162D01*
X173351441Y-136314090D01*
X173496431Y-136101890D01*
X173530227Y-135935000D01*
X174943803Y-135935000D01*
X175412581Y-136248227D01*
X176000000Y-136365072D01*
X176587419Y-136248227D01*
X177040000Y-135945822D01*
X177040000Y-138480911D01*
X176900000Y-138452560D01*
X175100000Y-138452560D01*
X174864683Y-138496838D01*
X174648559Y-138635910D01*
X174503569Y-138848110D01*
X174452560Y-139100000D01*
X174452560Y-140900000D01*
X174496838Y-141135317D01*
X174635910Y-141351441D01*
X174848110Y-141496431D01*
X175100000Y-141547440D01*
X176900000Y-141547440D01*
X177040000Y-141521097D01*
X177040000Y-142254178D01*
X176587419Y-141951773D01*
X176000000Y-141834928D01*
X175412581Y-141951773D01*
X174914591Y-142284519D01*
X174581845Y-142782509D01*
X174465000Y-143369928D01*
X174465000Y-143430072D01*
X174581845Y-144017491D01*
X174914591Y-144515481D01*
X175412581Y-144848227D01*
X176000000Y-144965072D01*
X176587419Y-144848227D01*
X177040000Y-144545822D01*
X177040000Y-145654178D01*
X176587419Y-145351773D01*
X176000000Y-145234928D01*
X175412581Y-145351773D01*
X174943803Y-145665000D01*
X173314975Y-145665000D01*
X173151890Y-145553569D01*
X172900000Y-145502560D01*
X172000000Y-145502560D01*
X171764683Y-145546838D01*
X171548559Y-145685910D01*
X171403569Y-145898110D01*
X171352560Y-146150000D01*
X171352560Y-146811174D01*
X171315000Y-147000000D01*
X171352560Y-147188826D01*
X171352560Y-147850000D01*
X171396838Y-148085317D01*
X171535910Y-148301441D01*
X171748110Y-148446431D01*
X172000000Y-148497440D01*
X172900000Y-148497440D01*
X173135317Y-148453162D01*
X173351441Y-148314090D01*
X173496431Y-148101890D01*
X173530227Y-147935000D01*
X174943803Y-147935000D01*
X175412581Y-148248227D01*
X176000000Y-148365072D01*
X176449546Y-148275652D01*
X176085198Y-148640000D01*
X163146684Y-148640000D01*
X163867990Y-147919952D01*
X164384411Y-146676272D01*
X164385586Y-145329636D01*
X163871337Y-144085057D01*
X162919952Y-143132010D01*
X161676272Y-142615589D01*
X160329636Y-142614414D01*
X159085057Y-143128663D01*
X158132010Y-144080048D01*
X157615589Y-145323728D01*
X157614414Y-146670364D01*
X158128663Y-147914943D01*
X158852456Y-148640000D01*
X153614802Y-148640000D01*
X152660000Y-147685198D01*
X152660000Y-126700000D01*
X152602148Y-126409161D01*
X152437401Y-126162599D01*
X151937401Y-125662599D01*
X151690839Y-125497852D01*
X151512437Y-125462365D01*
X153214802Y-123760000D01*
X164502560Y-123760000D01*
X164502560Y-123850000D01*
X164546838Y-124085317D01*
X164685910Y-124301441D01*
X164898110Y-124446431D01*
X165150000Y-124497440D01*
X166850000Y-124497440D01*
X167085317Y-124453162D01*
X167301441Y-124314090D01*
X167446431Y-124101890D01*
X167497440Y-123850000D01*
X167497440Y-123760000D01*
X168415000Y-123760000D01*
X168415000Y-147000000D01*
X168452560Y-147188826D01*
X168452560Y-147850000D01*
X168496838Y-148085317D01*
X168635910Y-148301441D01*
X168848110Y-148446431D01*
X169100000Y-148497440D01*
X170000000Y-148497440D01*
X170235317Y-148453162D01*
X170451441Y-148314090D01*
X170596431Y-148101890D01*
X170647440Y-147850000D01*
X170647440Y-147188826D01*
X170685000Y-147000000D01*
X170685000Y-123135000D01*
X174152560Y-123135000D01*
X174152560Y-123200000D01*
X174152560Y-123200000D01*
G37*
X174152560Y-123200000D02*
X174196838Y-123435317D01*
X174335910Y-123651441D01*
X174548110Y-123796431D01*
X174800000Y-123847440D01*
X177040000Y-123847440D01*
X177040000Y-126480911D01*
X176900000Y-126452560D01*
X175100000Y-126452560D01*
X174864683Y-126496838D01*
X174648559Y-126635910D01*
X174503569Y-126848110D01*
X174452560Y-127100000D01*
X174452560Y-128900000D01*
X174496838Y-129135317D01*
X174635910Y-129351441D01*
X174848110Y-129496431D01*
X175100000Y-129547440D01*
X176900000Y-129547440D01*
X177040000Y-129521097D01*
X177040000Y-130254178D01*
X176587419Y-129951773D01*
X176000000Y-129834928D01*
X175412581Y-129951773D01*
X174914591Y-130284519D01*
X174581845Y-130782509D01*
X174465000Y-131369928D01*
X174465000Y-131430072D01*
X174581845Y-132017491D01*
X174914591Y-132515481D01*
X175412581Y-132848227D01*
X176000000Y-132965072D01*
X176587419Y-132848227D01*
X177040000Y-132545822D01*
X177040000Y-133654178D01*
X176587419Y-133351773D01*
X176000000Y-133234928D01*
X175412581Y-133351773D01*
X174943803Y-133665000D01*
X173314975Y-133665000D01*
X173151890Y-133553569D01*
X172900000Y-133502560D01*
X172000000Y-133502560D01*
X171764683Y-133546838D01*
X171548559Y-133685910D01*
X171403569Y-133898110D01*
X171352560Y-134150000D01*
X171352560Y-134811174D01*
X171315000Y-135000000D01*
X171352560Y-135188826D01*
X171352560Y-135850000D01*
X171396838Y-136085317D01*
X171535910Y-136301441D01*
X171748110Y-136446431D01*
X172000000Y-136497440D01*
X172900000Y-136497440D01*
X173135317Y-136453162D01*
X173351441Y-136314090D01*
X173496431Y-136101890D01*
X173530227Y-135935000D01*
X174943803Y-135935000D01*
X175412581Y-136248227D01*
X176000000Y-136365072D01*
X176587419Y-136248227D01*
X177040000Y-135945822D01*
X177040000Y-138480911D01*
X176900000Y-138452560D01*
X175100000Y-138452560D01*
X174864683Y-138496838D01*
X174648559Y-138635910D01*
X174503569Y-138848110D01*
X174452560Y-139100000D01*
X174452560Y-140900000D01*
X174496838Y-141135317D01*
X174635910Y-141351441D01*
X174848110Y-141496431D01*
X175100000Y-141547440D01*
X176900000Y-141547440D01*
X177040000Y-141521097D01*
X177040000Y-142254178D01*
X176587419Y-141951773D01*
X176000000Y-141834928D01*
X175412581Y-141951773D01*
X174914591Y-142284519D01*
X174581845Y-142782509D01*
X174465000Y-143369928D01*
X174465000Y-143430072D01*
X174581845Y-144017491D01*
X174914591Y-144515481D01*
X175412581Y-144848227D01*
X176000000Y-144965072D01*
X176587419Y-144848227D01*
X177040000Y-144545822D01*
X177040000Y-145654178D01*
X176587419Y-145351773D01*
X176000000Y-145234928D01*
X175412581Y-145351773D01*
X174943803Y-145665000D01*
X173314975Y-145665000D01*
X173151890Y-145553569D01*
X172900000Y-145502560D01*
X172000000Y-145502560D01*
X171764683Y-145546838D01*
X171548559Y-145685910D01*
X171403569Y-145898110D01*
X171352560Y-146150000D01*
X171352560Y-146811174D01*
X171315000Y-147000000D01*
X171352560Y-147188826D01*
X171352560Y-147850000D01*
X171396838Y-148085317D01*
X171535910Y-148301441D01*
X171748110Y-148446431D01*
X172000000Y-148497440D01*
X172900000Y-148497440D01*
X173135317Y-148453162D01*
X173351441Y-148314090D01*
X173496431Y-148101890D01*
X173530227Y-147935000D01*
X174943803Y-147935000D01*
X175412581Y-148248227D01*
X176000000Y-148365072D01*
X176449546Y-148275652D01*
X176085198Y-148640000D01*
X163146684Y-148640000D01*
X163867990Y-147919952D01*
X164384411Y-146676272D01*
X164385586Y-145329636D01*
X163871337Y-144085057D01*
X162919952Y-143132010D01*
X161676272Y-142615589D01*
X160329636Y-142614414D01*
X159085057Y-143128663D01*
X158132010Y-144080048D01*
X157615589Y-145323728D01*
X157614414Y-146670364D01*
X158128663Y-147914943D01*
X158852456Y-148640000D01*
X153614802Y-148640000D01*
X152660000Y-147685198D01*
X152660000Y-126700000D01*
X152602148Y-126409161D01*
X152437401Y-126162599D01*
X151937401Y-125662599D01*
X151690839Y-125497852D01*
X151512437Y-125462365D01*
X153214802Y-123760000D01*
X164502560Y-123760000D01*
X164502560Y-123850000D01*
X164546838Y-124085317D01*
X164685910Y-124301441D01*
X164898110Y-124446431D01*
X165150000Y-124497440D01*
X166850000Y-124497440D01*
X167085317Y-124453162D01*
X167301441Y-124314090D01*
X167446431Y-124101890D01*
X167497440Y-123850000D01*
X167497440Y-123760000D01*
X168415000Y-123760000D01*
X168415000Y-147000000D01*
X168452560Y-147188826D01*
X168452560Y-147850000D01*
X168496838Y-148085317D01*
X168635910Y-148301441D01*
X168848110Y-148446431D01*
X169100000Y-148497440D01*
X170000000Y-148497440D01*
X170235317Y-148453162D01*
X170451441Y-148314090D01*
X170596431Y-148101890D01*
X170647440Y-147850000D01*
X170647440Y-147188826D01*
X170685000Y-147000000D01*
X170685000Y-123135000D01*
X174152560Y-123135000D01*
X174152560Y-123200000D01*
G36*
X116115000Y-120102560D02*
X116100000Y-120102560D01*
X115864683Y-120146838D01*
X115648559Y-120285910D01*
X115503569Y-120498110D01*
X115452560Y-120750000D01*
X115452560Y-123250000D01*
X115496838Y-123485317D01*
X115635910Y-123701441D01*
X115848110Y-123846431D01*
X116100000Y-123897440D01*
X117900000Y-123897440D01*
X118135317Y-123853162D01*
X118351441Y-123714090D01*
X118496431Y-123501890D01*
X118547440Y-123250000D01*
X118547440Y-120750000D01*
X118503162Y-120514683D01*
X118364090Y-120298559D01*
X118151890Y-120153569D01*
X117900000Y-120102560D01*
X117885000Y-120102560D01*
X117885000Y-115785000D01*
X132333420Y-115785000D01*
X132365000Y-115816579D01*
X132365000Y-118526737D01*
X132276309Y-118490000D01*
X132035750Y-118490000D01*
X131877000Y-118648750D01*
X131877000Y-119373000D01*
X131897000Y-119373000D01*
X131897000Y-119627000D01*
X131877000Y-119627000D01*
X131877000Y-120351250D01*
X132035750Y-120510000D01*
X132276309Y-120510000D01*
X132490000Y-120421486D01*
X132490000Y-121198258D01*
X132364683Y-121221838D01*
X132148559Y-121360910D01*
X132003569Y-121573110D01*
X131952560Y-121825000D01*
X131952560Y-122225000D01*
X131976944Y-122354589D01*
X131952560Y-122475000D01*
X131952560Y-122875000D01*
X131953199Y-122878397D01*
X131212401Y-122137599D01*
X130965839Y-121972852D01*
X130675000Y-121915000D01*
X130047440Y-121915000D01*
X130047440Y-121825000D01*
X130003162Y-121589683D01*
X129864090Y-121373559D01*
X129651890Y-121228569D01*
X129610000Y-121220086D01*
X129610000Y-119785750D01*
X130715000Y-119785750D01*
X130715000Y-120001310D01*
X130811673Y-120234699D01*
X130990302Y-120413327D01*
X131223691Y-120510000D01*
X131464250Y-120510000D01*
X131623000Y-120351250D01*
X131623000Y-119627000D01*
X130873750Y-119627000D01*
X130715000Y-119785750D01*
X129610000Y-119785750D01*
X129610000Y-118998690D01*
X130715000Y-118998690D01*
X130715000Y-119214250D01*
X130873750Y-119373000D01*
X131623000Y-119373000D01*
X131623000Y-118648750D01*
X131464250Y-118490000D01*
X131223691Y-118490000D01*
X130990302Y-118586673D01*
X130811673Y-118765301D01*
X130715000Y-118998690D01*
X129610000Y-118998690D01*
X129610000Y-118850000D01*
X129552148Y-118559161D01*
X129497440Y-118477284D01*
X129497440Y-117150000D01*
X129453162Y-116914683D01*
X129314090Y-116698559D01*
X129101890Y-116553569D01*
X128850000Y-116502560D01*
X127150000Y-116502560D01*
X126914683Y-116546838D01*
X126698559Y-116685910D01*
X126553569Y-116898110D01*
X126502560Y-117150000D01*
X126502560Y-118850000D01*
X126546838Y-119085317D01*
X126685910Y-119301441D01*
X126898110Y-119446431D01*
X127150000Y-119497440D01*
X128090000Y-119497440D01*
X128090000Y-121217074D01*
X128064683Y-121221838D01*
X127848559Y-121360910D01*
X127703569Y-121573110D01*
X127652560Y-121825000D01*
X127652560Y-122225000D01*
X127676944Y-122354589D01*
X127652560Y-122475000D01*
X127652560Y-122565000D01*
X124175000Y-122565000D01*
X123884161Y-122622852D01*
X123637599Y-122787599D01*
X122962599Y-123462599D01*
X122797852Y-123709161D01*
X122740000Y-124000000D01*
X122740000Y-124162721D01*
X122548559Y-124285910D01*
X122403569Y-124498110D01*
X122352560Y-124750000D01*
X122352560Y-127250000D01*
X122396838Y-127485317D01*
X122535910Y-127701441D01*
X122740000Y-127840890D01*
X122740000Y-129185198D01*
X122422638Y-129502560D01*
X121150000Y-129502560D01*
X120914683Y-129546838D01*
X120698559Y-129685910D01*
X120553569Y-129898110D01*
X120502560Y-130150000D01*
X120502560Y-131850000D01*
X120546838Y-132085317D01*
X120685910Y-132301441D01*
X120898110Y-132446431D01*
X121150000Y-132497440D01*
X122850000Y-132497440D01*
X123085317Y-132453162D01*
X123301441Y-132314090D01*
X123446431Y-132101890D01*
X123497440Y-131850000D01*
X123497440Y-130933750D01*
X124515000Y-130933750D01*
X124515000Y-131026309D01*
X124611673Y-131259698D01*
X124790301Y-131438327D01*
X125023690Y-131535000D01*
X125314250Y-131535000D01*
X125473000Y-131376250D01*
X125473000Y-130775000D01*
X124673750Y-130775000D01*
X124515000Y-130933750D01*
X123497440Y-130933750D01*
X123497440Y-130577362D01*
X124037401Y-130037401D01*
X124202148Y-129790840D01*
X124208282Y-129760000D01*
X124627069Y-129760000D01*
X124685910Y-129851441D01*
X124754006Y-129897969D01*
X124611673Y-130040302D01*
X124515000Y-130273691D01*
X124515000Y-130366250D01*
X124673750Y-130525000D01*
X125473000Y-130525000D01*
X125473000Y-130503000D01*
X125727000Y-130503000D01*
X125727000Y-130525000D01*
X125747000Y-130525000D01*
X125747000Y-130775000D01*
X125727000Y-130775000D01*
X125727000Y-131376250D01*
X125885750Y-131535000D01*
X126176310Y-131535000D01*
X126409699Y-131438327D01*
X126515000Y-131333025D01*
X126515000Y-135315000D01*
X119566579Y-135315000D01*
X118547440Y-134295860D01*
X118547440Y-132750000D01*
X118503162Y-132514683D01*
X118364090Y-132298559D01*
X118151890Y-132153569D01*
X117900000Y-132102560D01*
X116100000Y-132102560D01*
X115864683Y-132146838D01*
X115648559Y-132285910D01*
X115503569Y-132498110D01*
X115452560Y-132750000D01*
X115452560Y-135250000D01*
X115496838Y-135485317D01*
X115635910Y-135701441D01*
X115848110Y-135846431D01*
X116100000Y-135897440D01*
X117645861Y-135897440D01*
X118574208Y-136825787D01*
X118574210Y-136825790D01*
X118861325Y-137017633D01*
X118917516Y-137028810D01*
X119200000Y-137085001D01*
X119200005Y-137085000D01*
X142699995Y-137085000D01*
X142700000Y-137085001D01*
X142982484Y-137028810D01*
X143038675Y-137017633D01*
X143325790Y-136825790D01*
X144225787Y-135925792D01*
X144225790Y-135925790D01*
X144417633Y-135638675D01*
X144430456Y-135574210D01*
X144485001Y-135300000D01*
X144485000Y-135299995D01*
X144485000Y-128066580D01*
X145147560Y-127404020D01*
X145147560Y-128475000D01*
X145191838Y-128710317D01*
X145330910Y-128926441D01*
X145543110Y-129071431D01*
X145795000Y-129122440D01*
X146395000Y-129122440D01*
X146630317Y-129078162D01*
X146729528Y-129014322D01*
X146813110Y-129071431D01*
X147065000Y-129122440D01*
X147665000Y-129122440D01*
X147765000Y-129103624D01*
X147765000Y-129710025D01*
X147653569Y-129873110D01*
X147602560Y-130125000D01*
X147602560Y-130875000D01*
X147646838Y-131110317D01*
X147765000Y-131293946D01*
X147765000Y-138883421D01*
X147333420Y-139315000D01*
X106366579Y-139315000D01*
X105985000Y-138933420D01*
X105985000Y-130797175D01*
X108882430Y-130797175D01*
X109005565Y-131084788D01*
X109687734Y-131344707D01*
X110417443Y-131323786D01*
X110994435Y-131084788D01*
X111117570Y-130797175D01*
X110000000Y-129679605D01*
X108882430Y-130797175D01*
X105985000Y-130797175D01*
X105985000Y-129187734D01*
X108155293Y-129187734D01*
X108176214Y-129917443D01*
X108415212Y-130494435D01*
X108702825Y-130617570D01*
X109820395Y-129500000D01*
X110179605Y-129500000D01*
X111297175Y-130617570D01*
X111584788Y-130494435D01*
X111844707Y-129812266D01*
X111823786Y-129082557D01*
X111584788Y-128505565D01*
X111297175Y-128382430D01*
X110179605Y-129500000D01*
X109820395Y-129500000D01*
X108702825Y-128382430D01*
X108415212Y-128505565D01*
X108155293Y-129187734D01*
X105985000Y-129187734D01*
X105985000Y-124800000D01*
X108152560Y-124800000D01*
X108152560Y-127200000D01*
X108196838Y-127435317D01*
X108335910Y-127651441D01*
X108548110Y-127796431D01*
X108800000Y-127847440D01*
X109169181Y-127847440D01*
X109005565Y-127915212D01*
X108882430Y-128202825D01*
X110000000Y-129320395D01*
X111117570Y-128202825D01*
X110994435Y-127915212D01*
X110816564Y-127847440D01*
X111200000Y-127847440D01*
X111435317Y-127803162D01*
X111651441Y-127664090D01*
X111796431Y-127451890D01*
X111847440Y-127200000D01*
X111847440Y-126760000D01*
X115452560Y-126760000D01*
X115452560Y-127250000D01*
X115496838Y-127485317D01*
X115635910Y-127701441D01*
X115848110Y-127846431D01*
X116100000Y-127897440D01*
X116240000Y-127897440D01*
X116240000Y-128102560D01*
X116100000Y-128102560D01*
X115864683Y-128146838D01*
X115648559Y-128285910D01*
X115503569Y-128498110D01*
X115452560Y-128750000D01*
X115452560Y-131250000D01*
X115496838Y-131485317D01*
X115635910Y-131701441D01*
X115848110Y-131846431D01*
X116100000Y-131897440D01*
X117900000Y-131897440D01*
X118135317Y-131853162D01*
X118351441Y-131714090D01*
X118496431Y-131501890D01*
X118547440Y-131250000D01*
X118547440Y-128750000D01*
X118503162Y-128514683D01*
X118364090Y-128298559D01*
X118151890Y-128153569D01*
X117900000Y-128102560D01*
X117760000Y-128102560D01*
X117760000Y-127897440D01*
X117900000Y-127897440D01*
X118135317Y-127853162D01*
X118351441Y-127714090D01*
X118496431Y-127501890D01*
X118547440Y-127250000D01*
X118547440Y-126760000D01*
X119352560Y-126760000D01*
X119352560Y-127250000D01*
X119396838Y-127485317D01*
X119535910Y-127701441D01*
X119748110Y-127846431D01*
X120000000Y-127897440D01*
X121000000Y-127897440D01*
X121235317Y-127853162D01*
X121451441Y-127714090D01*
X121596431Y-127501890D01*
X121647440Y-127250000D01*
X121647440Y-124750000D01*
X121603162Y-124514683D01*
X121464090Y-124298559D01*
X121260000Y-124159110D01*
X121260000Y-121814802D01*
X121577362Y-121497440D01*
X122850000Y-121497440D01*
X123085317Y-121453162D01*
X123301441Y-121314090D01*
X123446431Y-121101890D01*
X123497440Y-120850000D01*
X123497440Y-119150000D01*
X123453162Y-118914683D01*
X123314090Y-118698559D01*
X123101890Y-118553569D01*
X122850000Y-118502560D01*
X121150000Y-118502560D01*
X120914683Y-118546838D01*
X120698559Y-118685910D01*
X120553569Y-118898110D01*
X120502560Y-119150000D01*
X120502560Y-120422638D01*
X119962599Y-120962599D01*
X119797852Y-121209161D01*
X119740000Y-121500000D01*
X119740000Y-124162721D01*
X119548559Y-124285910D01*
X119403569Y-124498110D01*
X119352560Y-124750000D01*
X119352560Y-125240000D01*
X118547440Y-125240000D01*
X118547440Y-124750000D01*
X118503162Y-124514683D01*
X118364090Y-124298559D01*
X118151890Y-124153569D01*
X117900000Y-124102560D01*
X116100000Y-124102560D01*
X115864683Y-124146838D01*
X115648559Y-124285910D01*
X115503569Y-124498110D01*
X115452560Y-124750000D01*
X115452560Y-125240000D01*
X111847440Y-125240000D01*
X111847440Y-124800000D01*
X111803162Y-124564683D01*
X111664090Y-124348559D01*
X111451890Y-124203569D01*
X111200000Y-124152560D01*
X108800000Y-124152560D01*
X108564683Y-124196838D01*
X108348559Y-124335910D01*
X108203569Y-124548110D01*
X108152560Y-124800000D01*
X105985000Y-124800000D01*
X105985000Y-115785000D01*
X116115000Y-115785000D01*
X116115000Y-120102560D01*
X116115000Y-120102560D01*
G37*
X116115000Y-120102560D02*
X116100000Y-120102560D01*
X115864683Y-120146838D01*
X115648559Y-120285910D01*
X115503569Y-120498110D01*
X115452560Y-120750000D01*
X115452560Y-123250000D01*
X115496838Y-123485317D01*
X115635910Y-123701441D01*
X115848110Y-123846431D01*
X116100000Y-123897440D01*
X117900000Y-123897440D01*
X118135317Y-123853162D01*
X118351441Y-123714090D01*
X118496431Y-123501890D01*
X118547440Y-123250000D01*
X118547440Y-120750000D01*
X118503162Y-120514683D01*
X118364090Y-120298559D01*
X118151890Y-120153569D01*
X117900000Y-120102560D01*
X117885000Y-120102560D01*
X117885000Y-115785000D01*
X132333420Y-115785000D01*
X132365000Y-115816579D01*
X132365000Y-118526737D01*
X132276309Y-118490000D01*
X132035750Y-118490000D01*
X131877000Y-118648750D01*
X131877000Y-119373000D01*
X131897000Y-119373000D01*
X131897000Y-119627000D01*
X131877000Y-119627000D01*
X131877000Y-120351250D01*
X132035750Y-120510000D01*
X132276309Y-120510000D01*
X132490000Y-120421486D01*
X132490000Y-121198258D01*
X132364683Y-121221838D01*
X132148559Y-121360910D01*
X132003569Y-121573110D01*
X131952560Y-121825000D01*
X131952560Y-122225000D01*
X131976944Y-122354589D01*
X131952560Y-122475000D01*
X131952560Y-122875000D01*
X131953199Y-122878397D01*
X131212401Y-122137599D01*
X130965839Y-121972852D01*
X130675000Y-121915000D01*
X130047440Y-121915000D01*
X130047440Y-121825000D01*
X130003162Y-121589683D01*
X129864090Y-121373559D01*
X129651890Y-121228569D01*
X129610000Y-121220086D01*
X129610000Y-119785750D01*
X130715000Y-119785750D01*
X130715000Y-120001310D01*
X130811673Y-120234699D01*
X130990302Y-120413327D01*
X131223691Y-120510000D01*
X131464250Y-120510000D01*
X131623000Y-120351250D01*
X131623000Y-119627000D01*
X130873750Y-119627000D01*
X130715000Y-119785750D01*
X129610000Y-119785750D01*
X129610000Y-118998690D01*
X130715000Y-118998690D01*
X130715000Y-119214250D01*
X130873750Y-119373000D01*
X131623000Y-119373000D01*
X131623000Y-118648750D01*
X131464250Y-118490000D01*
X131223691Y-118490000D01*
X130990302Y-118586673D01*
X130811673Y-118765301D01*
X130715000Y-118998690D01*
X129610000Y-118998690D01*
X129610000Y-118850000D01*
X129552148Y-118559161D01*
X129497440Y-118477284D01*
X129497440Y-117150000D01*
X129453162Y-116914683D01*
X129314090Y-116698559D01*
X129101890Y-116553569D01*
X128850000Y-116502560D01*
X127150000Y-116502560D01*
X126914683Y-116546838D01*
X126698559Y-116685910D01*
X126553569Y-116898110D01*
X126502560Y-117150000D01*
X126502560Y-118850000D01*
X126546838Y-119085317D01*
X126685910Y-119301441D01*
X126898110Y-119446431D01*
X127150000Y-119497440D01*
X128090000Y-119497440D01*
X128090000Y-121217074D01*
X128064683Y-121221838D01*
X127848559Y-121360910D01*
X127703569Y-121573110D01*
X127652560Y-121825000D01*
X127652560Y-122225000D01*
X127676944Y-122354589D01*
X127652560Y-122475000D01*
X127652560Y-122565000D01*
X124175000Y-122565000D01*
X123884161Y-122622852D01*
X123637599Y-122787599D01*
X122962599Y-123462599D01*
X122797852Y-123709161D01*
X122740000Y-124000000D01*
X122740000Y-124162721D01*
X122548559Y-124285910D01*
X122403569Y-124498110D01*
X122352560Y-124750000D01*
X122352560Y-127250000D01*
X122396838Y-127485317D01*
X122535910Y-127701441D01*
X122740000Y-127840890D01*
X122740000Y-129185198D01*
X122422638Y-129502560D01*
X121150000Y-129502560D01*
X120914683Y-129546838D01*
X120698559Y-129685910D01*
X120553569Y-129898110D01*
X120502560Y-130150000D01*
X120502560Y-131850000D01*
X120546838Y-132085317D01*
X120685910Y-132301441D01*
X120898110Y-132446431D01*
X121150000Y-132497440D01*
X122850000Y-132497440D01*
X123085317Y-132453162D01*
X123301441Y-132314090D01*
X123446431Y-132101890D01*
X123497440Y-131850000D01*
X123497440Y-130933750D01*
X124515000Y-130933750D01*
X124515000Y-131026309D01*
X124611673Y-131259698D01*
X124790301Y-131438327D01*
X125023690Y-131535000D01*
X125314250Y-131535000D01*
X125473000Y-131376250D01*
X125473000Y-130775000D01*
X124673750Y-130775000D01*
X124515000Y-130933750D01*
X123497440Y-130933750D01*
X123497440Y-130577362D01*
X124037401Y-130037401D01*
X124202148Y-129790840D01*
X124208282Y-129760000D01*
X124627069Y-129760000D01*
X124685910Y-129851441D01*
X124754006Y-129897969D01*
X124611673Y-130040302D01*
X124515000Y-130273691D01*
X124515000Y-130366250D01*
X124673750Y-130525000D01*
X125473000Y-130525000D01*
X125473000Y-130503000D01*
X125727000Y-130503000D01*
X125727000Y-130525000D01*
X125747000Y-130525000D01*
X125747000Y-130775000D01*
X125727000Y-130775000D01*
X125727000Y-131376250D01*
X125885750Y-131535000D01*
X126176310Y-131535000D01*
X126409699Y-131438327D01*
X126515000Y-131333025D01*
X126515000Y-135315000D01*
X119566579Y-135315000D01*
X118547440Y-134295860D01*
X118547440Y-132750000D01*
X118503162Y-132514683D01*
X118364090Y-132298559D01*
X118151890Y-132153569D01*
X117900000Y-132102560D01*
X116100000Y-132102560D01*
X115864683Y-132146838D01*
X115648559Y-132285910D01*
X115503569Y-132498110D01*
X115452560Y-132750000D01*
X115452560Y-135250000D01*
X115496838Y-135485317D01*
X115635910Y-135701441D01*
X115848110Y-135846431D01*
X116100000Y-135897440D01*
X117645861Y-135897440D01*
X118574208Y-136825787D01*
X118574210Y-136825790D01*
X118861325Y-137017633D01*
X118917516Y-137028810D01*
X119200000Y-137085001D01*
X119200005Y-137085000D01*
X142699995Y-137085000D01*
X142700000Y-137085001D01*
X142982484Y-137028810D01*
X143038675Y-137017633D01*
X143325790Y-136825790D01*
X144225787Y-135925792D01*
X144225790Y-135925790D01*
X144417633Y-135638675D01*
X144430456Y-135574210D01*
X144485001Y-135300000D01*
X144485000Y-135299995D01*
X144485000Y-128066580D01*
X145147560Y-127404020D01*
X145147560Y-128475000D01*
X145191838Y-128710317D01*
X145330910Y-128926441D01*
X145543110Y-129071431D01*
X145795000Y-129122440D01*
X146395000Y-129122440D01*
X146630317Y-129078162D01*
X146729528Y-129014322D01*
X146813110Y-129071431D01*
X147065000Y-129122440D01*
X147665000Y-129122440D01*
X147765000Y-129103624D01*
X147765000Y-129710025D01*
X147653569Y-129873110D01*
X147602560Y-130125000D01*
X147602560Y-130875000D01*
X147646838Y-131110317D01*
X147765000Y-131293946D01*
X147765000Y-138883421D01*
X147333420Y-139315000D01*
X106366579Y-139315000D01*
X105985000Y-138933420D01*
X105985000Y-130797175D01*
X108882430Y-130797175D01*
X109005565Y-131084788D01*
X109687734Y-131344707D01*
X110417443Y-131323786D01*
X110994435Y-131084788D01*
X111117570Y-130797175D01*
X110000000Y-129679605D01*
X108882430Y-130797175D01*
X105985000Y-130797175D01*
X105985000Y-129187734D01*
X108155293Y-129187734D01*
X108176214Y-129917443D01*
X108415212Y-130494435D01*
X108702825Y-130617570D01*
X109820395Y-129500000D01*
X110179605Y-129500000D01*
X111297175Y-130617570D01*
X111584788Y-130494435D01*
X111844707Y-129812266D01*
X111823786Y-129082557D01*
X111584788Y-128505565D01*
X111297175Y-128382430D01*
X110179605Y-129500000D01*
X109820395Y-129500000D01*
X108702825Y-128382430D01*
X108415212Y-128505565D01*
X108155293Y-129187734D01*
X105985000Y-129187734D01*
X105985000Y-124800000D01*
X108152560Y-124800000D01*
X108152560Y-127200000D01*
X108196838Y-127435317D01*
X108335910Y-127651441D01*
X108548110Y-127796431D01*
X108800000Y-127847440D01*
X109169181Y-127847440D01*
X109005565Y-127915212D01*
X108882430Y-128202825D01*
X110000000Y-129320395D01*
X111117570Y-128202825D01*
X110994435Y-127915212D01*
X110816564Y-127847440D01*
X111200000Y-127847440D01*
X111435317Y-127803162D01*
X111651441Y-127664090D01*
X111796431Y-127451890D01*
X111847440Y-127200000D01*
X111847440Y-126760000D01*
X115452560Y-126760000D01*
X115452560Y-127250000D01*
X115496838Y-127485317D01*
X115635910Y-127701441D01*
X115848110Y-127846431D01*
X116100000Y-127897440D01*
X116240000Y-127897440D01*
X116240000Y-128102560D01*
X116100000Y-128102560D01*
X115864683Y-128146838D01*
X115648559Y-128285910D01*
X115503569Y-128498110D01*
X115452560Y-128750000D01*
X115452560Y-131250000D01*
X115496838Y-131485317D01*
X115635910Y-131701441D01*
X115848110Y-131846431D01*
X116100000Y-131897440D01*
X117900000Y-131897440D01*
X118135317Y-131853162D01*
X118351441Y-131714090D01*
X118496431Y-131501890D01*
X118547440Y-131250000D01*
X118547440Y-128750000D01*
X118503162Y-128514683D01*
X118364090Y-128298559D01*
X118151890Y-128153569D01*
X117900000Y-128102560D01*
X117760000Y-128102560D01*
X117760000Y-127897440D01*
X117900000Y-127897440D01*
X118135317Y-127853162D01*
X118351441Y-127714090D01*
X118496431Y-127501890D01*
X118547440Y-127250000D01*
X118547440Y-126760000D01*
X119352560Y-126760000D01*
X119352560Y-127250000D01*
X119396838Y-127485317D01*
X119535910Y-127701441D01*
X119748110Y-127846431D01*
X120000000Y-127897440D01*
X121000000Y-127897440D01*
X121235317Y-127853162D01*
X121451441Y-127714090D01*
X121596431Y-127501890D01*
X121647440Y-127250000D01*
X121647440Y-124750000D01*
X121603162Y-124514683D01*
X121464090Y-124298559D01*
X121260000Y-124159110D01*
X121260000Y-121814802D01*
X121577362Y-121497440D01*
X122850000Y-121497440D01*
X123085317Y-121453162D01*
X123301441Y-121314090D01*
X123446431Y-121101890D01*
X123497440Y-120850000D01*
X123497440Y-119150000D01*
X123453162Y-118914683D01*
X123314090Y-118698559D01*
X123101890Y-118553569D01*
X122850000Y-118502560D01*
X121150000Y-118502560D01*
X120914683Y-118546838D01*
X120698559Y-118685910D01*
X120553569Y-118898110D01*
X120502560Y-119150000D01*
X120502560Y-120422638D01*
X119962599Y-120962599D01*
X119797852Y-121209161D01*
X119740000Y-121500000D01*
X119740000Y-124162721D01*
X119548559Y-124285910D01*
X119403569Y-124498110D01*
X119352560Y-124750000D01*
X119352560Y-125240000D01*
X118547440Y-125240000D01*
X118547440Y-124750000D01*
X118503162Y-124514683D01*
X118364090Y-124298559D01*
X118151890Y-124153569D01*
X117900000Y-124102560D01*
X116100000Y-124102560D01*
X115864683Y-124146838D01*
X115648559Y-124285910D01*
X115503569Y-124498110D01*
X115452560Y-124750000D01*
X115452560Y-125240000D01*
X111847440Y-125240000D01*
X111847440Y-124800000D01*
X111803162Y-124564683D01*
X111664090Y-124348559D01*
X111451890Y-124203569D01*
X111200000Y-124152560D01*
X108800000Y-124152560D01*
X108564683Y-124196838D01*
X108348559Y-124335910D01*
X108203569Y-124548110D01*
X108152560Y-124800000D01*
X105985000Y-124800000D01*
X105985000Y-115785000D01*
X116115000Y-115785000D01*
X116115000Y-120102560D01*
G36*
X142974210Y-127074210D02*
X142782367Y-127361325D01*
X142782367Y-127361326D01*
X142714999Y-127700000D01*
X142715000Y-127700005D01*
X142715000Y-134933421D01*
X142333420Y-135315000D01*
X128285000Y-135315000D01*
X128285000Y-134059802D01*
X128762599Y-134537401D01*
X129009160Y-134702148D01*
X129300000Y-134760000D01*
X132250000Y-134760000D01*
X132540839Y-134702148D01*
X132787401Y-134537401D01*
X133677362Y-133647440D01*
X133950000Y-133647440D01*
X134185317Y-133603162D01*
X134401441Y-133464090D01*
X134546431Y-133251890D01*
X134597440Y-133000000D01*
X134597440Y-132500000D01*
X134553162Y-132264683D01*
X134414090Y-132048559D01*
X134357657Y-132010000D01*
X135935198Y-132010000D01*
X136002560Y-132077362D01*
X136002560Y-133350000D01*
X136046838Y-133585317D01*
X136185910Y-133801441D01*
X136398110Y-133946431D01*
X136650000Y-133997440D01*
X138350000Y-133997440D01*
X138585317Y-133953162D01*
X138801441Y-133814090D01*
X138946431Y-133601890D01*
X138997440Y-133350000D01*
X138997440Y-133260000D01*
X140300000Y-133260000D01*
X140590839Y-133202148D01*
X140837401Y-133037401D01*
X141937401Y-131937401D01*
X142102148Y-131690839D01*
X142160000Y-131400000D01*
X142160000Y-124460000D01*
X145588421Y-124460000D01*
X142974210Y-127074210D01*
X142974210Y-127074210D01*
G37*
X142974210Y-127074210D02*
X142782367Y-127361325D01*
X142782367Y-127361326D01*
X142714999Y-127700000D01*
X142715000Y-127700005D01*
X142715000Y-134933421D01*
X142333420Y-135315000D01*
X128285000Y-135315000D01*
X128285000Y-134059802D01*
X128762599Y-134537401D01*
X129009160Y-134702148D01*
X129300000Y-134760000D01*
X132250000Y-134760000D01*
X132540839Y-134702148D01*
X132787401Y-134537401D01*
X133677362Y-133647440D01*
X133950000Y-133647440D01*
X134185317Y-133603162D01*
X134401441Y-133464090D01*
X134546431Y-133251890D01*
X134597440Y-133000000D01*
X134597440Y-132500000D01*
X134553162Y-132264683D01*
X134414090Y-132048559D01*
X134357657Y-132010000D01*
X135935198Y-132010000D01*
X136002560Y-132077362D01*
X136002560Y-133350000D01*
X136046838Y-133585317D01*
X136185910Y-133801441D01*
X136398110Y-133946431D01*
X136650000Y-133997440D01*
X138350000Y-133997440D01*
X138585317Y-133953162D01*
X138801441Y-133814090D01*
X138946431Y-133601890D01*
X138997440Y-133350000D01*
X138997440Y-133260000D01*
X140300000Y-133260000D01*
X140590839Y-133202148D01*
X140837401Y-133037401D01*
X141937401Y-131937401D01*
X142102148Y-131690839D01*
X142160000Y-131400000D01*
X142160000Y-124460000D01*
X145588421Y-124460000D01*
X142974210Y-127074210D01*
G36*
X140640000Y-121964802D02*
X140640000Y-131085198D01*
X139985198Y-131740000D01*
X138997440Y-131740000D01*
X138997440Y-131650000D01*
X138953162Y-131414683D01*
X138814090Y-131198559D01*
X138601890Y-131053569D01*
X138350000Y-131002560D01*
X137077362Y-131002560D01*
X136787401Y-130712599D01*
X136540839Y-130547852D01*
X136250000Y-130490000D01*
X134328386Y-130490000D01*
X134201890Y-130403569D01*
X133950000Y-130352560D01*
X133050000Y-130352560D01*
X132814683Y-130396838D01*
X132669905Y-130490000D01*
X131500000Y-130490000D01*
X131231367Y-130543435D01*
X132226975Y-129547827D01*
X132298110Y-129596431D01*
X132550000Y-129647440D01*
X133450000Y-129647440D01*
X133685317Y-129603162D01*
X133830095Y-129510000D01*
X135171614Y-129510000D01*
X135298110Y-129596431D01*
X135550000Y-129647440D01*
X136450000Y-129647440D01*
X136685317Y-129603162D01*
X136901441Y-129464090D01*
X137046431Y-129251890D01*
X137090200Y-129035750D01*
X137990000Y-129035750D01*
X137990000Y-129276309D01*
X138086673Y-129509698D01*
X138265301Y-129688327D01*
X138498690Y-129785000D01*
X138714250Y-129785000D01*
X138873000Y-129626250D01*
X138873000Y-128877000D01*
X139127000Y-128877000D01*
X139127000Y-129626250D01*
X139285750Y-129785000D01*
X139501310Y-129785000D01*
X139734699Y-129688327D01*
X139913327Y-129509698D01*
X140010000Y-129276309D01*
X140010000Y-129035750D01*
X139851250Y-128877000D01*
X139127000Y-128877000D01*
X138873000Y-128877000D01*
X138148750Y-128877000D01*
X137990000Y-129035750D01*
X137090200Y-129035750D01*
X137097440Y-129000000D01*
X137097440Y-128500000D01*
X137053162Y-128264683D01*
X136914090Y-128048559D01*
X136857657Y-128010000D01*
X138078514Y-128010000D01*
X137990000Y-128223691D01*
X137990000Y-128464250D01*
X138148750Y-128623000D01*
X138873000Y-128623000D01*
X138873000Y-128603000D01*
X139127000Y-128603000D01*
X139127000Y-128623000D01*
X139851250Y-128623000D01*
X140010000Y-128464250D01*
X140010000Y-128223691D01*
X139913327Y-127990302D01*
X139911957Y-127988932D01*
X139971431Y-127901890D01*
X140022440Y-127650000D01*
X140022440Y-126850000D01*
X139978162Y-126614683D01*
X139839090Y-126398559D01*
X139626890Y-126253569D01*
X139375000Y-126202560D01*
X138625000Y-126202560D01*
X138389683Y-126246838D01*
X138173559Y-126385910D01*
X138102437Y-126490000D01*
X136828386Y-126490000D01*
X136760000Y-126443274D01*
X136760000Y-126000000D01*
X136702148Y-125709161D01*
X136702148Y-125709160D01*
X136537401Y-125462599D01*
X136108552Y-125033750D01*
X137915000Y-125033750D01*
X137915000Y-125126309D01*
X138011673Y-125359698D01*
X138190301Y-125538327D01*
X138423690Y-125635000D01*
X138714250Y-125635000D01*
X138873000Y-125476250D01*
X138873000Y-124875000D01*
X139127000Y-124875000D01*
X139127000Y-125476250D01*
X139285750Y-125635000D01*
X139576310Y-125635000D01*
X139809699Y-125538327D01*
X139988327Y-125359698D01*
X140085000Y-125126309D01*
X140085000Y-125033750D01*
X139926250Y-124875000D01*
X139127000Y-124875000D01*
X138873000Y-124875000D01*
X138073750Y-124875000D01*
X137915000Y-125033750D01*
X136108552Y-125033750D01*
X135159802Y-124085000D01*
X138066975Y-124085000D01*
X138011673Y-124140302D01*
X137915000Y-124373691D01*
X137915000Y-124466250D01*
X138073750Y-124625000D01*
X138873000Y-124625000D01*
X138873000Y-124603000D01*
X139127000Y-124603000D01*
X139127000Y-124625000D01*
X139926250Y-124625000D01*
X140085000Y-124466250D01*
X140085000Y-124373691D01*
X139988327Y-124140302D01*
X139847090Y-123999064D01*
X139901441Y-123964090D01*
X140046431Y-123751890D01*
X140097440Y-123500000D01*
X140097440Y-123000000D01*
X140053162Y-122764683D01*
X139914090Y-122548559D01*
X139760000Y-122443274D01*
X139760000Y-121555105D01*
X139901441Y-121464090D01*
X139997987Y-121322789D01*
X140640000Y-121964802D01*
X140640000Y-121964802D01*
G37*
X140640000Y-121964802D02*
X140640000Y-131085198D01*
X139985198Y-131740000D01*
X138997440Y-131740000D01*
X138997440Y-131650000D01*
X138953162Y-131414683D01*
X138814090Y-131198559D01*
X138601890Y-131053569D01*
X138350000Y-131002560D01*
X137077362Y-131002560D01*
X136787401Y-130712599D01*
X136540839Y-130547852D01*
X136250000Y-130490000D01*
X134328386Y-130490000D01*
X134201890Y-130403569D01*
X133950000Y-130352560D01*
X133050000Y-130352560D01*
X132814683Y-130396838D01*
X132669905Y-130490000D01*
X131500000Y-130490000D01*
X131231367Y-130543435D01*
X132226975Y-129547827D01*
X132298110Y-129596431D01*
X132550000Y-129647440D01*
X133450000Y-129647440D01*
X133685317Y-129603162D01*
X133830095Y-129510000D01*
X135171614Y-129510000D01*
X135298110Y-129596431D01*
X135550000Y-129647440D01*
X136450000Y-129647440D01*
X136685317Y-129603162D01*
X136901441Y-129464090D01*
X137046431Y-129251890D01*
X137090200Y-129035750D01*
X137990000Y-129035750D01*
X137990000Y-129276309D01*
X138086673Y-129509698D01*
X138265301Y-129688327D01*
X138498690Y-129785000D01*
X138714250Y-129785000D01*
X138873000Y-129626250D01*
X138873000Y-128877000D01*
X139127000Y-128877000D01*
X139127000Y-129626250D01*
X139285750Y-129785000D01*
X139501310Y-129785000D01*
X139734699Y-129688327D01*
X139913327Y-129509698D01*
X140010000Y-129276309D01*
X140010000Y-129035750D01*
X139851250Y-128877000D01*
X139127000Y-128877000D01*
X138873000Y-128877000D01*
X138148750Y-128877000D01*
X137990000Y-129035750D01*
X137090200Y-129035750D01*
X137097440Y-129000000D01*
X137097440Y-128500000D01*
X137053162Y-128264683D01*
X136914090Y-128048559D01*
X136857657Y-128010000D01*
X138078514Y-128010000D01*
X137990000Y-128223691D01*
X137990000Y-128464250D01*
X138148750Y-128623000D01*
X138873000Y-128623000D01*
X138873000Y-128603000D01*
X139127000Y-128603000D01*
X139127000Y-128623000D01*
X139851250Y-128623000D01*
X140010000Y-128464250D01*
X140010000Y-128223691D01*
X139913327Y-127990302D01*
X139911957Y-127988932D01*
X139971431Y-127901890D01*
X140022440Y-127650000D01*
X140022440Y-126850000D01*
X139978162Y-126614683D01*
X139839090Y-126398559D01*
X139626890Y-126253569D01*
X139375000Y-126202560D01*
X138625000Y-126202560D01*
X138389683Y-126246838D01*
X138173559Y-126385910D01*
X138102437Y-126490000D01*
X136828386Y-126490000D01*
X136760000Y-126443274D01*
X136760000Y-126000000D01*
X136702148Y-125709161D01*
X136702148Y-125709160D01*
X136537401Y-125462599D01*
X136108552Y-125033750D01*
X137915000Y-125033750D01*
X137915000Y-125126309D01*
X138011673Y-125359698D01*
X138190301Y-125538327D01*
X138423690Y-125635000D01*
X138714250Y-125635000D01*
X138873000Y-125476250D01*
X138873000Y-124875000D01*
X139127000Y-124875000D01*
X139127000Y-125476250D01*
X139285750Y-125635000D01*
X139576310Y-125635000D01*
X139809699Y-125538327D01*
X139988327Y-125359698D01*
X140085000Y-125126309D01*
X140085000Y-125033750D01*
X139926250Y-124875000D01*
X139127000Y-124875000D01*
X138873000Y-124875000D01*
X138073750Y-124875000D01*
X137915000Y-125033750D01*
X136108552Y-125033750D01*
X135159802Y-124085000D01*
X138066975Y-124085000D01*
X138011673Y-124140302D01*
X137915000Y-124373691D01*
X137915000Y-124466250D01*
X138073750Y-124625000D01*
X138873000Y-124625000D01*
X138873000Y-124603000D01*
X139127000Y-124603000D01*
X139127000Y-124625000D01*
X139926250Y-124625000D01*
X140085000Y-124466250D01*
X140085000Y-124373691D01*
X139988327Y-124140302D01*
X139847090Y-123999064D01*
X139901441Y-123964090D01*
X140046431Y-123751890D01*
X140097440Y-123500000D01*
X140097440Y-123000000D01*
X140053162Y-122764683D01*
X139914090Y-122548559D01*
X139760000Y-122443274D01*
X139760000Y-121555105D01*
X139901441Y-121464090D01*
X139997987Y-121322789D01*
X140640000Y-121964802D01*
G36*
X127652560Y-124175000D02*
X127696838Y-124410317D01*
X127835910Y-124626441D01*
X127965000Y-124714644D01*
X127965000Y-125526737D01*
X127876309Y-125490000D01*
X127635750Y-125490000D01*
X127477000Y-125648750D01*
X127477000Y-126373000D01*
X127497000Y-126373000D01*
X127497000Y-126627000D01*
X127477000Y-126627000D01*
X127477000Y-127351250D01*
X127635750Y-127510000D01*
X127876309Y-127510000D01*
X127965000Y-127473263D01*
X127965000Y-127883421D01*
X126774210Y-129074210D01*
X126697440Y-129189105D01*
X126697440Y-128900000D01*
X126653162Y-128664683D01*
X126514090Y-128448559D01*
X126301890Y-128303569D01*
X126050000Y-128252560D01*
X125513143Y-128252560D01*
X125450000Y-128240000D01*
X124260000Y-128240000D01*
X124260000Y-127837279D01*
X124451441Y-127714090D01*
X124596431Y-127501890D01*
X124647440Y-127250000D01*
X124647440Y-126785750D01*
X126315000Y-126785750D01*
X126315000Y-127001310D01*
X126411673Y-127234699D01*
X126590302Y-127413327D01*
X126823691Y-127510000D01*
X127064250Y-127510000D01*
X127223000Y-127351250D01*
X127223000Y-126627000D01*
X126473750Y-126627000D01*
X126315000Y-126785750D01*
X124647440Y-126785750D01*
X124647440Y-125998690D01*
X126315000Y-125998690D01*
X126315000Y-126214250D01*
X126473750Y-126373000D01*
X127223000Y-126373000D01*
X127223000Y-125648750D01*
X127064250Y-125490000D01*
X126823691Y-125490000D01*
X126590302Y-125586673D01*
X126411673Y-125765301D01*
X126315000Y-125998690D01*
X124647440Y-125998690D01*
X124647440Y-124750000D01*
X124603162Y-124514683D01*
X124464090Y-124298559D01*
X124352494Y-124222308D01*
X124489802Y-124085000D01*
X127652560Y-124085000D01*
X127652560Y-124175000D01*
X127652560Y-124175000D01*
G37*
X127652560Y-124175000D02*
X127696838Y-124410317D01*
X127835910Y-124626441D01*
X127965000Y-124714644D01*
X127965000Y-125526737D01*
X127876309Y-125490000D01*
X127635750Y-125490000D01*
X127477000Y-125648750D01*
X127477000Y-126373000D01*
X127497000Y-126373000D01*
X127497000Y-126627000D01*
X127477000Y-126627000D01*
X127477000Y-127351250D01*
X127635750Y-127510000D01*
X127876309Y-127510000D01*
X127965000Y-127473263D01*
X127965000Y-127883421D01*
X126774210Y-129074210D01*
X126697440Y-129189105D01*
X126697440Y-128900000D01*
X126653162Y-128664683D01*
X126514090Y-128448559D01*
X126301890Y-128303569D01*
X126050000Y-128252560D01*
X125513143Y-128252560D01*
X125450000Y-128240000D01*
X124260000Y-128240000D01*
X124260000Y-127837279D01*
X124451441Y-127714090D01*
X124596431Y-127501890D01*
X124647440Y-127250000D01*
X124647440Y-126785750D01*
X126315000Y-126785750D01*
X126315000Y-127001310D01*
X126411673Y-127234699D01*
X126590302Y-127413327D01*
X126823691Y-127510000D01*
X127064250Y-127510000D01*
X127223000Y-127351250D01*
X127223000Y-126627000D01*
X126473750Y-126627000D01*
X126315000Y-126785750D01*
X124647440Y-126785750D01*
X124647440Y-125998690D01*
X126315000Y-125998690D01*
X126315000Y-126214250D01*
X126473750Y-126373000D01*
X127223000Y-126373000D01*
X127223000Y-125648750D01*
X127064250Y-125490000D01*
X126823691Y-125490000D01*
X126590302Y-125586673D01*
X126411673Y-125765301D01*
X126315000Y-125998690D01*
X124647440Y-125998690D01*
X124647440Y-124750000D01*
X124603162Y-124514683D01*
X124464090Y-124298559D01*
X124352494Y-124222308D01*
X124489802Y-124085000D01*
X127652560Y-124085000D01*
X127652560Y-124175000D01*
G36*
X132365000Y-88926737D02*
X132276309Y-88890000D01*
X132035750Y-88890000D01*
X131877000Y-89048750D01*
X131877000Y-89773000D01*
X131897000Y-89773000D01*
X131897000Y-90027000D01*
X131877000Y-90027000D01*
X131877000Y-90751250D01*
X132035750Y-90910000D01*
X132276309Y-90910000D01*
X132365000Y-90873263D01*
X132365000Y-92221778D01*
X132364683Y-92221838D01*
X132148559Y-92360910D01*
X132003569Y-92573110D01*
X131952560Y-92825000D01*
X131952560Y-93225000D01*
X131976944Y-93354589D01*
X131952560Y-93475000D01*
X131952560Y-93875000D01*
X131976944Y-94004589D01*
X131952560Y-94125000D01*
X131952560Y-94462597D01*
X131925190Y-94325000D01*
X131902148Y-94209160D01*
X131737401Y-93962599D01*
X130912401Y-93137599D01*
X130665839Y-92972852D01*
X130375000Y-92915000D01*
X130047440Y-92915000D01*
X130047440Y-92825000D01*
X130003162Y-92589683D01*
X129864090Y-92373559D01*
X129651890Y-92228569D01*
X129610000Y-92220086D01*
X129610000Y-90185750D01*
X130715000Y-90185750D01*
X130715000Y-90401310D01*
X130811673Y-90634699D01*
X130990302Y-90813327D01*
X131223691Y-90910000D01*
X131464250Y-90910000D01*
X131623000Y-90751250D01*
X131623000Y-90027000D01*
X130873750Y-90027000D01*
X130715000Y-90185750D01*
X129610000Y-90185750D01*
X129610000Y-89850000D01*
X129552148Y-89559161D01*
X129497440Y-89477284D01*
X129497440Y-89398690D01*
X130715000Y-89398690D01*
X130715000Y-89614250D01*
X130873750Y-89773000D01*
X131623000Y-89773000D01*
X131623000Y-89048750D01*
X131464250Y-88890000D01*
X131223691Y-88890000D01*
X130990302Y-88986673D01*
X130811673Y-89165301D01*
X130715000Y-89398690D01*
X129497440Y-89398690D01*
X129497440Y-88150000D01*
X129453162Y-87914683D01*
X129314090Y-87698559D01*
X129101890Y-87553569D01*
X128850000Y-87502560D01*
X127150000Y-87502560D01*
X126914683Y-87546838D01*
X126698559Y-87685910D01*
X126553569Y-87898110D01*
X126502560Y-88150000D01*
X126502560Y-89850000D01*
X126546838Y-90085317D01*
X126685910Y-90301441D01*
X126898110Y-90446431D01*
X127150000Y-90497440D01*
X128090000Y-90497440D01*
X128090000Y-92217074D01*
X128064683Y-92221838D01*
X127848559Y-92360910D01*
X127703569Y-92573110D01*
X127652560Y-92825000D01*
X127652560Y-93225000D01*
X127676944Y-93354589D01*
X127652560Y-93475000D01*
X127652560Y-93565000D01*
X124575000Y-93565000D01*
X124284161Y-93622852D01*
X124037599Y-93787599D01*
X122962599Y-94862599D01*
X122797852Y-95109161D01*
X122791356Y-95141819D01*
X122764683Y-95146838D01*
X122548559Y-95285910D01*
X122403569Y-95498110D01*
X122352560Y-95750000D01*
X122352560Y-98250000D01*
X122396838Y-98485317D01*
X122535910Y-98701441D01*
X122740000Y-98840890D01*
X122740000Y-100185198D01*
X122422638Y-100502560D01*
X121150000Y-100502560D01*
X120914683Y-100546838D01*
X120698559Y-100685910D01*
X120553569Y-100898110D01*
X120502560Y-101150000D01*
X120502560Y-102850000D01*
X120546838Y-103085317D01*
X120685910Y-103301441D01*
X120898110Y-103446431D01*
X121150000Y-103497440D01*
X122850000Y-103497440D01*
X123085317Y-103453162D01*
X123301441Y-103314090D01*
X123446431Y-103101890D01*
X123497440Y-102850000D01*
X123497440Y-102033750D01*
X124015000Y-102033750D01*
X124015000Y-102126309D01*
X124111673Y-102359698D01*
X124290301Y-102538327D01*
X124523690Y-102635000D01*
X124814250Y-102635000D01*
X124973000Y-102476250D01*
X124973000Y-101875000D01*
X124173750Y-101875000D01*
X124015000Y-102033750D01*
X123497440Y-102033750D01*
X123497440Y-101577362D01*
X124037401Y-101037401D01*
X124055710Y-101010000D01*
X124241974Y-101010000D01*
X124111673Y-101140302D01*
X124015000Y-101373691D01*
X124015000Y-101466250D01*
X124173750Y-101625000D01*
X124973000Y-101625000D01*
X124973000Y-101603000D01*
X125227000Y-101603000D01*
X125227000Y-101625000D01*
X125247000Y-101625000D01*
X125247000Y-101875000D01*
X125227000Y-101875000D01*
X125227000Y-102476250D01*
X125385750Y-102635000D01*
X125676310Y-102635000D01*
X125909699Y-102538327D01*
X126088327Y-102359698D01*
X126115000Y-102295304D01*
X126115000Y-106515000D01*
X119766579Y-106515000D01*
X118547440Y-105295860D01*
X118547440Y-103750000D01*
X118503162Y-103514683D01*
X118364090Y-103298559D01*
X118151890Y-103153569D01*
X117900000Y-103102560D01*
X116100000Y-103102560D01*
X115864683Y-103146838D01*
X115648559Y-103285910D01*
X115503569Y-103498110D01*
X115452560Y-103750000D01*
X115452560Y-106250000D01*
X115496838Y-106485317D01*
X115635910Y-106701441D01*
X115848110Y-106846431D01*
X116100000Y-106897440D01*
X117645861Y-106897440D01*
X118774208Y-108025787D01*
X118774210Y-108025790D01*
X118966054Y-108153975D01*
X119061326Y-108217634D01*
X119400000Y-108285001D01*
X119400005Y-108285000D01*
X150615000Y-108285000D01*
X150615000Y-116115000D01*
X146700000Y-116115000D01*
X146361325Y-116182367D01*
X146074210Y-116374210D01*
X146074208Y-116374213D01*
X145524210Y-116924210D01*
X145332367Y-117211325D01*
X145332367Y-117211326D01*
X145264999Y-117550000D01*
X145265000Y-117550005D01*
X145265000Y-118110025D01*
X145153569Y-118273110D01*
X145102560Y-118525000D01*
X145102560Y-119275000D01*
X145146838Y-119510317D01*
X145210000Y-119608474D01*
X145210000Y-121256380D01*
X145198569Y-121273110D01*
X145147560Y-121525000D01*
X145147560Y-122940000D01*
X142160000Y-122940000D01*
X142160000Y-121650000D01*
X142102148Y-121359161D01*
X141937401Y-121112599D01*
X140097440Y-119272638D01*
X140097440Y-119000000D01*
X140053162Y-118764683D01*
X139914090Y-118548559D01*
X139701890Y-118403569D01*
X139450000Y-118352560D01*
X138550000Y-118352560D01*
X138314683Y-118396838D01*
X138169905Y-118490000D01*
X136828386Y-118490000D01*
X136701890Y-118403569D01*
X136450000Y-118352560D01*
X135550000Y-118352560D01*
X135314683Y-118396838D01*
X135098559Y-118535910D01*
X134953569Y-118748110D01*
X134902560Y-119000000D01*
X134902560Y-119500000D01*
X134946838Y-119735317D01*
X135085910Y-119951441D01*
X135155711Y-119999134D01*
X135098559Y-120035910D01*
X134953569Y-120248110D01*
X134902560Y-120500000D01*
X134902560Y-121000000D01*
X134946838Y-121235317D01*
X135085910Y-121451441D01*
X135197506Y-121527692D01*
X134810198Y-121915000D01*
X134347440Y-121915000D01*
X134347440Y-121825000D01*
X134303162Y-121589683D01*
X134164090Y-121373559D01*
X134010000Y-121268274D01*
X134010000Y-120397931D01*
X134101441Y-120339090D01*
X134246431Y-120126890D01*
X134297440Y-119875000D01*
X134297440Y-119125000D01*
X134253162Y-118889683D01*
X134135000Y-118706054D01*
X134135000Y-115450000D01*
X134067633Y-115111325D01*
X133875790Y-114824210D01*
X133875787Y-114824208D01*
X133325790Y-114274210D01*
X133067893Y-114101890D01*
X133038675Y-114082367D01*
X132982484Y-114071190D01*
X132700000Y-114014999D01*
X132699995Y-114015000D01*
X105985000Y-114015000D01*
X105985000Y-101797175D01*
X108882430Y-101797175D01*
X109005565Y-102084788D01*
X109687734Y-102344707D01*
X110417443Y-102323786D01*
X110994435Y-102084788D01*
X111117570Y-101797175D01*
X110000000Y-100679605D01*
X108882430Y-101797175D01*
X105985000Y-101797175D01*
X105985000Y-100187734D01*
X108155293Y-100187734D01*
X108176214Y-100917443D01*
X108415212Y-101494435D01*
X108702825Y-101617570D01*
X109820395Y-100500000D01*
X110179605Y-100500000D01*
X111297175Y-101617570D01*
X111584788Y-101494435D01*
X111844707Y-100812266D01*
X111823786Y-100082557D01*
X111584788Y-99505565D01*
X111297175Y-99382430D01*
X110179605Y-100500000D01*
X109820395Y-100500000D01*
X108702825Y-99382430D01*
X108415212Y-99505565D01*
X108155293Y-100187734D01*
X105985000Y-100187734D01*
X105985000Y-95800000D01*
X108152560Y-95800000D01*
X108152560Y-98200000D01*
X108196838Y-98435317D01*
X108335910Y-98651441D01*
X108548110Y-98796431D01*
X108800000Y-98847440D01*
X109169181Y-98847440D01*
X109005565Y-98915212D01*
X108882430Y-99202825D01*
X110000000Y-100320395D01*
X111117570Y-99202825D01*
X110994435Y-98915212D01*
X110816564Y-98847440D01*
X111200000Y-98847440D01*
X111435317Y-98803162D01*
X111651441Y-98664090D01*
X111796431Y-98451890D01*
X111847440Y-98200000D01*
X111847440Y-97760000D01*
X115452560Y-97760000D01*
X115452560Y-98250000D01*
X115496838Y-98485317D01*
X115635910Y-98701441D01*
X115848110Y-98846431D01*
X116100000Y-98897440D01*
X116240000Y-98897440D01*
X116240000Y-99102560D01*
X116100000Y-99102560D01*
X115864683Y-99146838D01*
X115648559Y-99285910D01*
X115503569Y-99498110D01*
X115452560Y-99750000D01*
X115452560Y-102250000D01*
X115496838Y-102485317D01*
X115635910Y-102701441D01*
X115848110Y-102846431D01*
X116100000Y-102897440D01*
X117900000Y-102897440D01*
X118135317Y-102853162D01*
X118351441Y-102714090D01*
X118496431Y-102501890D01*
X118547440Y-102250000D01*
X118547440Y-99750000D01*
X118503162Y-99514683D01*
X118364090Y-99298559D01*
X118151890Y-99153569D01*
X117900000Y-99102560D01*
X117760000Y-99102560D01*
X117760000Y-98897440D01*
X117900000Y-98897440D01*
X118135317Y-98853162D01*
X118351441Y-98714090D01*
X118496431Y-98501890D01*
X118547440Y-98250000D01*
X118547440Y-97760000D01*
X119352560Y-97760000D01*
X119352560Y-98250000D01*
X119396838Y-98485317D01*
X119535910Y-98701441D01*
X119748110Y-98846431D01*
X120000000Y-98897440D01*
X121000000Y-98897440D01*
X121235317Y-98853162D01*
X121451441Y-98714090D01*
X121596431Y-98501890D01*
X121647440Y-98250000D01*
X121647440Y-95750000D01*
X121603162Y-95514683D01*
X121464090Y-95298559D01*
X121260000Y-95159110D01*
X121260000Y-92814802D01*
X121577362Y-92497440D01*
X122850000Y-92497440D01*
X123085317Y-92453162D01*
X123301441Y-92314090D01*
X123446431Y-92101890D01*
X123497440Y-91850000D01*
X123497440Y-90150000D01*
X123453162Y-89914683D01*
X123314090Y-89698559D01*
X123101890Y-89553569D01*
X122850000Y-89502560D01*
X121150000Y-89502560D01*
X120914683Y-89546838D01*
X120698559Y-89685910D01*
X120553569Y-89898110D01*
X120502560Y-90150000D01*
X120502560Y-91422638D01*
X119962599Y-91962599D01*
X119797852Y-92209161D01*
X119740000Y-92500000D01*
X119740000Y-95162721D01*
X119548559Y-95285910D01*
X119403569Y-95498110D01*
X119352560Y-95750000D01*
X119352560Y-96240000D01*
X118547440Y-96240000D01*
X118547440Y-95750000D01*
X118503162Y-95514683D01*
X118364090Y-95298559D01*
X118151890Y-95153569D01*
X117900000Y-95102560D01*
X116100000Y-95102560D01*
X115864683Y-95146838D01*
X115648559Y-95285910D01*
X115503569Y-95498110D01*
X115452560Y-95750000D01*
X115452560Y-96240000D01*
X111847440Y-96240000D01*
X111847440Y-95800000D01*
X111803162Y-95564683D01*
X111664090Y-95348559D01*
X111451890Y-95203569D01*
X111200000Y-95152560D01*
X108800000Y-95152560D01*
X108564683Y-95196838D01*
X108348559Y-95335910D01*
X108203569Y-95548110D01*
X108152560Y-95800000D01*
X105985000Y-95800000D01*
X105985000Y-93885000D01*
X115452560Y-93885000D01*
X115452560Y-94250000D01*
X115496838Y-94485317D01*
X115635910Y-94701441D01*
X115848110Y-94846431D01*
X116100000Y-94897440D01*
X117900000Y-94897440D01*
X118135317Y-94853162D01*
X118351441Y-94714090D01*
X118496431Y-94501890D01*
X118547440Y-94250000D01*
X118547440Y-91750000D01*
X118503162Y-91514683D01*
X118364090Y-91298559D01*
X118151890Y-91153569D01*
X117900000Y-91102560D01*
X117885000Y-91102560D01*
X117885000Y-86766580D01*
X118066579Y-86585000D01*
X132365000Y-86585000D01*
X132365000Y-88926737D01*
X132365000Y-88926737D01*
G37*
X132365000Y-88926737D02*
X132276309Y-88890000D01*
X132035750Y-88890000D01*
X131877000Y-89048750D01*
X131877000Y-89773000D01*
X131897000Y-89773000D01*
X131897000Y-90027000D01*
X131877000Y-90027000D01*
X131877000Y-90751250D01*
X132035750Y-90910000D01*
X132276309Y-90910000D01*
X132365000Y-90873263D01*
X132365000Y-92221778D01*
X132364683Y-92221838D01*
X132148559Y-92360910D01*
X132003569Y-92573110D01*
X131952560Y-92825000D01*
X131952560Y-93225000D01*
X131976944Y-93354589D01*
X131952560Y-93475000D01*
X131952560Y-93875000D01*
X131976944Y-94004589D01*
X131952560Y-94125000D01*
X131952560Y-94462597D01*
X131925190Y-94325000D01*
X131902148Y-94209160D01*
X131737401Y-93962599D01*
X130912401Y-93137599D01*
X130665839Y-92972852D01*
X130375000Y-92915000D01*
X130047440Y-92915000D01*
X130047440Y-92825000D01*
X130003162Y-92589683D01*
X129864090Y-92373559D01*
X129651890Y-92228569D01*
X129610000Y-92220086D01*
X129610000Y-90185750D01*
X130715000Y-90185750D01*
X130715000Y-90401310D01*
X130811673Y-90634699D01*
X130990302Y-90813327D01*
X131223691Y-90910000D01*
X131464250Y-90910000D01*
X131623000Y-90751250D01*
X131623000Y-90027000D01*
X130873750Y-90027000D01*
X130715000Y-90185750D01*
X129610000Y-90185750D01*
X129610000Y-89850000D01*
X129552148Y-89559161D01*
X129497440Y-89477284D01*
X129497440Y-89398690D01*
X130715000Y-89398690D01*
X130715000Y-89614250D01*
X130873750Y-89773000D01*
X131623000Y-89773000D01*
X131623000Y-89048750D01*
X131464250Y-88890000D01*
X131223691Y-88890000D01*
X130990302Y-88986673D01*
X130811673Y-89165301D01*
X130715000Y-89398690D01*
X129497440Y-89398690D01*
X129497440Y-88150000D01*
X129453162Y-87914683D01*
X129314090Y-87698559D01*
X129101890Y-87553569D01*
X128850000Y-87502560D01*
X127150000Y-87502560D01*
X126914683Y-87546838D01*
X126698559Y-87685910D01*
X126553569Y-87898110D01*
X126502560Y-88150000D01*
X126502560Y-89850000D01*
X126546838Y-90085317D01*
X126685910Y-90301441D01*
X126898110Y-90446431D01*
X127150000Y-90497440D01*
X128090000Y-90497440D01*
X128090000Y-92217074D01*
X128064683Y-92221838D01*
X127848559Y-92360910D01*
X127703569Y-92573110D01*
X127652560Y-92825000D01*
X127652560Y-93225000D01*
X127676944Y-93354589D01*
X127652560Y-93475000D01*
X127652560Y-93565000D01*
X124575000Y-93565000D01*
X124284161Y-93622852D01*
X124037599Y-93787599D01*
X122962599Y-94862599D01*
X122797852Y-95109161D01*
X122791356Y-95141819D01*
X122764683Y-95146838D01*
X122548559Y-95285910D01*
X122403569Y-95498110D01*
X122352560Y-95750000D01*
X122352560Y-98250000D01*
X122396838Y-98485317D01*
X122535910Y-98701441D01*
X122740000Y-98840890D01*
X122740000Y-100185198D01*
X122422638Y-100502560D01*
X121150000Y-100502560D01*
X120914683Y-100546838D01*
X120698559Y-100685910D01*
X120553569Y-100898110D01*
X120502560Y-101150000D01*
X120502560Y-102850000D01*
X120546838Y-103085317D01*
X120685910Y-103301441D01*
X120898110Y-103446431D01*
X121150000Y-103497440D01*
X122850000Y-103497440D01*
X123085317Y-103453162D01*
X123301441Y-103314090D01*
X123446431Y-103101890D01*
X123497440Y-102850000D01*
X123497440Y-102033750D01*
X124015000Y-102033750D01*
X124015000Y-102126309D01*
X124111673Y-102359698D01*
X124290301Y-102538327D01*
X124523690Y-102635000D01*
X124814250Y-102635000D01*
X124973000Y-102476250D01*
X124973000Y-101875000D01*
X124173750Y-101875000D01*
X124015000Y-102033750D01*
X123497440Y-102033750D01*
X123497440Y-101577362D01*
X124037401Y-101037401D01*
X124055710Y-101010000D01*
X124241974Y-101010000D01*
X124111673Y-101140302D01*
X124015000Y-101373691D01*
X124015000Y-101466250D01*
X124173750Y-101625000D01*
X124973000Y-101625000D01*
X124973000Y-101603000D01*
X125227000Y-101603000D01*
X125227000Y-101625000D01*
X125247000Y-101625000D01*
X125247000Y-101875000D01*
X125227000Y-101875000D01*
X125227000Y-102476250D01*
X125385750Y-102635000D01*
X125676310Y-102635000D01*
X125909699Y-102538327D01*
X126088327Y-102359698D01*
X126115000Y-102295304D01*
X126115000Y-106515000D01*
X119766579Y-106515000D01*
X118547440Y-105295860D01*
X118547440Y-103750000D01*
X118503162Y-103514683D01*
X118364090Y-103298559D01*
X118151890Y-103153569D01*
X117900000Y-103102560D01*
X116100000Y-103102560D01*
X115864683Y-103146838D01*
X115648559Y-103285910D01*
X115503569Y-103498110D01*
X115452560Y-103750000D01*
X115452560Y-106250000D01*
X115496838Y-106485317D01*
X115635910Y-106701441D01*
X115848110Y-106846431D01*
X116100000Y-106897440D01*
X117645861Y-106897440D01*
X118774208Y-108025787D01*
X118774210Y-108025790D01*
X118966054Y-108153975D01*
X119061326Y-108217634D01*
X119400000Y-108285001D01*
X119400005Y-108285000D01*
X150615000Y-108285000D01*
X150615000Y-116115000D01*
X146700000Y-116115000D01*
X146361325Y-116182367D01*
X146074210Y-116374210D01*
X146074208Y-116374213D01*
X145524210Y-116924210D01*
X145332367Y-117211325D01*
X145332367Y-117211326D01*
X145264999Y-117550000D01*
X145265000Y-117550005D01*
X145265000Y-118110025D01*
X145153569Y-118273110D01*
X145102560Y-118525000D01*
X145102560Y-119275000D01*
X145146838Y-119510317D01*
X145210000Y-119608474D01*
X145210000Y-121256380D01*
X145198569Y-121273110D01*
X145147560Y-121525000D01*
X145147560Y-122940000D01*
X142160000Y-122940000D01*
X142160000Y-121650000D01*
X142102148Y-121359161D01*
X141937401Y-121112599D01*
X140097440Y-119272638D01*
X140097440Y-119000000D01*
X140053162Y-118764683D01*
X139914090Y-118548559D01*
X139701890Y-118403569D01*
X139450000Y-118352560D01*
X138550000Y-118352560D01*
X138314683Y-118396838D01*
X138169905Y-118490000D01*
X136828386Y-118490000D01*
X136701890Y-118403569D01*
X136450000Y-118352560D01*
X135550000Y-118352560D01*
X135314683Y-118396838D01*
X135098559Y-118535910D01*
X134953569Y-118748110D01*
X134902560Y-119000000D01*
X134902560Y-119500000D01*
X134946838Y-119735317D01*
X135085910Y-119951441D01*
X135155711Y-119999134D01*
X135098559Y-120035910D01*
X134953569Y-120248110D01*
X134902560Y-120500000D01*
X134902560Y-121000000D01*
X134946838Y-121235317D01*
X135085910Y-121451441D01*
X135197506Y-121527692D01*
X134810198Y-121915000D01*
X134347440Y-121915000D01*
X134347440Y-121825000D01*
X134303162Y-121589683D01*
X134164090Y-121373559D01*
X134010000Y-121268274D01*
X134010000Y-120397931D01*
X134101441Y-120339090D01*
X134246431Y-120126890D01*
X134297440Y-119875000D01*
X134297440Y-119125000D01*
X134253162Y-118889683D01*
X134135000Y-118706054D01*
X134135000Y-115450000D01*
X134067633Y-115111325D01*
X133875790Y-114824210D01*
X133875787Y-114824208D01*
X133325790Y-114274210D01*
X133067893Y-114101890D01*
X133038675Y-114082367D01*
X132982484Y-114071190D01*
X132700000Y-114014999D01*
X132699995Y-114015000D01*
X105985000Y-114015000D01*
X105985000Y-101797175D01*
X108882430Y-101797175D01*
X109005565Y-102084788D01*
X109687734Y-102344707D01*
X110417443Y-102323786D01*
X110994435Y-102084788D01*
X111117570Y-101797175D01*
X110000000Y-100679605D01*
X108882430Y-101797175D01*
X105985000Y-101797175D01*
X105985000Y-100187734D01*
X108155293Y-100187734D01*
X108176214Y-100917443D01*
X108415212Y-101494435D01*
X108702825Y-101617570D01*
X109820395Y-100500000D01*
X110179605Y-100500000D01*
X111297175Y-101617570D01*
X111584788Y-101494435D01*
X111844707Y-100812266D01*
X111823786Y-100082557D01*
X111584788Y-99505565D01*
X111297175Y-99382430D01*
X110179605Y-100500000D01*
X109820395Y-100500000D01*
X108702825Y-99382430D01*
X108415212Y-99505565D01*
X108155293Y-100187734D01*
X105985000Y-100187734D01*
X105985000Y-95800000D01*
X108152560Y-95800000D01*
X108152560Y-98200000D01*
X108196838Y-98435317D01*
X108335910Y-98651441D01*
X108548110Y-98796431D01*
X108800000Y-98847440D01*
X109169181Y-98847440D01*
X109005565Y-98915212D01*
X108882430Y-99202825D01*
X110000000Y-100320395D01*
X111117570Y-99202825D01*
X110994435Y-98915212D01*
X110816564Y-98847440D01*
X111200000Y-98847440D01*
X111435317Y-98803162D01*
X111651441Y-98664090D01*
X111796431Y-98451890D01*
X111847440Y-98200000D01*
X111847440Y-97760000D01*
X115452560Y-97760000D01*
X115452560Y-98250000D01*
X115496838Y-98485317D01*
X115635910Y-98701441D01*
X115848110Y-98846431D01*
X116100000Y-98897440D01*
X116240000Y-98897440D01*
X116240000Y-99102560D01*
X116100000Y-99102560D01*
X115864683Y-99146838D01*
X115648559Y-99285910D01*
X115503569Y-99498110D01*
X115452560Y-99750000D01*
X115452560Y-102250000D01*
X115496838Y-102485317D01*
X115635910Y-102701441D01*
X115848110Y-102846431D01*
X116100000Y-102897440D01*
X117900000Y-102897440D01*
X118135317Y-102853162D01*
X118351441Y-102714090D01*
X118496431Y-102501890D01*
X118547440Y-102250000D01*
X118547440Y-99750000D01*
X118503162Y-99514683D01*
X118364090Y-99298559D01*
X118151890Y-99153569D01*
X117900000Y-99102560D01*
X117760000Y-99102560D01*
X117760000Y-98897440D01*
X117900000Y-98897440D01*
X118135317Y-98853162D01*
X118351441Y-98714090D01*
X118496431Y-98501890D01*
X118547440Y-98250000D01*
X118547440Y-97760000D01*
X119352560Y-97760000D01*
X119352560Y-98250000D01*
X119396838Y-98485317D01*
X119535910Y-98701441D01*
X119748110Y-98846431D01*
X120000000Y-98897440D01*
X121000000Y-98897440D01*
X121235317Y-98853162D01*
X121451441Y-98714090D01*
X121596431Y-98501890D01*
X121647440Y-98250000D01*
X121647440Y-95750000D01*
X121603162Y-95514683D01*
X121464090Y-95298559D01*
X121260000Y-95159110D01*
X121260000Y-92814802D01*
X121577362Y-92497440D01*
X122850000Y-92497440D01*
X123085317Y-92453162D01*
X123301441Y-92314090D01*
X123446431Y-92101890D01*
X123497440Y-91850000D01*
X123497440Y-90150000D01*
X123453162Y-89914683D01*
X123314090Y-89698559D01*
X123101890Y-89553569D01*
X122850000Y-89502560D01*
X121150000Y-89502560D01*
X120914683Y-89546838D01*
X120698559Y-89685910D01*
X120553569Y-89898110D01*
X120502560Y-90150000D01*
X120502560Y-91422638D01*
X119962599Y-91962599D01*
X119797852Y-92209161D01*
X119740000Y-92500000D01*
X119740000Y-95162721D01*
X119548559Y-95285910D01*
X119403569Y-95498110D01*
X119352560Y-95750000D01*
X119352560Y-96240000D01*
X118547440Y-96240000D01*
X118547440Y-95750000D01*
X118503162Y-95514683D01*
X118364090Y-95298559D01*
X118151890Y-95153569D01*
X117900000Y-95102560D01*
X116100000Y-95102560D01*
X115864683Y-95146838D01*
X115648559Y-95285910D01*
X115503569Y-95498110D01*
X115452560Y-95750000D01*
X115452560Y-96240000D01*
X111847440Y-96240000D01*
X111847440Y-95800000D01*
X111803162Y-95564683D01*
X111664090Y-95348559D01*
X111451890Y-95203569D01*
X111200000Y-95152560D01*
X108800000Y-95152560D01*
X108564683Y-95196838D01*
X108348559Y-95335910D01*
X108203569Y-95548110D01*
X108152560Y-95800000D01*
X105985000Y-95800000D01*
X105985000Y-93885000D01*
X115452560Y-93885000D01*
X115452560Y-94250000D01*
X115496838Y-94485317D01*
X115635910Y-94701441D01*
X115848110Y-94846431D01*
X116100000Y-94897440D01*
X117900000Y-94897440D01*
X118135317Y-94853162D01*
X118351441Y-94714090D01*
X118496431Y-94501890D01*
X118547440Y-94250000D01*
X118547440Y-91750000D01*
X118503162Y-91514683D01*
X118364090Y-91298559D01*
X118151890Y-91153569D01*
X117900000Y-91102560D01*
X117885000Y-91102560D01*
X117885000Y-86766580D01*
X118066579Y-86585000D01*
X132365000Y-86585000D01*
X132365000Y-88926737D01*
G36*
X174914591Y-98515481D02*
X175412581Y-98848227D01*
X176000000Y-98965072D01*
X176587419Y-98848227D01*
X177040000Y-98545822D01*
X177040000Y-99654178D01*
X176587419Y-99351773D01*
X176000000Y-99234928D01*
X175412581Y-99351773D01*
X174943803Y-99665000D01*
X173314975Y-99665000D01*
X173151890Y-99553569D01*
X172900000Y-99502560D01*
X172000000Y-99502560D01*
X171764683Y-99546838D01*
X171548559Y-99685910D01*
X171403569Y-99898110D01*
X171352560Y-100150000D01*
X171352560Y-100811174D01*
X171315000Y-101000000D01*
X171352560Y-101188826D01*
X171352560Y-101850000D01*
X171396838Y-102085317D01*
X171535910Y-102301441D01*
X171748110Y-102446431D01*
X172000000Y-102497440D01*
X172900000Y-102497440D01*
X173135317Y-102453162D01*
X173351441Y-102314090D01*
X173496431Y-102101890D01*
X173530227Y-101935000D01*
X174943803Y-101935000D01*
X175412581Y-102248227D01*
X176000000Y-102365072D01*
X176587419Y-102248227D01*
X177040000Y-101945822D01*
X177040000Y-104480911D01*
X176900000Y-104452560D01*
X175100000Y-104452560D01*
X174864683Y-104496838D01*
X174648559Y-104635910D01*
X174503569Y-104848110D01*
X174452560Y-105100000D01*
X174452560Y-106900000D01*
X174496838Y-107135317D01*
X174635910Y-107351441D01*
X174848110Y-107496431D01*
X175100000Y-107547440D01*
X176900000Y-107547440D01*
X177040000Y-107521097D01*
X177040000Y-108254178D01*
X176587419Y-107951773D01*
X176000000Y-107834928D01*
X175412581Y-107951773D01*
X174914591Y-108284519D01*
X174581845Y-108782509D01*
X174465000Y-109369928D01*
X174465000Y-109430072D01*
X174581845Y-110017491D01*
X174914591Y-110515481D01*
X175412581Y-110848227D01*
X176000000Y-110965072D01*
X176587419Y-110848227D01*
X177040000Y-110545822D01*
X177040000Y-111654178D01*
X176587419Y-111351773D01*
X176000000Y-111234928D01*
X175412581Y-111351773D01*
X174943803Y-111665000D01*
X173314975Y-111665000D01*
X173151890Y-111553569D01*
X172900000Y-111502560D01*
X172000000Y-111502560D01*
X171764683Y-111546838D01*
X171548559Y-111685910D01*
X171403569Y-111898110D01*
X171352560Y-112150000D01*
X171352560Y-112811174D01*
X171315000Y-113000000D01*
X171352560Y-113188826D01*
X171352560Y-113850000D01*
X171396838Y-114085317D01*
X171535910Y-114301441D01*
X171748110Y-114446431D01*
X172000000Y-114497440D01*
X172900000Y-114497440D01*
X173135317Y-114453162D01*
X173351441Y-114314090D01*
X173496431Y-114101890D01*
X173530227Y-113935000D01*
X174943803Y-113935000D01*
X175412581Y-114248227D01*
X176000000Y-114365072D01*
X176587419Y-114248227D01*
X177040000Y-113945822D01*
X177040000Y-117021641D01*
X176994435Y-116915212D01*
X176312266Y-116655293D01*
X175582557Y-116676214D01*
X175005565Y-116915212D01*
X174882430Y-117202825D01*
X176000000Y-118320395D01*
X176014143Y-118306253D01*
X176193748Y-118485858D01*
X176179605Y-118500000D01*
X176193748Y-118514143D01*
X176014143Y-118693748D01*
X176000000Y-118679605D01*
X174882430Y-119797175D01*
X175005565Y-120084788D01*
X175183436Y-120152560D01*
X174800000Y-120152560D01*
X174564683Y-120196838D01*
X174348559Y-120335910D01*
X174203569Y-120548110D01*
X174152560Y-120800000D01*
X174152560Y-120865000D01*
X170685000Y-120865000D01*
X170685000Y-118187734D01*
X174155293Y-118187734D01*
X174176214Y-118917443D01*
X174415212Y-119494435D01*
X174702825Y-119617570D01*
X175820395Y-118500000D01*
X174702825Y-117382430D01*
X174415212Y-117505565D01*
X174155293Y-118187734D01*
X170685000Y-118187734D01*
X170685000Y-101000000D01*
X170647440Y-100811174D01*
X170647440Y-100150000D01*
X170603162Y-99914683D01*
X170464090Y-99698559D01*
X170251890Y-99553569D01*
X170000000Y-99502560D01*
X169100000Y-99502560D01*
X168864683Y-99546838D01*
X168648559Y-99685910D01*
X168503569Y-99898110D01*
X168452560Y-100150000D01*
X168452560Y-100811174D01*
X168415000Y-101000000D01*
X168415000Y-122240000D01*
X167497440Y-122240000D01*
X167497440Y-122150000D01*
X167453162Y-121914683D01*
X167314090Y-121698559D01*
X167101890Y-121553569D01*
X166850000Y-121502560D01*
X165150000Y-121502560D01*
X164914683Y-121546838D01*
X164698559Y-121685910D01*
X164553569Y-121898110D01*
X164502560Y-122150000D01*
X164502560Y-122240000D01*
X152900000Y-122240000D01*
X152609161Y-122297852D01*
X152385000Y-122447631D01*
X152385000Y-118285750D01*
X164515000Y-118285750D01*
X164515000Y-118976310D01*
X164611673Y-119209699D01*
X164790302Y-119388327D01*
X165023691Y-119485000D01*
X165714250Y-119485000D01*
X165873000Y-119326250D01*
X165873000Y-118127000D01*
X166127000Y-118127000D01*
X166127000Y-119326250D01*
X166285750Y-119485000D01*
X166976309Y-119485000D01*
X167209698Y-119388327D01*
X167388327Y-119209699D01*
X167485000Y-118976310D01*
X167485000Y-118285750D01*
X167326250Y-118127000D01*
X166127000Y-118127000D01*
X165873000Y-118127000D01*
X164673750Y-118127000D01*
X164515000Y-118285750D01*
X152385000Y-118285750D01*
X152385000Y-117023690D01*
X164515000Y-117023690D01*
X164515000Y-117714250D01*
X164673750Y-117873000D01*
X165873000Y-117873000D01*
X165873000Y-116673750D01*
X166127000Y-116673750D01*
X166127000Y-117873000D01*
X167326250Y-117873000D01*
X167485000Y-117714250D01*
X167485000Y-117023690D01*
X167388327Y-116790301D01*
X167209698Y-116611673D01*
X166976309Y-116515000D01*
X166285750Y-116515000D01*
X166127000Y-116673750D01*
X165873000Y-116673750D01*
X165714250Y-116515000D01*
X165023691Y-116515000D01*
X164790302Y-116611673D01*
X164611673Y-116790301D01*
X164515000Y-117023690D01*
X152385000Y-117023690D01*
X152385000Y-108285000D01*
X158999995Y-108285000D01*
X159000000Y-108285001D01*
X159282484Y-108228810D01*
X159338675Y-108217633D01*
X159625790Y-108025790D01*
X169366579Y-98285000D01*
X174760589Y-98285000D01*
X174914591Y-98515481D01*
X174914591Y-98515481D01*
G37*
X174914591Y-98515481D02*
X175412581Y-98848227D01*
X176000000Y-98965072D01*
X176587419Y-98848227D01*
X177040000Y-98545822D01*
X177040000Y-99654178D01*
X176587419Y-99351773D01*
X176000000Y-99234928D01*
X175412581Y-99351773D01*
X174943803Y-99665000D01*
X173314975Y-99665000D01*
X173151890Y-99553569D01*
X172900000Y-99502560D01*
X172000000Y-99502560D01*
X171764683Y-99546838D01*
X171548559Y-99685910D01*
X171403569Y-99898110D01*
X171352560Y-100150000D01*
X171352560Y-100811174D01*
X171315000Y-101000000D01*
X171352560Y-101188826D01*
X171352560Y-101850000D01*
X171396838Y-102085317D01*
X171535910Y-102301441D01*
X171748110Y-102446431D01*
X172000000Y-102497440D01*
X172900000Y-102497440D01*
X173135317Y-102453162D01*
X173351441Y-102314090D01*
X173496431Y-102101890D01*
X173530227Y-101935000D01*
X174943803Y-101935000D01*
X175412581Y-102248227D01*
X176000000Y-102365072D01*
X176587419Y-102248227D01*
X177040000Y-101945822D01*
X177040000Y-104480911D01*
X176900000Y-104452560D01*
X175100000Y-104452560D01*
X174864683Y-104496838D01*
X174648559Y-104635910D01*
X174503569Y-104848110D01*
X174452560Y-105100000D01*
X174452560Y-106900000D01*
X174496838Y-107135317D01*
X174635910Y-107351441D01*
X174848110Y-107496431D01*
X175100000Y-107547440D01*
X176900000Y-107547440D01*
X177040000Y-107521097D01*
X177040000Y-108254178D01*
X176587419Y-107951773D01*
X176000000Y-107834928D01*
X175412581Y-107951773D01*
X174914591Y-108284519D01*
X174581845Y-108782509D01*
X174465000Y-109369928D01*
X174465000Y-109430072D01*
X174581845Y-110017491D01*
X174914591Y-110515481D01*
X175412581Y-110848227D01*
X176000000Y-110965072D01*
X176587419Y-110848227D01*
X177040000Y-110545822D01*
X177040000Y-111654178D01*
X176587419Y-111351773D01*
X176000000Y-111234928D01*
X175412581Y-111351773D01*
X174943803Y-111665000D01*
X173314975Y-111665000D01*
X173151890Y-111553569D01*
X172900000Y-111502560D01*
X172000000Y-111502560D01*
X171764683Y-111546838D01*
X171548559Y-111685910D01*
X171403569Y-111898110D01*
X171352560Y-112150000D01*
X171352560Y-112811174D01*
X171315000Y-113000000D01*
X171352560Y-113188826D01*
X171352560Y-113850000D01*
X171396838Y-114085317D01*
X171535910Y-114301441D01*
X171748110Y-114446431D01*
X172000000Y-114497440D01*
X172900000Y-114497440D01*
X173135317Y-114453162D01*
X173351441Y-114314090D01*
X173496431Y-114101890D01*
X173530227Y-113935000D01*
X174943803Y-113935000D01*
X175412581Y-114248227D01*
X176000000Y-114365072D01*
X176587419Y-114248227D01*
X177040000Y-113945822D01*
X177040000Y-117021641D01*
X176994435Y-116915212D01*
X176312266Y-116655293D01*
X175582557Y-116676214D01*
X175005565Y-116915212D01*
X174882430Y-117202825D01*
X176000000Y-118320395D01*
X176014143Y-118306253D01*
X176193748Y-118485858D01*
X176179605Y-118500000D01*
X176193748Y-118514143D01*
X176014143Y-118693748D01*
X176000000Y-118679605D01*
X174882430Y-119797175D01*
X175005565Y-120084788D01*
X175183436Y-120152560D01*
X174800000Y-120152560D01*
X174564683Y-120196838D01*
X174348559Y-120335910D01*
X174203569Y-120548110D01*
X174152560Y-120800000D01*
X174152560Y-120865000D01*
X170685000Y-120865000D01*
X170685000Y-118187734D01*
X174155293Y-118187734D01*
X174176214Y-118917443D01*
X174415212Y-119494435D01*
X174702825Y-119617570D01*
X175820395Y-118500000D01*
X174702825Y-117382430D01*
X174415212Y-117505565D01*
X174155293Y-118187734D01*
X170685000Y-118187734D01*
X170685000Y-101000000D01*
X170647440Y-100811174D01*
X170647440Y-100150000D01*
X170603162Y-99914683D01*
X170464090Y-99698559D01*
X170251890Y-99553569D01*
X170000000Y-99502560D01*
X169100000Y-99502560D01*
X168864683Y-99546838D01*
X168648559Y-99685910D01*
X168503569Y-99898110D01*
X168452560Y-100150000D01*
X168452560Y-100811174D01*
X168415000Y-101000000D01*
X168415000Y-122240000D01*
X167497440Y-122240000D01*
X167497440Y-122150000D01*
X167453162Y-121914683D01*
X167314090Y-121698559D01*
X167101890Y-121553569D01*
X166850000Y-121502560D01*
X165150000Y-121502560D01*
X164914683Y-121546838D01*
X164698559Y-121685910D01*
X164553569Y-121898110D01*
X164502560Y-122150000D01*
X164502560Y-122240000D01*
X152900000Y-122240000D01*
X152609161Y-122297852D01*
X152385000Y-122447631D01*
X152385000Y-118285750D01*
X164515000Y-118285750D01*
X164515000Y-118976310D01*
X164611673Y-119209699D01*
X164790302Y-119388327D01*
X165023691Y-119485000D01*
X165714250Y-119485000D01*
X165873000Y-119326250D01*
X165873000Y-118127000D01*
X166127000Y-118127000D01*
X166127000Y-119326250D01*
X166285750Y-119485000D01*
X166976309Y-119485000D01*
X167209698Y-119388327D01*
X167388327Y-119209699D01*
X167485000Y-118976310D01*
X167485000Y-118285750D01*
X167326250Y-118127000D01*
X166127000Y-118127000D01*
X165873000Y-118127000D01*
X164673750Y-118127000D01*
X164515000Y-118285750D01*
X152385000Y-118285750D01*
X152385000Y-117023690D01*
X164515000Y-117023690D01*
X164515000Y-117714250D01*
X164673750Y-117873000D01*
X165873000Y-117873000D01*
X165873000Y-116673750D01*
X166127000Y-116673750D01*
X166127000Y-117873000D01*
X167326250Y-117873000D01*
X167485000Y-117714250D01*
X167485000Y-117023690D01*
X167388327Y-116790301D01*
X167209698Y-116611673D01*
X166976309Y-116515000D01*
X166285750Y-116515000D01*
X166127000Y-116673750D01*
X165873000Y-116673750D01*
X165714250Y-116515000D01*
X165023691Y-116515000D01*
X164790302Y-116611673D01*
X164611673Y-116790301D01*
X164515000Y-117023690D01*
X152385000Y-117023690D01*
X152385000Y-108285000D01*
X158999995Y-108285000D01*
X159000000Y-108285001D01*
X159282484Y-108228810D01*
X159338675Y-108217633D01*
X159625790Y-108025790D01*
X169366579Y-98285000D01*
X174760589Y-98285000D01*
X174914591Y-98515481D01*
G36*
X150615000Y-121036974D02*
X150564699Y-120986673D01*
X150331310Y-120890000D01*
X150190750Y-120890000D01*
X150032000Y-121048750D01*
X150032000Y-122173000D01*
X150052000Y-122173000D01*
X150052000Y-122427000D01*
X150032000Y-122427000D01*
X150032000Y-122447000D01*
X149778000Y-122447000D01*
X149778000Y-122427000D01*
X149758000Y-122427000D01*
X149758000Y-122173000D01*
X149778000Y-122173000D01*
X149778000Y-121048750D01*
X149619250Y-120890000D01*
X149478690Y-120890000D01*
X149261878Y-120979806D01*
X149186890Y-120928569D01*
X148935000Y-120877560D01*
X148335000Y-120877560D01*
X148099683Y-120921838D01*
X148009020Y-120980178D01*
X147791310Y-120890000D01*
X147650750Y-120890000D01*
X147492000Y-121048750D01*
X147492000Y-122173000D01*
X147512000Y-122173000D01*
X147512000Y-122427000D01*
X147492000Y-122427000D01*
X147492000Y-122447000D01*
X147238000Y-122447000D01*
X147238000Y-122427000D01*
X147218000Y-122427000D01*
X147218000Y-122173000D01*
X147238000Y-122173000D01*
X147238000Y-121048750D01*
X147079250Y-120890000D01*
X146980000Y-120890000D01*
X146980000Y-119850481D01*
X147123691Y-119910000D01*
X147364250Y-119910000D01*
X147523000Y-119751250D01*
X147523000Y-119027000D01*
X147777000Y-119027000D01*
X147777000Y-119751250D01*
X147935750Y-119910000D01*
X148176309Y-119910000D01*
X148409698Y-119813327D01*
X148588327Y-119634699D01*
X148685000Y-119401310D01*
X148685000Y-119185750D01*
X148526250Y-119027000D01*
X147777000Y-119027000D01*
X147523000Y-119027000D01*
X147503000Y-119027000D01*
X147503000Y-118773000D01*
X147523000Y-118773000D01*
X147523000Y-118048750D01*
X147777000Y-118048750D01*
X147777000Y-118773000D01*
X148526250Y-118773000D01*
X148685000Y-118614250D01*
X148685000Y-118398690D01*
X148588327Y-118165301D01*
X148409698Y-117986673D01*
X148176309Y-117890000D01*
X147935750Y-117890000D01*
X147777000Y-118048750D01*
X147523000Y-118048750D01*
X147364250Y-117890000D01*
X147123691Y-117890000D01*
X147035000Y-117926737D01*
X147035000Y-117916580D01*
X147066579Y-117885000D01*
X150615000Y-117885000D01*
X150615000Y-121036974D01*
X150615000Y-121036974D01*
G37*
X150615000Y-121036974D02*
X150564699Y-120986673D01*
X150331310Y-120890000D01*
X150190750Y-120890000D01*
X150032000Y-121048750D01*
X150032000Y-122173000D01*
X150052000Y-122173000D01*
X150052000Y-122427000D01*
X150032000Y-122427000D01*
X150032000Y-122447000D01*
X149778000Y-122447000D01*
X149778000Y-122427000D01*
X149758000Y-122427000D01*
X149758000Y-122173000D01*
X149778000Y-122173000D01*
X149778000Y-121048750D01*
X149619250Y-120890000D01*
X149478690Y-120890000D01*
X149261878Y-120979806D01*
X149186890Y-120928569D01*
X148935000Y-120877560D01*
X148335000Y-120877560D01*
X148099683Y-120921838D01*
X148009020Y-120980178D01*
X147791310Y-120890000D01*
X147650750Y-120890000D01*
X147492000Y-121048750D01*
X147492000Y-122173000D01*
X147512000Y-122173000D01*
X147512000Y-122427000D01*
X147492000Y-122427000D01*
X147492000Y-122447000D01*
X147238000Y-122447000D01*
X147238000Y-122427000D01*
X147218000Y-122427000D01*
X147218000Y-122173000D01*
X147238000Y-122173000D01*
X147238000Y-121048750D01*
X147079250Y-120890000D01*
X146980000Y-120890000D01*
X146980000Y-119850481D01*
X147123691Y-119910000D01*
X147364250Y-119910000D01*
X147523000Y-119751250D01*
X147523000Y-119027000D01*
X147777000Y-119027000D01*
X147777000Y-119751250D01*
X147935750Y-119910000D01*
X148176309Y-119910000D01*
X148409698Y-119813327D01*
X148588327Y-119634699D01*
X148685000Y-119401310D01*
X148685000Y-119185750D01*
X148526250Y-119027000D01*
X147777000Y-119027000D01*
X147523000Y-119027000D01*
X147503000Y-119027000D01*
X147503000Y-118773000D01*
X147523000Y-118773000D01*
X147523000Y-118048750D01*
X147777000Y-118048750D01*
X147777000Y-118773000D01*
X148526250Y-118773000D01*
X148685000Y-118614250D01*
X148685000Y-118398690D01*
X148588327Y-118165301D01*
X148409698Y-117986673D01*
X148176309Y-117890000D01*
X147935750Y-117890000D01*
X147777000Y-118048750D01*
X147523000Y-118048750D01*
X147364250Y-117890000D01*
X147123691Y-117890000D01*
X147035000Y-117926737D01*
X147035000Y-117916580D01*
X147066579Y-117885000D01*
X150615000Y-117885000D01*
X150615000Y-121036974D01*
G36*
X146827599Y-97297599D02*
X146797615Y-97342473D01*
X146739020Y-97380178D01*
X146521310Y-97290000D01*
X146380750Y-97290000D01*
X146222000Y-97448750D01*
X146222000Y-98573000D01*
X146242000Y-98573000D01*
X146242000Y-98827000D01*
X146222000Y-98827000D01*
X146222000Y-99951250D01*
X146380750Y-100110000D01*
X146521310Y-100110000D01*
X146738122Y-100020194D01*
X146813110Y-100071431D01*
X147065000Y-100122440D01*
X147665000Y-100122440D01*
X147900317Y-100078162D01*
X147999528Y-100014322D01*
X148083110Y-100071431D01*
X148335000Y-100122440D01*
X148935000Y-100122440D01*
X149020000Y-100106446D01*
X149020000Y-101008097D01*
X148976309Y-100990000D01*
X148735750Y-100990000D01*
X148577000Y-101148750D01*
X148577000Y-101873000D01*
X148597000Y-101873000D01*
X148597000Y-102127000D01*
X148577000Y-102127000D01*
X148577000Y-102851250D01*
X148735750Y-103010000D01*
X148976309Y-103010000D01*
X149015000Y-102993974D01*
X149015000Y-106515000D01*
X132826228Y-106515000D01*
X132890839Y-106502148D01*
X133137401Y-106337401D01*
X133537401Y-105937401D01*
X133702148Y-105690840D01*
X133719588Y-105603162D01*
X133724619Y-105577872D01*
X133901441Y-105464090D01*
X134046431Y-105251890D01*
X134097440Y-105000000D01*
X134097440Y-104500000D01*
X134053162Y-104264683D01*
X133914090Y-104048559D01*
X133857657Y-104010000D01*
X135502560Y-104010000D01*
X135502560Y-104850000D01*
X135546838Y-105085317D01*
X135685910Y-105301441D01*
X135898110Y-105446431D01*
X136150000Y-105497440D01*
X137850000Y-105497440D01*
X138085317Y-105453162D01*
X138301441Y-105314090D01*
X138446431Y-105101890D01*
X138497440Y-104850000D01*
X138497440Y-104760000D01*
X139600000Y-104760000D01*
X139890839Y-104702148D01*
X140137401Y-104537401D01*
X141837401Y-102837401D01*
X142002148Y-102590839D01*
X142060000Y-102300000D01*
X142060000Y-102285750D01*
X147415000Y-102285750D01*
X147415000Y-102501310D01*
X147511673Y-102734699D01*
X147690302Y-102913327D01*
X147923691Y-103010000D01*
X148164250Y-103010000D01*
X148323000Y-102851250D01*
X148323000Y-102127000D01*
X147573750Y-102127000D01*
X147415000Y-102285750D01*
X142060000Y-102285750D01*
X142060000Y-101498690D01*
X147415000Y-101498690D01*
X147415000Y-101714250D01*
X147573750Y-101873000D01*
X148323000Y-101873000D01*
X148323000Y-101148750D01*
X148164250Y-100990000D01*
X147923691Y-100990000D01*
X147690302Y-101086673D01*
X147511673Y-101265301D01*
X147415000Y-101498690D01*
X142060000Y-101498690D01*
X142060000Y-98985750D01*
X145160000Y-98985750D01*
X145160000Y-99601309D01*
X145256673Y-99834698D01*
X145435301Y-100013327D01*
X145668690Y-100110000D01*
X145809250Y-100110000D01*
X145968000Y-99951250D01*
X145968000Y-98827000D01*
X145318750Y-98827000D01*
X145160000Y-98985750D01*
X142060000Y-98985750D01*
X142060000Y-97798691D01*
X145160000Y-97798691D01*
X145160000Y-98414250D01*
X145318750Y-98573000D01*
X145968000Y-98573000D01*
X145968000Y-97448750D01*
X145809250Y-97290000D01*
X145668690Y-97290000D01*
X145435301Y-97386673D01*
X145256673Y-97565302D01*
X145160000Y-97798691D01*
X142060000Y-97798691D01*
X142060000Y-95960000D01*
X148165198Y-95960000D01*
X146827599Y-97297599D01*
X146827599Y-97297599D01*
G37*
X146827599Y-97297599D02*
X146797615Y-97342473D01*
X146739020Y-97380178D01*
X146521310Y-97290000D01*
X146380750Y-97290000D01*
X146222000Y-97448750D01*
X146222000Y-98573000D01*
X146242000Y-98573000D01*
X146242000Y-98827000D01*
X146222000Y-98827000D01*
X146222000Y-99951250D01*
X146380750Y-100110000D01*
X146521310Y-100110000D01*
X146738122Y-100020194D01*
X146813110Y-100071431D01*
X147065000Y-100122440D01*
X147665000Y-100122440D01*
X147900317Y-100078162D01*
X147999528Y-100014322D01*
X148083110Y-100071431D01*
X148335000Y-100122440D01*
X148935000Y-100122440D01*
X149020000Y-100106446D01*
X149020000Y-101008097D01*
X148976309Y-100990000D01*
X148735750Y-100990000D01*
X148577000Y-101148750D01*
X148577000Y-101873000D01*
X148597000Y-101873000D01*
X148597000Y-102127000D01*
X148577000Y-102127000D01*
X148577000Y-102851250D01*
X148735750Y-103010000D01*
X148976309Y-103010000D01*
X149015000Y-102993974D01*
X149015000Y-106515000D01*
X132826228Y-106515000D01*
X132890839Y-106502148D01*
X133137401Y-106337401D01*
X133537401Y-105937401D01*
X133702148Y-105690840D01*
X133719588Y-105603162D01*
X133724619Y-105577872D01*
X133901441Y-105464090D01*
X134046431Y-105251890D01*
X134097440Y-105000000D01*
X134097440Y-104500000D01*
X134053162Y-104264683D01*
X133914090Y-104048559D01*
X133857657Y-104010000D01*
X135502560Y-104010000D01*
X135502560Y-104850000D01*
X135546838Y-105085317D01*
X135685910Y-105301441D01*
X135898110Y-105446431D01*
X136150000Y-105497440D01*
X137850000Y-105497440D01*
X138085317Y-105453162D01*
X138301441Y-105314090D01*
X138446431Y-105101890D01*
X138497440Y-104850000D01*
X138497440Y-104760000D01*
X139600000Y-104760000D01*
X139890839Y-104702148D01*
X140137401Y-104537401D01*
X141837401Y-102837401D01*
X142002148Y-102590839D01*
X142060000Y-102300000D01*
X142060000Y-102285750D01*
X147415000Y-102285750D01*
X147415000Y-102501310D01*
X147511673Y-102734699D01*
X147690302Y-102913327D01*
X147923691Y-103010000D01*
X148164250Y-103010000D01*
X148323000Y-102851250D01*
X148323000Y-102127000D01*
X147573750Y-102127000D01*
X147415000Y-102285750D01*
X142060000Y-102285750D01*
X142060000Y-101498690D01*
X147415000Y-101498690D01*
X147415000Y-101714250D01*
X147573750Y-101873000D01*
X148323000Y-101873000D01*
X148323000Y-101148750D01*
X148164250Y-100990000D01*
X147923691Y-100990000D01*
X147690302Y-101086673D01*
X147511673Y-101265301D01*
X147415000Y-101498690D01*
X142060000Y-101498690D01*
X142060000Y-98985750D01*
X145160000Y-98985750D01*
X145160000Y-99601309D01*
X145256673Y-99834698D01*
X145435301Y-100013327D01*
X145668690Y-100110000D01*
X145809250Y-100110000D01*
X145968000Y-99951250D01*
X145968000Y-98827000D01*
X145318750Y-98827000D01*
X145160000Y-98985750D01*
X142060000Y-98985750D01*
X142060000Y-97798691D01*
X145160000Y-97798691D01*
X145160000Y-98414250D01*
X145318750Y-98573000D01*
X145968000Y-98573000D01*
X145968000Y-97448750D01*
X145809250Y-97290000D01*
X145668690Y-97290000D01*
X145435301Y-97386673D01*
X145256673Y-97565302D01*
X145160000Y-97798691D01*
X142060000Y-97798691D01*
X142060000Y-95960000D01*
X148165198Y-95960000D01*
X146827599Y-97297599D01*
G36*
X140540000Y-92864802D02*
X140540000Y-101985198D01*
X139285198Y-103240000D01*
X138497440Y-103240000D01*
X138497440Y-103150000D01*
X138453162Y-102914683D01*
X138314090Y-102698559D01*
X138101890Y-102553569D01*
X137850000Y-102502560D01*
X136313143Y-102502560D01*
X136250000Y-102490000D01*
X133828386Y-102490000D01*
X133701890Y-102403569D01*
X133450000Y-102352560D01*
X132550000Y-102352560D01*
X132314683Y-102396838D01*
X132169905Y-102490000D01*
X131500000Y-102490000D01*
X131209160Y-102547852D01*
X130992790Y-102692426D01*
X130978162Y-102614683D01*
X130839090Y-102398559D01*
X130760000Y-102344519D01*
X130760000Y-102114802D01*
X132286383Y-100588419D01*
X132298110Y-100596431D01*
X132550000Y-100647440D01*
X133450000Y-100647440D01*
X133685317Y-100603162D01*
X133830095Y-100510000D01*
X135171614Y-100510000D01*
X135298110Y-100596431D01*
X135550000Y-100647440D01*
X136450000Y-100647440D01*
X136685317Y-100603162D01*
X136901441Y-100464090D01*
X137046431Y-100251890D01*
X137090200Y-100035750D01*
X137990000Y-100035750D01*
X137990000Y-100276309D01*
X138086673Y-100509698D01*
X138265301Y-100688327D01*
X138498690Y-100785000D01*
X138714250Y-100785000D01*
X138873000Y-100626250D01*
X138873000Y-99877000D01*
X139127000Y-99877000D01*
X139127000Y-100626250D01*
X139285750Y-100785000D01*
X139501310Y-100785000D01*
X139734699Y-100688327D01*
X139913327Y-100509698D01*
X140010000Y-100276309D01*
X140010000Y-100035750D01*
X139851250Y-99877000D01*
X139127000Y-99877000D01*
X138873000Y-99877000D01*
X138148750Y-99877000D01*
X137990000Y-100035750D01*
X137090200Y-100035750D01*
X137097440Y-100000000D01*
X137097440Y-99500000D01*
X137053162Y-99264683D01*
X136914090Y-99048559D01*
X136857657Y-99010000D01*
X138078514Y-99010000D01*
X137990000Y-99223691D01*
X137990000Y-99464250D01*
X138148750Y-99623000D01*
X138873000Y-99623000D01*
X138873000Y-99603000D01*
X139127000Y-99603000D01*
X139127000Y-99623000D01*
X139851250Y-99623000D01*
X140010000Y-99464250D01*
X140010000Y-99223691D01*
X139913327Y-98990302D01*
X139911957Y-98988932D01*
X139971431Y-98901890D01*
X140022440Y-98650000D01*
X140022440Y-97850000D01*
X139978162Y-97614683D01*
X139839090Y-97398559D01*
X139626890Y-97253569D01*
X139375000Y-97202560D01*
X138625000Y-97202560D01*
X138389683Y-97246838D01*
X138173559Y-97385910D01*
X138102437Y-97490000D01*
X136828386Y-97490000D01*
X136760000Y-97443274D01*
X136760000Y-96800000D01*
X136702148Y-96509161D01*
X136537401Y-96262599D01*
X136308552Y-96033750D01*
X137915000Y-96033750D01*
X137915000Y-96126309D01*
X138011673Y-96359698D01*
X138190301Y-96538327D01*
X138423690Y-96635000D01*
X138714250Y-96635000D01*
X138873000Y-96476250D01*
X138873000Y-95875000D01*
X139127000Y-95875000D01*
X139127000Y-96476250D01*
X139285750Y-96635000D01*
X139576310Y-96635000D01*
X139809699Y-96538327D01*
X139988327Y-96359698D01*
X140085000Y-96126309D01*
X140085000Y-96033750D01*
X139926250Y-95875000D01*
X139127000Y-95875000D01*
X138873000Y-95875000D01*
X138073750Y-95875000D01*
X137915000Y-96033750D01*
X136308552Y-96033750D01*
X135359802Y-95085000D01*
X138066975Y-95085000D01*
X138011673Y-95140302D01*
X137915000Y-95373691D01*
X137915000Y-95466250D01*
X138073750Y-95625000D01*
X138873000Y-95625000D01*
X138873000Y-95603000D01*
X139127000Y-95603000D01*
X139127000Y-95625000D01*
X139926250Y-95625000D01*
X140085000Y-95466250D01*
X140085000Y-95373691D01*
X139988327Y-95140302D01*
X139847090Y-94999064D01*
X139901441Y-94964090D01*
X140046431Y-94751890D01*
X140097440Y-94500000D01*
X140097440Y-94000000D01*
X140053162Y-93764683D01*
X139914090Y-93548559D01*
X139760000Y-93443274D01*
X139760000Y-92555105D01*
X139901441Y-92464090D01*
X139997987Y-92322789D01*
X140540000Y-92864802D01*
X140540000Y-92864802D01*
G37*
X140540000Y-92864802D02*
X140540000Y-101985198D01*
X139285198Y-103240000D01*
X138497440Y-103240000D01*
X138497440Y-103150000D01*
X138453162Y-102914683D01*
X138314090Y-102698559D01*
X138101890Y-102553569D01*
X137850000Y-102502560D01*
X136313143Y-102502560D01*
X136250000Y-102490000D01*
X133828386Y-102490000D01*
X133701890Y-102403569D01*
X133450000Y-102352560D01*
X132550000Y-102352560D01*
X132314683Y-102396838D01*
X132169905Y-102490000D01*
X131500000Y-102490000D01*
X131209160Y-102547852D01*
X130992790Y-102692426D01*
X130978162Y-102614683D01*
X130839090Y-102398559D01*
X130760000Y-102344519D01*
X130760000Y-102114802D01*
X132286383Y-100588419D01*
X132298110Y-100596431D01*
X132550000Y-100647440D01*
X133450000Y-100647440D01*
X133685317Y-100603162D01*
X133830095Y-100510000D01*
X135171614Y-100510000D01*
X135298110Y-100596431D01*
X135550000Y-100647440D01*
X136450000Y-100647440D01*
X136685317Y-100603162D01*
X136901441Y-100464090D01*
X137046431Y-100251890D01*
X137090200Y-100035750D01*
X137990000Y-100035750D01*
X137990000Y-100276309D01*
X138086673Y-100509698D01*
X138265301Y-100688327D01*
X138498690Y-100785000D01*
X138714250Y-100785000D01*
X138873000Y-100626250D01*
X138873000Y-99877000D01*
X139127000Y-99877000D01*
X139127000Y-100626250D01*
X139285750Y-100785000D01*
X139501310Y-100785000D01*
X139734699Y-100688327D01*
X139913327Y-100509698D01*
X140010000Y-100276309D01*
X140010000Y-100035750D01*
X139851250Y-99877000D01*
X139127000Y-99877000D01*
X138873000Y-99877000D01*
X138148750Y-99877000D01*
X137990000Y-100035750D01*
X137090200Y-100035750D01*
X137097440Y-100000000D01*
X137097440Y-99500000D01*
X137053162Y-99264683D01*
X136914090Y-99048559D01*
X136857657Y-99010000D01*
X138078514Y-99010000D01*
X137990000Y-99223691D01*
X137990000Y-99464250D01*
X138148750Y-99623000D01*
X138873000Y-99623000D01*
X138873000Y-99603000D01*
X139127000Y-99603000D01*
X139127000Y-99623000D01*
X139851250Y-99623000D01*
X140010000Y-99464250D01*
X140010000Y-99223691D01*
X139913327Y-98990302D01*
X139911957Y-98988932D01*
X139971431Y-98901890D01*
X140022440Y-98650000D01*
X140022440Y-97850000D01*
X139978162Y-97614683D01*
X139839090Y-97398559D01*
X139626890Y-97253569D01*
X139375000Y-97202560D01*
X138625000Y-97202560D01*
X138389683Y-97246838D01*
X138173559Y-97385910D01*
X138102437Y-97490000D01*
X136828386Y-97490000D01*
X136760000Y-97443274D01*
X136760000Y-96800000D01*
X136702148Y-96509161D01*
X136537401Y-96262599D01*
X136308552Y-96033750D01*
X137915000Y-96033750D01*
X137915000Y-96126309D01*
X138011673Y-96359698D01*
X138190301Y-96538327D01*
X138423690Y-96635000D01*
X138714250Y-96635000D01*
X138873000Y-96476250D01*
X138873000Y-95875000D01*
X139127000Y-95875000D01*
X139127000Y-96476250D01*
X139285750Y-96635000D01*
X139576310Y-96635000D01*
X139809699Y-96538327D01*
X139988327Y-96359698D01*
X140085000Y-96126309D01*
X140085000Y-96033750D01*
X139926250Y-95875000D01*
X139127000Y-95875000D01*
X138873000Y-95875000D01*
X138073750Y-95875000D01*
X137915000Y-96033750D01*
X136308552Y-96033750D01*
X135359802Y-95085000D01*
X138066975Y-95085000D01*
X138011673Y-95140302D01*
X137915000Y-95373691D01*
X137915000Y-95466250D01*
X138073750Y-95625000D01*
X138873000Y-95625000D01*
X138873000Y-95603000D01*
X139127000Y-95603000D01*
X139127000Y-95625000D01*
X139926250Y-95625000D01*
X140085000Y-95466250D01*
X140085000Y-95373691D01*
X139988327Y-95140302D01*
X139847090Y-94999064D01*
X139901441Y-94964090D01*
X140046431Y-94751890D01*
X140097440Y-94500000D01*
X140097440Y-94000000D01*
X140053162Y-93764683D01*
X139914090Y-93548559D01*
X139760000Y-93443274D01*
X139760000Y-92555105D01*
X139901441Y-92464090D01*
X139997987Y-92322789D01*
X140540000Y-92864802D01*
G36*
X127652560Y-95175000D02*
X127696838Y-95410317D01*
X127835910Y-95626441D01*
X127965000Y-95714644D01*
X127965000Y-97026737D01*
X127876309Y-96990000D01*
X127635750Y-96990000D01*
X127477000Y-97148750D01*
X127477000Y-97873000D01*
X127497000Y-97873000D01*
X127497000Y-98127000D01*
X127477000Y-98127000D01*
X127477000Y-98851250D01*
X127635750Y-99010000D01*
X127876309Y-99010000D01*
X127965000Y-98973263D01*
X127965000Y-99183421D01*
X126374210Y-100774210D01*
X126182367Y-101061325D01*
X126182367Y-101061326D01*
X126141245Y-101268057D01*
X126088327Y-101140302D01*
X125947090Y-100999064D01*
X126001441Y-100964090D01*
X126146431Y-100751890D01*
X126197440Y-100500000D01*
X126197440Y-100000000D01*
X126153162Y-99764683D01*
X126014090Y-99548559D01*
X125801890Y-99403569D01*
X125550000Y-99352560D01*
X124650000Y-99352560D01*
X124414683Y-99396838D01*
X124269905Y-99490000D01*
X124260000Y-99490000D01*
X124260000Y-98837279D01*
X124451441Y-98714090D01*
X124596431Y-98501890D01*
X124640200Y-98285750D01*
X126315000Y-98285750D01*
X126315000Y-98501310D01*
X126411673Y-98734699D01*
X126590302Y-98913327D01*
X126823691Y-99010000D01*
X127064250Y-99010000D01*
X127223000Y-98851250D01*
X127223000Y-98127000D01*
X126473750Y-98127000D01*
X126315000Y-98285750D01*
X124640200Y-98285750D01*
X124647440Y-98250000D01*
X124647440Y-97498690D01*
X126315000Y-97498690D01*
X126315000Y-97714250D01*
X126473750Y-97873000D01*
X127223000Y-97873000D01*
X127223000Y-97148750D01*
X127064250Y-96990000D01*
X126823691Y-96990000D01*
X126590302Y-97086673D01*
X126411673Y-97265301D01*
X126315000Y-97498690D01*
X124647440Y-97498690D01*
X124647440Y-95750000D01*
X124603162Y-95514683D01*
X124547156Y-95427646D01*
X124889802Y-95085000D01*
X127652560Y-95085000D01*
X127652560Y-95175000D01*
X127652560Y-95175000D01*
G37*
X127652560Y-95175000D02*
X127696838Y-95410317D01*
X127835910Y-95626441D01*
X127965000Y-95714644D01*
X127965000Y-97026737D01*
X127876309Y-96990000D01*
X127635750Y-96990000D01*
X127477000Y-97148750D01*
X127477000Y-97873000D01*
X127497000Y-97873000D01*
X127497000Y-98127000D01*
X127477000Y-98127000D01*
X127477000Y-98851250D01*
X127635750Y-99010000D01*
X127876309Y-99010000D01*
X127965000Y-98973263D01*
X127965000Y-99183421D01*
X126374210Y-100774210D01*
X126182367Y-101061325D01*
X126182367Y-101061326D01*
X126141245Y-101268057D01*
X126088327Y-101140302D01*
X125947090Y-100999064D01*
X126001441Y-100964090D01*
X126146431Y-100751890D01*
X126197440Y-100500000D01*
X126197440Y-100000000D01*
X126153162Y-99764683D01*
X126014090Y-99548559D01*
X125801890Y-99403569D01*
X125550000Y-99352560D01*
X124650000Y-99352560D01*
X124414683Y-99396838D01*
X124269905Y-99490000D01*
X124260000Y-99490000D01*
X124260000Y-98837279D01*
X124451441Y-98714090D01*
X124596431Y-98501890D01*
X124640200Y-98285750D01*
X126315000Y-98285750D01*
X126315000Y-98501310D01*
X126411673Y-98734699D01*
X126590302Y-98913327D01*
X126823691Y-99010000D01*
X127064250Y-99010000D01*
X127223000Y-98851250D01*
X127223000Y-98127000D01*
X126473750Y-98127000D01*
X126315000Y-98285750D01*
X124640200Y-98285750D01*
X124647440Y-98250000D01*
X124647440Y-97498690D01*
X126315000Y-97498690D01*
X126315000Y-97714250D01*
X126473750Y-97873000D01*
X127223000Y-97873000D01*
X127223000Y-97148750D01*
X127064250Y-96990000D01*
X126823691Y-96990000D01*
X126590302Y-97086673D01*
X126411673Y-97265301D01*
X126315000Y-97498690D01*
X124647440Y-97498690D01*
X124647440Y-95750000D01*
X124603162Y-95514683D01*
X124547156Y-95427646D01*
X124889802Y-95085000D01*
X127652560Y-95085000D01*
X127652560Y-95175000D01*
G36*
X176740000Y-77453724D02*
X176587419Y-77351773D01*
X176000000Y-77234928D01*
X175412581Y-77351773D01*
X174943803Y-77665000D01*
X169500000Y-77665000D01*
X169065655Y-77751396D01*
X168697434Y-77997433D01*
X167697434Y-78997434D01*
X167451397Y-79365654D01*
X167397440Y-79636914D01*
X167397440Y-78750000D01*
X167353162Y-78514683D01*
X167214090Y-78298559D01*
X167001890Y-78153569D01*
X166750000Y-78102560D01*
X165050000Y-78102560D01*
X164814683Y-78146838D01*
X164598559Y-78285910D01*
X164453569Y-78498110D01*
X164402560Y-78750000D01*
X164402560Y-80450000D01*
X164446838Y-80685317D01*
X164585910Y-80901441D01*
X164798110Y-81046431D01*
X165050000Y-81097440D01*
X165140000Y-81097440D01*
X165140000Y-81800000D01*
X165197852Y-82090839D01*
X165362599Y-82337401D01*
X165912599Y-82887401D01*
X166159160Y-83052148D01*
X166207414Y-83061746D01*
X166450000Y-83110000D01*
X167094895Y-83110000D01*
X167185910Y-83251441D01*
X167398110Y-83396431D01*
X167650000Y-83447440D01*
X168311174Y-83447440D01*
X168500000Y-83485000D01*
X168688826Y-83447440D01*
X169350000Y-83447440D01*
X169585317Y-83403162D01*
X169801441Y-83264090D01*
X169946431Y-83051890D01*
X169997440Y-82800000D01*
X169997440Y-81900000D01*
X169953162Y-81664683D01*
X169814090Y-81448559D01*
X169635000Y-81326192D01*
X169635000Y-80270132D01*
X169970133Y-79935000D01*
X174943803Y-79935000D01*
X175412581Y-80248227D01*
X176000000Y-80365072D01*
X176587419Y-80248227D01*
X177058595Y-79933397D01*
X177240000Y-80114802D01*
X177240000Y-83097596D01*
X177231398Y-83088994D01*
X177117569Y-83202823D01*
X176994435Y-82915212D01*
X176312266Y-82655293D01*
X175582557Y-82676214D01*
X175005565Y-82915212D01*
X174882430Y-83202825D01*
X176000000Y-84320395D01*
X176014143Y-84306253D01*
X176193748Y-84485858D01*
X176179605Y-84500000D01*
X176193748Y-84514143D01*
X176014143Y-84693748D01*
X176000000Y-84679605D01*
X174882430Y-85797175D01*
X175005565Y-86084788D01*
X175183436Y-86152560D01*
X174800000Y-86152560D01*
X174564683Y-86196838D01*
X174348559Y-86335910D01*
X174203569Y-86548110D01*
X174152560Y-86800000D01*
X174152560Y-86865000D01*
X169970133Y-86865000D01*
X169635000Y-86529868D01*
X169635000Y-86271192D01*
X169801441Y-86164090D01*
X169946431Y-85951890D01*
X169997440Y-85700000D01*
X169997440Y-84800000D01*
X169953162Y-84564683D01*
X169814090Y-84348559D01*
X169601890Y-84203569D01*
X169523695Y-84187734D01*
X174155293Y-84187734D01*
X174176214Y-84917443D01*
X174415212Y-85494435D01*
X174702825Y-85617570D01*
X175820395Y-84500000D01*
X174702825Y-83382430D01*
X174415212Y-83505565D01*
X174155293Y-84187734D01*
X169523695Y-84187734D01*
X169350000Y-84152560D01*
X168688826Y-84152560D01*
X168500000Y-84115000D01*
X168311174Y-84152560D01*
X167650000Y-84152560D01*
X167414683Y-84196838D01*
X167198559Y-84335910D01*
X167093274Y-84490000D01*
X166450000Y-84490000D01*
X166237009Y-84532367D01*
X166159160Y-84547852D01*
X165912599Y-84712599D01*
X165362599Y-85262599D01*
X165197852Y-85509161D01*
X165140000Y-85800000D01*
X165140000Y-86502560D01*
X165050000Y-86502560D01*
X164814683Y-86546838D01*
X164598559Y-86685910D01*
X164453569Y-86898110D01*
X164402560Y-87150000D01*
X164402560Y-88850000D01*
X164446838Y-89085317D01*
X164585910Y-89301441D01*
X164798110Y-89446431D01*
X165050000Y-89497440D01*
X165140000Y-89497440D01*
X165140000Y-94685198D01*
X159562224Y-100262974D01*
X159426250Y-100127000D01*
X158677000Y-100127000D01*
X158677000Y-100147000D01*
X158423000Y-100147000D01*
X158423000Y-100127000D01*
X158403000Y-100127000D01*
X158403000Y-99873000D01*
X158423000Y-99873000D01*
X158423000Y-99853000D01*
X158677000Y-99853000D01*
X158677000Y-99873000D01*
X159426250Y-99873000D01*
X159585000Y-99714250D01*
X159585000Y-99498690D01*
X159548661Y-99410960D01*
X159825790Y-99225790D01*
X160425787Y-98625792D01*
X160425790Y-98625790D01*
X160525787Y-98525792D01*
X160525790Y-98525790D01*
X160717633Y-98238675D01*
X160785000Y-97900000D01*
X160785000Y-89300005D01*
X160785001Y-89300000D01*
X160717634Y-88961326D01*
X160608404Y-88797852D01*
X160525790Y-88674210D01*
X160525787Y-88674208D01*
X156835000Y-84983420D01*
X156835000Y-84670364D01*
X157614414Y-84670364D01*
X158128663Y-85914943D01*
X159080048Y-86867990D01*
X160323728Y-87384411D01*
X161670364Y-87385586D01*
X162914943Y-86871337D01*
X163867990Y-85919952D01*
X164384411Y-84676272D01*
X164385586Y-83329636D01*
X163871337Y-82085057D01*
X162919952Y-81132010D01*
X161676272Y-80615589D01*
X160329636Y-80614414D01*
X159085057Y-81128663D01*
X158132010Y-82080048D01*
X157615589Y-83323728D01*
X157614414Y-84670364D01*
X156835000Y-84670364D01*
X156835000Y-77135000D01*
X175400000Y-77135000D01*
X175834346Y-77048603D01*
X175968682Y-76958842D01*
X176000000Y-76965072D01*
X176587419Y-76848227D01*
X176740000Y-76746276D01*
X176740000Y-77453724D01*
X176740000Y-77453724D01*
G37*
X176740000Y-77453724D02*
X176587419Y-77351773D01*
X176000000Y-77234928D01*
X175412581Y-77351773D01*
X174943803Y-77665000D01*
X169500000Y-77665000D01*
X169065655Y-77751396D01*
X168697434Y-77997433D01*
X167697434Y-78997434D01*
X167451397Y-79365654D01*
X167397440Y-79636914D01*
X167397440Y-78750000D01*
X167353162Y-78514683D01*
X167214090Y-78298559D01*
X167001890Y-78153569D01*
X166750000Y-78102560D01*
X165050000Y-78102560D01*
X164814683Y-78146838D01*
X164598559Y-78285910D01*
X164453569Y-78498110D01*
X164402560Y-78750000D01*
X164402560Y-80450000D01*
X164446838Y-80685317D01*
X164585910Y-80901441D01*
X164798110Y-81046431D01*
X165050000Y-81097440D01*
X165140000Y-81097440D01*
X165140000Y-81800000D01*
X165197852Y-82090839D01*
X165362599Y-82337401D01*
X165912599Y-82887401D01*
X166159160Y-83052148D01*
X166207414Y-83061746D01*
X166450000Y-83110000D01*
X167094895Y-83110000D01*
X167185910Y-83251441D01*
X167398110Y-83396431D01*
X167650000Y-83447440D01*
X168311174Y-83447440D01*
X168500000Y-83485000D01*
X168688826Y-83447440D01*
X169350000Y-83447440D01*
X169585317Y-83403162D01*
X169801441Y-83264090D01*
X169946431Y-83051890D01*
X169997440Y-82800000D01*
X169997440Y-81900000D01*
X169953162Y-81664683D01*
X169814090Y-81448559D01*
X169635000Y-81326192D01*
X169635000Y-80270132D01*
X169970133Y-79935000D01*
X174943803Y-79935000D01*
X175412581Y-80248227D01*
X176000000Y-80365072D01*
X176587419Y-80248227D01*
X177058595Y-79933397D01*
X177240000Y-80114802D01*
X177240000Y-83097596D01*
X177231398Y-83088994D01*
X177117569Y-83202823D01*
X176994435Y-82915212D01*
X176312266Y-82655293D01*
X175582557Y-82676214D01*
X175005565Y-82915212D01*
X174882430Y-83202825D01*
X176000000Y-84320395D01*
X176014143Y-84306253D01*
X176193748Y-84485858D01*
X176179605Y-84500000D01*
X176193748Y-84514143D01*
X176014143Y-84693748D01*
X176000000Y-84679605D01*
X174882430Y-85797175D01*
X175005565Y-86084788D01*
X175183436Y-86152560D01*
X174800000Y-86152560D01*
X174564683Y-86196838D01*
X174348559Y-86335910D01*
X174203569Y-86548110D01*
X174152560Y-86800000D01*
X174152560Y-86865000D01*
X169970133Y-86865000D01*
X169635000Y-86529868D01*
X169635000Y-86271192D01*
X169801441Y-86164090D01*
X169946431Y-85951890D01*
X169997440Y-85700000D01*
X169997440Y-84800000D01*
X169953162Y-84564683D01*
X169814090Y-84348559D01*
X169601890Y-84203569D01*
X169523695Y-84187734D01*
X174155293Y-84187734D01*
X174176214Y-84917443D01*
X174415212Y-85494435D01*
X174702825Y-85617570D01*
X175820395Y-84500000D01*
X174702825Y-83382430D01*
X174415212Y-83505565D01*
X174155293Y-84187734D01*
X169523695Y-84187734D01*
X169350000Y-84152560D01*
X168688826Y-84152560D01*
X168500000Y-84115000D01*
X168311174Y-84152560D01*
X167650000Y-84152560D01*
X167414683Y-84196838D01*
X167198559Y-84335910D01*
X167093274Y-84490000D01*
X166450000Y-84490000D01*
X166237009Y-84532367D01*
X166159160Y-84547852D01*
X165912599Y-84712599D01*
X165362599Y-85262599D01*
X165197852Y-85509161D01*
X165140000Y-85800000D01*
X165140000Y-86502560D01*
X165050000Y-86502560D01*
X164814683Y-86546838D01*
X164598559Y-86685910D01*
X164453569Y-86898110D01*
X164402560Y-87150000D01*
X164402560Y-88850000D01*
X164446838Y-89085317D01*
X164585910Y-89301441D01*
X164798110Y-89446431D01*
X165050000Y-89497440D01*
X165140000Y-89497440D01*
X165140000Y-94685198D01*
X159562224Y-100262974D01*
X159426250Y-100127000D01*
X158677000Y-100127000D01*
X158677000Y-100147000D01*
X158423000Y-100147000D01*
X158423000Y-100127000D01*
X158403000Y-100127000D01*
X158403000Y-99873000D01*
X158423000Y-99873000D01*
X158423000Y-99853000D01*
X158677000Y-99853000D01*
X158677000Y-99873000D01*
X159426250Y-99873000D01*
X159585000Y-99714250D01*
X159585000Y-99498690D01*
X159548661Y-99410960D01*
X159825790Y-99225790D01*
X160425787Y-98625792D01*
X160425790Y-98625790D01*
X160525787Y-98525792D01*
X160525790Y-98525790D01*
X160717633Y-98238675D01*
X160785000Y-97900000D01*
X160785000Y-89300005D01*
X160785001Y-89300000D01*
X160717634Y-88961326D01*
X160608404Y-88797852D01*
X160525790Y-88674210D01*
X160525787Y-88674208D01*
X156835000Y-84983420D01*
X156835000Y-84670364D01*
X157614414Y-84670364D01*
X158128663Y-85914943D01*
X159080048Y-86867990D01*
X160323728Y-87384411D01*
X161670364Y-87385586D01*
X162914943Y-86871337D01*
X163867990Y-85919952D01*
X164384411Y-84676272D01*
X164385586Y-83329636D01*
X163871337Y-82085057D01*
X162919952Y-81132010D01*
X161676272Y-80615589D01*
X160329636Y-80614414D01*
X159085057Y-81128663D01*
X158132010Y-82080048D01*
X157615589Y-83323728D01*
X157614414Y-84670364D01*
X156835000Y-84670364D01*
X156835000Y-77135000D01*
X175400000Y-77135000D01*
X175834346Y-77048603D01*
X175968682Y-76958842D01*
X176000000Y-76965072D01*
X176587419Y-76848227D01*
X176740000Y-76746276D01*
X176740000Y-77453724D01*
G36*
X117961914Y-60443455D02*
X117445270Y-60959199D01*
X117165319Y-61633395D01*
X117164798Y-62230070D01*
X110242308Y-69152560D01*
X108800000Y-69152560D01*
X108564683Y-69196838D01*
X108348559Y-69335910D01*
X108203569Y-69548110D01*
X108152560Y-69800000D01*
X108152560Y-72200000D01*
X108196838Y-72435317D01*
X108335910Y-72651441D01*
X108548110Y-72796431D01*
X108800000Y-72847440D01*
X109194288Y-72847440D01*
X108961914Y-72943455D01*
X108445270Y-73459199D01*
X108165319Y-74133395D01*
X108164682Y-74863403D01*
X108443455Y-75538086D01*
X108959199Y-76054730D01*
X109429785Y-76250135D01*
X108961914Y-76443455D01*
X108445270Y-76959199D01*
X108165319Y-77633395D01*
X108164682Y-78363403D01*
X108443455Y-79038086D01*
X108959199Y-79554730D01*
X109633395Y-79834681D01*
X110363403Y-79835318D01*
X111038086Y-79556545D01*
X111460367Y-79135000D01*
X117000000Y-79135000D01*
X117434346Y-79048603D01*
X117802566Y-78802566D01*
X118770332Y-77834800D01*
X119363403Y-77835318D01*
X120038086Y-77556545D01*
X120554730Y-77040801D01*
X120834681Y-76366605D01*
X120835000Y-76000000D01*
X122209050Y-76000000D01*
X122348731Y-76702224D01*
X122746509Y-77297541D01*
X123341826Y-77695319D01*
X124044050Y-77835000D01*
X124115950Y-77835000D01*
X124818174Y-77695319D01*
X125413491Y-77297541D01*
X125522097Y-77135000D01*
X129146778Y-77135000D01*
X129146838Y-77135317D01*
X129285910Y-77351441D01*
X129498110Y-77496431D01*
X129750000Y-77547440D01*
X132250000Y-77547440D01*
X132485317Y-77503162D01*
X132701441Y-77364090D01*
X132846431Y-77151890D01*
X132897440Y-76900000D01*
X132897440Y-75100000D01*
X132853162Y-74864683D01*
X132714090Y-74648559D01*
X132501890Y-74503569D01*
X132250000Y-74452560D01*
X129750000Y-74452560D01*
X129514683Y-74496838D01*
X129298559Y-74635910D01*
X129153569Y-74848110D01*
X129150149Y-74865000D01*
X125522097Y-74865000D01*
X125413491Y-74702459D01*
X124818174Y-74304681D01*
X124115950Y-74165000D01*
X124044050Y-74165000D01*
X123341826Y-74304681D01*
X122746509Y-74702459D01*
X122348731Y-75297776D01*
X122209050Y-76000000D01*
X120835000Y-76000000D01*
X120835318Y-75636597D01*
X120556545Y-74961914D01*
X120040801Y-74445270D01*
X119366605Y-74165319D01*
X118636597Y-74164682D01*
X117961914Y-74443455D01*
X117445270Y-74959199D01*
X117165319Y-75633395D01*
X117164798Y-76230070D01*
X116529868Y-76865000D01*
X111459800Y-76865000D01*
X111040801Y-76445270D01*
X110570215Y-76249865D01*
X111038086Y-76056545D01*
X111460367Y-75635000D01*
X113500000Y-75635000D01*
X113934346Y-75548603D01*
X114302566Y-75302566D01*
X118319382Y-71285750D01*
X128365000Y-71285750D01*
X128365000Y-72376310D01*
X128461673Y-72609699D01*
X128640302Y-72788327D01*
X128873691Y-72885000D01*
X129214250Y-72885000D01*
X129373000Y-72726250D01*
X129373000Y-71127000D01*
X129627000Y-71127000D01*
X129627000Y-72726250D01*
X129785750Y-72885000D01*
X130126309Y-72885000D01*
X130359698Y-72788327D01*
X130538327Y-72609699D01*
X130635000Y-72376310D01*
X130635000Y-71285750D01*
X130476250Y-71127000D01*
X129627000Y-71127000D01*
X129373000Y-71127000D01*
X128523750Y-71127000D01*
X128365000Y-71285750D01*
X118319382Y-71285750D01*
X118770332Y-70834800D01*
X119363403Y-70835318D01*
X120038086Y-70556545D01*
X120554730Y-70040801D01*
X120815912Y-69411805D01*
X122291805Y-69411805D01*
X122524358Y-69973258D01*
X123015224Y-70494492D01*
X123668193Y-70788203D01*
X123953000Y-70671858D01*
X123953000Y-69127000D01*
X124207000Y-69127000D01*
X124207000Y-70671858D01*
X124491807Y-70788203D01*
X125144776Y-70494492D01*
X125635642Y-69973258D01*
X125780432Y-69623690D01*
X128365000Y-69623690D01*
X128365000Y-70714250D01*
X128523750Y-70873000D01*
X129373000Y-70873000D01*
X129373000Y-69273750D01*
X129627000Y-69273750D01*
X129627000Y-70873000D01*
X130476250Y-70873000D01*
X130635000Y-70714250D01*
X130635000Y-69623690D01*
X130538327Y-69390301D01*
X130359698Y-69211673D01*
X130126309Y-69115000D01*
X129785750Y-69115000D01*
X129627000Y-69273750D01*
X129373000Y-69273750D01*
X129214250Y-69115000D01*
X128873691Y-69115000D01*
X128640302Y-69211673D01*
X128461673Y-69390301D01*
X128365000Y-69623690D01*
X125780432Y-69623690D01*
X125868195Y-69411805D01*
X125751432Y-69127000D01*
X124207000Y-69127000D01*
X123953000Y-69127000D01*
X122408568Y-69127000D01*
X122291805Y-69411805D01*
X120815912Y-69411805D01*
X120834681Y-69366605D01*
X120835318Y-68636597D01*
X120815319Y-68588195D01*
X122291805Y-68588195D01*
X122408568Y-68873000D01*
X123953000Y-68873000D01*
X123953000Y-67328142D01*
X124207000Y-67328142D01*
X124207000Y-68873000D01*
X125751432Y-68873000D01*
X125868195Y-68588195D01*
X125635642Y-68026742D01*
X125144776Y-67505508D01*
X124656217Y-67285750D01*
X128365000Y-67285750D01*
X128365000Y-68376310D01*
X128461673Y-68609699D01*
X128640302Y-68788327D01*
X128873691Y-68885000D01*
X129214250Y-68885000D01*
X129373000Y-68726250D01*
X129373000Y-67127000D01*
X129627000Y-67127000D01*
X129627000Y-68726250D01*
X129785750Y-68885000D01*
X130126309Y-68885000D01*
X130359698Y-68788327D01*
X130538327Y-68609699D01*
X130635000Y-68376310D01*
X130635000Y-67285750D01*
X130476250Y-67127000D01*
X129627000Y-67127000D01*
X129373000Y-67127000D01*
X128523750Y-67127000D01*
X128365000Y-67285750D01*
X124656217Y-67285750D01*
X124491807Y-67211797D01*
X124207000Y-67328142D01*
X123953000Y-67328142D01*
X123668193Y-67211797D01*
X123015224Y-67505508D01*
X122524358Y-68026742D01*
X122291805Y-68588195D01*
X120815319Y-68588195D01*
X120556545Y-67961914D01*
X120040801Y-67445270D01*
X119366605Y-67165319D01*
X118636597Y-67164682D01*
X117961914Y-67443455D01*
X117445270Y-67959199D01*
X117165319Y-68633395D01*
X117164798Y-69230070D01*
X113029868Y-73365000D01*
X111459800Y-73365000D01*
X111040801Y-72945270D01*
X110805201Y-72847440D01*
X111200000Y-72847440D01*
X111435317Y-72803162D01*
X111651441Y-72664090D01*
X111796431Y-72451890D01*
X111847440Y-72200000D01*
X111847440Y-70757692D01*
X116981442Y-65623690D01*
X128365000Y-65623690D01*
X128365000Y-66714250D01*
X128523750Y-66873000D01*
X129373000Y-66873000D01*
X129373000Y-65273750D01*
X129627000Y-65273750D01*
X129627000Y-66873000D01*
X130476250Y-66873000D01*
X130635000Y-66714250D01*
X130635000Y-65623690D01*
X130538327Y-65390301D01*
X130359698Y-65211673D01*
X130126309Y-65115000D01*
X129785750Y-65115000D01*
X129627000Y-65273750D01*
X129373000Y-65273750D01*
X129214250Y-65115000D01*
X128873691Y-65115000D01*
X128640302Y-65211673D01*
X128461673Y-65390301D01*
X128365000Y-65623690D01*
X116981442Y-65623690D01*
X118770332Y-63834800D01*
X119363403Y-63835318D01*
X120038086Y-63556545D01*
X120554730Y-63040801D01*
X120834681Y-62366605D01*
X120835318Y-61636597D01*
X120556545Y-60961914D01*
X120040801Y-60445270D01*
X119775242Y-60335000D01*
X123296450Y-60335000D01*
X122746509Y-60702459D01*
X122348731Y-61297776D01*
X122209050Y-62000000D01*
X122348731Y-62702224D01*
X122746509Y-63297541D01*
X123341826Y-63695319D01*
X124044050Y-63835000D01*
X124115950Y-63835000D01*
X124818174Y-63695319D01*
X125413491Y-63297541D01*
X125522097Y-63135000D01*
X129146778Y-63135000D01*
X129146838Y-63135317D01*
X129285910Y-63351441D01*
X129498110Y-63496431D01*
X129750000Y-63547440D01*
X132250000Y-63547440D01*
X132485317Y-63503162D01*
X132701441Y-63364090D01*
X132846431Y-63151890D01*
X132897440Y-62900000D01*
X132897440Y-61502572D01*
X133102560Y-61707692D01*
X133102560Y-62900000D01*
X133146838Y-63135317D01*
X133285910Y-63351441D01*
X133498110Y-63496431D01*
X133750000Y-63547440D01*
X133865000Y-63547440D01*
X133865000Y-64000000D01*
X133951397Y-64434346D01*
X134096928Y-64652148D01*
X134197434Y-64802566D01*
X135259868Y-65865000D01*
X133647440Y-65865000D01*
X133647440Y-65750000D01*
X133603162Y-65514683D01*
X133464090Y-65298559D01*
X133251890Y-65153569D01*
X133000000Y-65102560D01*
X132000000Y-65102560D01*
X131764683Y-65146838D01*
X131548559Y-65285910D01*
X131403569Y-65498110D01*
X131352560Y-65750000D01*
X131352560Y-68250000D01*
X131396838Y-68485317D01*
X131535910Y-68701441D01*
X131748110Y-68846431D01*
X132000000Y-68897440D01*
X133000000Y-68897440D01*
X133235317Y-68853162D01*
X133451441Y-68714090D01*
X133596431Y-68501890D01*
X133647440Y-68250000D01*
X133647440Y-68135000D01*
X135452560Y-68135000D01*
X135452560Y-68250000D01*
X135496838Y-68485317D01*
X135635910Y-68701441D01*
X135848110Y-68846431D01*
X136100000Y-68897440D01*
X137900000Y-68897440D01*
X138135317Y-68853162D01*
X138351441Y-68714090D01*
X138496431Y-68501890D01*
X138547440Y-68250000D01*
X138547440Y-68152572D01*
X140597434Y-70202567D01*
X140965655Y-70448604D01*
X141400000Y-70535000D01*
X174805378Y-70535000D01*
X174648559Y-70635910D01*
X174503569Y-70848110D01*
X174452560Y-71100000D01*
X174452560Y-72900000D01*
X174496838Y-73135317D01*
X174635910Y-73351441D01*
X174848110Y-73496431D01*
X175100000Y-73547440D01*
X176472638Y-73547440D01*
X176740000Y-73814802D01*
X176740000Y-74053724D01*
X176587419Y-73951773D01*
X176000000Y-73834928D01*
X175412581Y-73951773D01*
X174914591Y-74284519D01*
X174581845Y-74782509D01*
X174565437Y-74865000D01*
X136853222Y-74865000D01*
X136853162Y-74864683D01*
X136714090Y-74648559D01*
X136501890Y-74503569D01*
X136250000Y-74452560D01*
X136135000Y-74452560D01*
X136135000Y-74070132D01*
X137307692Y-72897440D01*
X137900000Y-72897440D01*
X138135317Y-72853162D01*
X138351441Y-72714090D01*
X138496431Y-72501890D01*
X138547440Y-72250000D01*
X138547440Y-69750000D01*
X138503162Y-69514683D01*
X138364090Y-69298559D01*
X138151890Y-69153569D01*
X137900000Y-69102560D01*
X136100000Y-69102560D01*
X135864683Y-69146838D01*
X135648559Y-69285910D01*
X135503569Y-69498110D01*
X135452560Y-69750000D01*
X135452560Y-69865000D01*
X133647440Y-69865000D01*
X133647440Y-69750000D01*
X133603162Y-69514683D01*
X133464090Y-69298559D01*
X133251890Y-69153569D01*
X133000000Y-69102560D01*
X132000000Y-69102560D01*
X131764683Y-69146838D01*
X131548559Y-69285910D01*
X131403569Y-69498110D01*
X131352560Y-69750000D01*
X131352560Y-72250000D01*
X131396838Y-72485317D01*
X131535910Y-72701441D01*
X131748110Y-72846431D01*
X132000000Y-72897440D01*
X133000000Y-72897440D01*
X133235317Y-72853162D01*
X133451441Y-72714090D01*
X133596431Y-72501890D01*
X133647440Y-72250000D01*
X133647440Y-72135000D01*
X134859868Y-72135000D01*
X134197434Y-72797434D01*
X133951397Y-73165654D01*
X133865000Y-73600000D01*
X133865000Y-74452560D01*
X133750000Y-74452560D01*
X133514683Y-74496838D01*
X133298559Y-74635910D01*
X133153569Y-74848110D01*
X133102560Y-75100000D01*
X133102560Y-76900000D01*
X133146838Y-77135317D01*
X133285910Y-77351441D01*
X133498110Y-77496431D01*
X133750000Y-77547440D01*
X136250000Y-77547440D01*
X136485317Y-77503162D01*
X136701441Y-77364090D01*
X136846431Y-77151890D01*
X136849851Y-77135000D01*
X155065000Y-77135000D01*
X155065000Y-85349995D01*
X155064999Y-85350000D01*
X155110750Y-85580000D01*
X155132367Y-85688675D01*
X155297167Y-85935317D01*
X155324210Y-85975790D01*
X159015000Y-89666579D01*
X159015000Y-97533421D01*
X158922440Y-97625980D01*
X158922440Y-96570000D01*
X158878162Y-96334683D01*
X158739090Y-96118559D01*
X158710000Y-96098683D01*
X158710000Y-95904669D01*
X158726441Y-95894090D01*
X158871431Y-95681890D01*
X158922440Y-95430000D01*
X158922440Y-94370000D01*
X158878162Y-94134683D01*
X158739090Y-93918559D01*
X158526890Y-93773569D01*
X158275000Y-93722560D01*
X157625000Y-93722560D01*
X157389683Y-93766838D01*
X157173559Y-93905910D01*
X157028569Y-94118110D01*
X157000824Y-94255120D01*
X156978162Y-94134683D01*
X156935000Y-94067607D01*
X156935000Y-92973263D01*
X157023691Y-93010000D01*
X157264250Y-93010000D01*
X157423000Y-92851250D01*
X157423000Y-92127000D01*
X157677000Y-92127000D01*
X157677000Y-92851250D01*
X157835750Y-93010000D01*
X158076309Y-93010000D01*
X158309698Y-92913327D01*
X158488327Y-92734699D01*
X158585000Y-92501310D01*
X158585000Y-92285750D01*
X158426250Y-92127000D01*
X157677000Y-92127000D01*
X157423000Y-92127000D01*
X157403000Y-92127000D01*
X157403000Y-91873000D01*
X157423000Y-91873000D01*
X157423000Y-91148750D01*
X157677000Y-91148750D01*
X157677000Y-91873000D01*
X158426250Y-91873000D01*
X158585000Y-91714250D01*
X158585000Y-91498690D01*
X158488327Y-91265301D01*
X158309698Y-91086673D01*
X158076309Y-90990000D01*
X157835750Y-90990000D01*
X157677000Y-91148750D01*
X157423000Y-91148750D01*
X157264250Y-90990000D01*
X157023691Y-90990000D01*
X156935000Y-91026737D01*
X156935000Y-88850005D01*
X156935001Y-88850000D01*
X156867633Y-88511326D01*
X156867633Y-88511325D01*
X156675790Y-88224210D01*
X156675787Y-88224208D01*
X153525790Y-85074210D01*
X153431677Y-85011326D01*
X153238675Y-84882367D01*
X153151366Y-84865000D01*
X152900000Y-84814999D01*
X152899995Y-84815000D01*
X147365005Y-84815000D01*
X147365000Y-84814999D01*
X147364995Y-84815000D01*
X133200005Y-84815000D01*
X133200000Y-84814999D01*
X133199995Y-84815000D01*
X117700000Y-84815000D01*
X117361325Y-84882367D01*
X117074210Y-85074210D01*
X117074208Y-85074213D01*
X116374210Y-85774210D01*
X116182367Y-86061325D01*
X116182367Y-86061326D01*
X116114999Y-86400000D01*
X116115000Y-86400005D01*
X116115000Y-91102560D01*
X116100000Y-91102560D01*
X115864683Y-91146838D01*
X115648559Y-91285910D01*
X115503569Y-91498110D01*
X115452560Y-91750000D01*
X115452560Y-92115000D01*
X105985000Y-92115000D01*
X105985000Y-85567252D01*
X106128663Y-85914943D01*
X107080048Y-86867990D01*
X108323728Y-87384411D01*
X109670364Y-87385586D01*
X110914943Y-86871337D01*
X111867990Y-85919952D01*
X112384411Y-84676272D01*
X112385586Y-83329636D01*
X111871337Y-82085057D01*
X110919952Y-81132010D01*
X109676272Y-80615589D01*
X108329636Y-80614414D01*
X107085057Y-81128663D01*
X106132010Y-82080048D01*
X105985000Y-82434087D01*
X105985000Y-65266580D01*
X106454404Y-64797175D01*
X108882430Y-64797175D01*
X109005565Y-65084788D01*
X109687734Y-65344707D01*
X110417443Y-65323786D01*
X110994435Y-65084788D01*
X111117570Y-64797175D01*
X110000000Y-63679605D01*
X108882430Y-64797175D01*
X106454404Y-64797175D01*
X108211584Y-63039995D01*
X108155293Y-63187734D01*
X108176214Y-63917443D01*
X108415212Y-64494435D01*
X108702825Y-64617570D01*
X109820395Y-63500000D01*
X110179605Y-63500000D01*
X111297175Y-64617570D01*
X111584788Y-64494435D01*
X111844707Y-63812266D01*
X111823786Y-63082557D01*
X111584788Y-62505565D01*
X111297175Y-62382430D01*
X110179605Y-63500000D01*
X109820395Y-63500000D01*
X109806253Y-63485858D01*
X109985858Y-63306253D01*
X110000000Y-63320395D01*
X111117570Y-62202825D01*
X110994435Y-61915212D01*
X110816564Y-61847440D01*
X111200000Y-61847440D01*
X111435317Y-61803162D01*
X111651441Y-61664090D01*
X111796431Y-61451890D01*
X111847440Y-61200000D01*
X111847440Y-60335000D01*
X118224395Y-60335000D01*
X117961914Y-60443455D01*
X117961914Y-60443455D01*
G37*
X117961914Y-60443455D02*
X117445270Y-60959199D01*
X117165319Y-61633395D01*
X117164798Y-62230070D01*
X110242308Y-69152560D01*
X108800000Y-69152560D01*
X108564683Y-69196838D01*
X108348559Y-69335910D01*
X108203569Y-69548110D01*
X108152560Y-69800000D01*
X108152560Y-72200000D01*
X108196838Y-72435317D01*
X108335910Y-72651441D01*
X108548110Y-72796431D01*
X108800000Y-72847440D01*
X109194288Y-72847440D01*
X108961914Y-72943455D01*
X108445270Y-73459199D01*
X108165319Y-74133395D01*
X108164682Y-74863403D01*
X108443455Y-75538086D01*
X108959199Y-76054730D01*
X109429785Y-76250135D01*
X108961914Y-76443455D01*
X108445270Y-76959199D01*
X108165319Y-77633395D01*
X108164682Y-78363403D01*
X108443455Y-79038086D01*
X108959199Y-79554730D01*
X109633395Y-79834681D01*
X110363403Y-79835318D01*
X111038086Y-79556545D01*
X111460367Y-79135000D01*
X117000000Y-79135000D01*
X117434346Y-79048603D01*
X117802566Y-78802566D01*
X118770332Y-77834800D01*
X119363403Y-77835318D01*
X120038086Y-77556545D01*
X120554730Y-77040801D01*
X120834681Y-76366605D01*
X120835000Y-76000000D01*
X122209050Y-76000000D01*
X122348731Y-76702224D01*
X122746509Y-77297541D01*
X123341826Y-77695319D01*
X124044050Y-77835000D01*
X124115950Y-77835000D01*
X124818174Y-77695319D01*
X125413491Y-77297541D01*
X125522097Y-77135000D01*
X129146778Y-77135000D01*
X129146838Y-77135317D01*
X129285910Y-77351441D01*
X129498110Y-77496431D01*
X129750000Y-77547440D01*
X132250000Y-77547440D01*
X132485317Y-77503162D01*
X132701441Y-77364090D01*
X132846431Y-77151890D01*
X132897440Y-76900000D01*
X132897440Y-75100000D01*
X132853162Y-74864683D01*
X132714090Y-74648559D01*
X132501890Y-74503569D01*
X132250000Y-74452560D01*
X129750000Y-74452560D01*
X129514683Y-74496838D01*
X129298559Y-74635910D01*
X129153569Y-74848110D01*
X129150149Y-74865000D01*
X125522097Y-74865000D01*
X125413491Y-74702459D01*
X124818174Y-74304681D01*
X124115950Y-74165000D01*
X124044050Y-74165000D01*
X123341826Y-74304681D01*
X122746509Y-74702459D01*
X122348731Y-75297776D01*
X122209050Y-76000000D01*
X120835000Y-76000000D01*
X120835318Y-75636597D01*
X120556545Y-74961914D01*
X120040801Y-74445270D01*
X119366605Y-74165319D01*
X118636597Y-74164682D01*
X117961914Y-74443455D01*
X117445270Y-74959199D01*
X117165319Y-75633395D01*
X117164798Y-76230070D01*
X116529868Y-76865000D01*
X111459800Y-76865000D01*
X111040801Y-76445270D01*
X110570215Y-76249865D01*
X111038086Y-76056545D01*
X111460367Y-75635000D01*
X113500000Y-75635000D01*
X113934346Y-75548603D01*
X114302566Y-75302566D01*
X118319382Y-71285750D01*
X128365000Y-71285750D01*
X128365000Y-72376310D01*
X128461673Y-72609699D01*
X128640302Y-72788327D01*
X128873691Y-72885000D01*
X129214250Y-72885000D01*
X129373000Y-72726250D01*
X129373000Y-71127000D01*
X129627000Y-71127000D01*
X129627000Y-72726250D01*
X129785750Y-72885000D01*
X130126309Y-72885000D01*
X130359698Y-72788327D01*
X130538327Y-72609699D01*
X130635000Y-72376310D01*
X130635000Y-71285750D01*
X130476250Y-71127000D01*
X129627000Y-71127000D01*
X129373000Y-71127000D01*
X128523750Y-71127000D01*
X128365000Y-71285750D01*
X118319382Y-71285750D01*
X118770332Y-70834800D01*
X119363403Y-70835318D01*
X120038086Y-70556545D01*
X120554730Y-70040801D01*
X120815912Y-69411805D01*
X122291805Y-69411805D01*
X122524358Y-69973258D01*
X123015224Y-70494492D01*
X123668193Y-70788203D01*
X123953000Y-70671858D01*
X123953000Y-69127000D01*
X124207000Y-69127000D01*
X124207000Y-70671858D01*
X124491807Y-70788203D01*
X125144776Y-70494492D01*
X125635642Y-69973258D01*
X125780432Y-69623690D01*
X128365000Y-69623690D01*
X128365000Y-70714250D01*
X128523750Y-70873000D01*
X129373000Y-70873000D01*
X129373000Y-69273750D01*
X129627000Y-69273750D01*
X129627000Y-70873000D01*
X130476250Y-70873000D01*
X130635000Y-70714250D01*
X130635000Y-69623690D01*
X130538327Y-69390301D01*
X130359698Y-69211673D01*
X130126309Y-69115000D01*
X129785750Y-69115000D01*
X129627000Y-69273750D01*
X129373000Y-69273750D01*
X129214250Y-69115000D01*
X128873691Y-69115000D01*
X128640302Y-69211673D01*
X128461673Y-69390301D01*
X128365000Y-69623690D01*
X125780432Y-69623690D01*
X125868195Y-69411805D01*
X125751432Y-69127000D01*
X124207000Y-69127000D01*
X123953000Y-69127000D01*
X122408568Y-69127000D01*
X122291805Y-69411805D01*
X120815912Y-69411805D01*
X120834681Y-69366605D01*
X120835318Y-68636597D01*
X120815319Y-68588195D01*
X122291805Y-68588195D01*
X122408568Y-68873000D01*
X123953000Y-68873000D01*
X123953000Y-67328142D01*
X124207000Y-67328142D01*
X124207000Y-68873000D01*
X125751432Y-68873000D01*
X125868195Y-68588195D01*
X125635642Y-68026742D01*
X125144776Y-67505508D01*
X124656217Y-67285750D01*
X128365000Y-67285750D01*
X128365000Y-68376310D01*
X128461673Y-68609699D01*
X128640302Y-68788327D01*
X128873691Y-68885000D01*
X129214250Y-68885000D01*
X129373000Y-68726250D01*
X129373000Y-67127000D01*
X129627000Y-67127000D01*
X129627000Y-68726250D01*
X129785750Y-68885000D01*
X130126309Y-68885000D01*
X130359698Y-68788327D01*
X130538327Y-68609699D01*
X130635000Y-68376310D01*
X130635000Y-67285750D01*
X130476250Y-67127000D01*
X129627000Y-67127000D01*
X129373000Y-67127000D01*
X128523750Y-67127000D01*
X128365000Y-67285750D01*
X124656217Y-67285750D01*
X124491807Y-67211797D01*
X124207000Y-67328142D01*
X123953000Y-67328142D01*
X123668193Y-67211797D01*
X123015224Y-67505508D01*
X122524358Y-68026742D01*
X122291805Y-68588195D01*
X120815319Y-68588195D01*
X120556545Y-67961914D01*
X120040801Y-67445270D01*
X119366605Y-67165319D01*
X118636597Y-67164682D01*
X117961914Y-67443455D01*
X117445270Y-67959199D01*
X117165319Y-68633395D01*
X117164798Y-69230070D01*
X113029868Y-73365000D01*
X111459800Y-73365000D01*
X111040801Y-72945270D01*
X110805201Y-72847440D01*
X111200000Y-72847440D01*
X111435317Y-72803162D01*
X111651441Y-72664090D01*
X111796431Y-72451890D01*
X111847440Y-72200000D01*
X111847440Y-70757692D01*
X116981442Y-65623690D01*
X128365000Y-65623690D01*
X128365000Y-66714250D01*
X128523750Y-66873000D01*
X129373000Y-66873000D01*
X129373000Y-65273750D01*
X129627000Y-65273750D01*
X129627000Y-66873000D01*
X130476250Y-66873000D01*
X130635000Y-66714250D01*
X130635000Y-65623690D01*
X130538327Y-65390301D01*
X130359698Y-65211673D01*
X130126309Y-65115000D01*
X129785750Y-65115000D01*
X129627000Y-65273750D01*
X129373000Y-65273750D01*
X129214250Y-65115000D01*
X128873691Y-65115000D01*
X128640302Y-65211673D01*
X128461673Y-65390301D01*
X128365000Y-65623690D01*
X116981442Y-65623690D01*
X118770332Y-63834800D01*
X119363403Y-63835318D01*
X120038086Y-63556545D01*
X120554730Y-63040801D01*
X120834681Y-62366605D01*
X120835318Y-61636597D01*
X120556545Y-60961914D01*
X120040801Y-60445270D01*
X119775242Y-60335000D01*
X123296450Y-60335000D01*
X122746509Y-60702459D01*
X122348731Y-61297776D01*
X122209050Y-62000000D01*
X122348731Y-62702224D01*
X122746509Y-63297541D01*
X123341826Y-63695319D01*
X124044050Y-63835000D01*
X124115950Y-63835000D01*
X124818174Y-63695319D01*
X125413491Y-63297541D01*
X125522097Y-63135000D01*
X129146778Y-63135000D01*
X129146838Y-63135317D01*
X129285910Y-63351441D01*
X129498110Y-63496431D01*
X129750000Y-63547440D01*
X132250000Y-63547440D01*
X132485317Y-63503162D01*
X132701441Y-63364090D01*
X132846431Y-63151890D01*
X132897440Y-62900000D01*
X132897440Y-61502572D01*
X133102560Y-61707692D01*
X133102560Y-62900000D01*
X133146838Y-63135317D01*
X133285910Y-63351441D01*
X133498110Y-63496431D01*
X133750000Y-63547440D01*
X133865000Y-63547440D01*
X133865000Y-64000000D01*
X133951397Y-64434346D01*
X134096928Y-64652148D01*
X134197434Y-64802566D01*
X135259868Y-65865000D01*
X133647440Y-65865000D01*
X133647440Y-65750000D01*
X133603162Y-65514683D01*
X133464090Y-65298559D01*
X133251890Y-65153569D01*
X133000000Y-65102560D01*
X132000000Y-65102560D01*
X131764683Y-65146838D01*
X131548559Y-65285910D01*
X131403569Y-65498110D01*
X131352560Y-65750000D01*
X131352560Y-68250000D01*
X131396838Y-68485317D01*
X131535910Y-68701441D01*
X131748110Y-68846431D01*
X132000000Y-68897440D01*
X133000000Y-68897440D01*
X133235317Y-68853162D01*
X133451441Y-68714090D01*
X133596431Y-68501890D01*
X133647440Y-68250000D01*
X133647440Y-68135000D01*
X135452560Y-68135000D01*
X135452560Y-68250000D01*
X135496838Y-68485317D01*
X135635910Y-68701441D01*
X135848110Y-68846431D01*
X136100000Y-68897440D01*
X137900000Y-68897440D01*
X138135317Y-68853162D01*
X138351441Y-68714090D01*
X138496431Y-68501890D01*
X138547440Y-68250000D01*
X138547440Y-68152572D01*
X140597434Y-70202567D01*
X140965655Y-70448604D01*
X141400000Y-70535000D01*
X174805378Y-70535000D01*
X174648559Y-70635910D01*
X174503569Y-70848110D01*
X174452560Y-71100000D01*
X174452560Y-72900000D01*
X174496838Y-73135317D01*
X174635910Y-73351441D01*
X174848110Y-73496431D01*
X175100000Y-73547440D01*
X176472638Y-73547440D01*
X176740000Y-73814802D01*
X176740000Y-74053724D01*
X176587419Y-73951773D01*
X176000000Y-73834928D01*
X175412581Y-73951773D01*
X174914591Y-74284519D01*
X174581845Y-74782509D01*
X174565437Y-74865000D01*
X136853222Y-74865000D01*
X136853162Y-74864683D01*
X136714090Y-74648559D01*
X136501890Y-74503569D01*
X136250000Y-74452560D01*
X136135000Y-74452560D01*
X136135000Y-74070132D01*
X137307692Y-72897440D01*
X137900000Y-72897440D01*
X138135317Y-72853162D01*
X138351441Y-72714090D01*
X138496431Y-72501890D01*
X138547440Y-72250000D01*
X138547440Y-69750000D01*
X138503162Y-69514683D01*
X138364090Y-69298559D01*
X138151890Y-69153569D01*
X137900000Y-69102560D01*
X136100000Y-69102560D01*
X135864683Y-69146838D01*
X135648559Y-69285910D01*
X135503569Y-69498110D01*
X135452560Y-69750000D01*
X135452560Y-69865000D01*
X133647440Y-69865000D01*
X133647440Y-69750000D01*
X133603162Y-69514683D01*
X133464090Y-69298559D01*
X133251890Y-69153569D01*
X133000000Y-69102560D01*
X132000000Y-69102560D01*
X131764683Y-69146838D01*
X131548559Y-69285910D01*
X131403569Y-69498110D01*
X131352560Y-69750000D01*
X131352560Y-72250000D01*
X131396838Y-72485317D01*
X131535910Y-72701441D01*
X131748110Y-72846431D01*
X132000000Y-72897440D01*
X133000000Y-72897440D01*
X133235317Y-72853162D01*
X133451441Y-72714090D01*
X133596431Y-72501890D01*
X133647440Y-72250000D01*
X133647440Y-72135000D01*
X134859868Y-72135000D01*
X134197434Y-72797434D01*
X133951397Y-73165654D01*
X133865000Y-73600000D01*
X133865000Y-74452560D01*
X133750000Y-74452560D01*
X133514683Y-74496838D01*
X133298559Y-74635910D01*
X133153569Y-74848110D01*
X133102560Y-75100000D01*
X133102560Y-76900000D01*
X133146838Y-77135317D01*
X133285910Y-77351441D01*
X133498110Y-77496431D01*
X133750000Y-77547440D01*
X136250000Y-77547440D01*
X136485317Y-77503162D01*
X136701441Y-77364090D01*
X136846431Y-77151890D01*
X136849851Y-77135000D01*
X155065000Y-77135000D01*
X155065000Y-85349995D01*
X155064999Y-85350000D01*
X155110750Y-85580000D01*
X155132367Y-85688675D01*
X155297167Y-85935317D01*
X155324210Y-85975790D01*
X159015000Y-89666579D01*
X159015000Y-97533421D01*
X158922440Y-97625980D01*
X158922440Y-96570000D01*
X158878162Y-96334683D01*
X158739090Y-96118559D01*
X158710000Y-96098683D01*
X158710000Y-95904669D01*
X158726441Y-95894090D01*
X158871431Y-95681890D01*
X158922440Y-95430000D01*
X158922440Y-94370000D01*
X158878162Y-94134683D01*
X158739090Y-93918559D01*
X158526890Y-93773569D01*
X158275000Y-93722560D01*
X157625000Y-93722560D01*
X157389683Y-93766838D01*
X157173559Y-93905910D01*
X157028569Y-94118110D01*
X157000824Y-94255120D01*
X156978162Y-94134683D01*
X156935000Y-94067607D01*
X156935000Y-92973263D01*
X157023691Y-93010000D01*
X157264250Y-93010000D01*
X157423000Y-92851250D01*
X157423000Y-92127000D01*
X157677000Y-92127000D01*
X157677000Y-92851250D01*
X157835750Y-93010000D01*
X158076309Y-93010000D01*
X158309698Y-92913327D01*
X158488327Y-92734699D01*
X158585000Y-92501310D01*
X158585000Y-92285750D01*
X158426250Y-92127000D01*
X157677000Y-92127000D01*
X157423000Y-92127000D01*
X157403000Y-92127000D01*
X157403000Y-91873000D01*
X157423000Y-91873000D01*
X157423000Y-91148750D01*
X157677000Y-91148750D01*
X157677000Y-91873000D01*
X158426250Y-91873000D01*
X158585000Y-91714250D01*
X158585000Y-91498690D01*
X158488327Y-91265301D01*
X158309698Y-91086673D01*
X158076309Y-90990000D01*
X157835750Y-90990000D01*
X157677000Y-91148750D01*
X157423000Y-91148750D01*
X157264250Y-90990000D01*
X157023691Y-90990000D01*
X156935000Y-91026737D01*
X156935000Y-88850005D01*
X156935001Y-88850000D01*
X156867633Y-88511326D01*
X156867633Y-88511325D01*
X156675790Y-88224210D01*
X156675787Y-88224208D01*
X153525790Y-85074210D01*
X153431677Y-85011326D01*
X153238675Y-84882367D01*
X153151366Y-84865000D01*
X152900000Y-84814999D01*
X152899995Y-84815000D01*
X147365005Y-84815000D01*
X147365000Y-84814999D01*
X147364995Y-84815000D01*
X133200005Y-84815000D01*
X133200000Y-84814999D01*
X133199995Y-84815000D01*
X117700000Y-84815000D01*
X117361325Y-84882367D01*
X117074210Y-85074210D01*
X117074208Y-85074213D01*
X116374210Y-85774210D01*
X116182367Y-86061325D01*
X116182367Y-86061326D01*
X116114999Y-86400000D01*
X116115000Y-86400005D01*
X116115000Y-91102560D01*
X116100000Y-91102560D01*
X115864683Y-91146838D01*
X115648559Y-91285910D01*
X115503569Y-91498110D01*
X115452560Y-91750000D01*
X115452560Y-92115000D01*
X105985000Y-92115000D01*
X105985000Y-85567252D01*
X106128663Y-85914943D01*
X107080048Y-86867990D01*
X108323728Y-87384411D01*
X109670364Y-87385586D01*
X110914943Y-86871337D01*
X111867990Y-85919952D01*
X112384411Y-84676272D01*
X112385586Y-83329636D01*
X111871337Y-82085057D01*
X110919952Y-81132010D01*
X109676272Y-80615589D01*
X108329636Y-80614414D01*
X107085057Y-81128663D01*
X106132010Y-82080048D01*
X105985000Y-82434087D01*
X105985000Y-65266580D01*
X106454404Y-64797175D01*
X108882430Y-64797175D01*
X109005565Y-65084788D01*
X109687734Y-65344707D01*
X110417443Y-65323786D01*
X110994435Y-65084788D01*
X111117570Y-64797175D01*
X110000000Y-63679605D01*
X108882430Y-64797175D01*
X106454404Y-64797175D01*
X108211584Y-63039995D01*
X108155293Y-63187734D01*
X108176214Y-63917443D01*
X108415212Y-64494435D01*
X108702825Y-64617570D01*
X109820395Y-63500000D01*
X110179605Y-63500000D01*
X111297175Y-64617570D01*
X111584788Y-64494435D01*
X111844707Y-63812266D01*
X111823786Y-63082557D01*
X111584788Y-62505565D01*
X111297175Y-62382430D01*
X110179605Y-63500000D01*
X109820395Y-63500000D01*
X109806253Y-63485858D01*
X109985858Y-63306253D01*
X110000000Y-63320395D01*
X111117570Y-62202825D01*
X110994435Y-61915212D01*
X110816564Y-61847440D01*
X111200000Y-61847440D01*
X111435317Y-61803162D01*
X111651441Y-61664090D01*
X111796431Y-61451890D01*
X111847440Y-61200000D01*
X111847440Y-60335000D01*
X118224395Y-60335000D01*
X117961914Y-60443455D01*
G36*
X155165000Y-89216579D02*
X155165000Y-91210025D01*
X155053569Y-91373110D01*
X155002560Y-91625000D01*
X155002560Y-92375000D01*
X155046838Y-92610317D01*
X155165000Y-92793946D01*
X155165000Y-94064791D01*
X155128569Y-94118110D01*
X155077560Y-94370000D01*
X155077560Y-95240000D01*
X154862463Y-95240000D01*
X154830327Y-95207808D01*
X154486799Y-95065162D01*
X154160000Y-95064877D01*
X154160000Y-92500000D01*
X154102148Y-92209161D01*
X153937401Y-91962599D01*
X153137401Y-91162599D01*
X152890839Y-90997852D01*
X152600000Y-90940000D01*
X149200000Y-90940000D01*
X148909161Y-90997852D01*
X148662599Y-91162599D01*
X148250000Y-91575198D01*
X148250000Y-90868022D01*
X148346431Y-90726890D01*
X148397440Y-90475000D01*
X148397440Y-89725000D01*
X148353162Y-89489683D01*
X148250000Y-89329365D01*
X148250000Y-86585000D01*
X152533420Y-86585000D01*
X155165000Y-89216579D01*
X155165000Y-89216579D01*
G37*
X155165000Y-89216579D02*
X155165000Y-91210025D01*
X155053569Y-91373110D01*
X155002560Y-91625000D01*
X155002560Y-92375000D01*
X155046838Y-92610317D01*
X155165000Y-92793946D01*
X155165000Y-94064791D01*
X155128569Y-94118110D01*
X155077560Y-94370000D01*
X155077560Y-95240000D01*
X154862463Y-95240000D01*
X154830327Y-95207808D01*
X154486799Y-95065162D01*
X154160000Y-95064877D01*
X154160000Y-92500000D01*
X154102148Y-92209161D01*
X153937401Y-91962599D01*
X153137401Y-91162599D01*
X152890839Y-90997852D01*
X152600000Y-90940000D01*
X149200000Y-90940000D01*
X148909161Y-90997852D01*
X148662599Y-91162599D01*
X148250000Y-91575198D01*
X148250000Y-90868022D01*
X148346431Y-90726890D01*
X148397440Y-90475000D01*
X148397440Y-89725000D01*
X148353162Y-89489683D01*
X148250000Y-89329365D01*
X148250000Y-86585000D01*
X152533420Y-86585000D01*
X155165000Y-89216579D01*
G36*
X146480000Y-89132950D02*
X146376309Y-89090000D01*
X146135750Y-89090000D01*
X145977000Y-89248750D01*
X145977000Y-89973000D01*
X145997000Y-89973000D01*
X145997000Y-90227000D01*
X145977000Y-90227000D01*
X145977000Y-90951250D01*
X146135750Y-91110000D01*
X146376309Y-91110000D01*
X146480000Y-91067050D01*
X146480000Y-91894773D01*
X146395000Y-91877560D01*
X145795000Y-91877560D01*
X145559683Y-91921838D01*
X145343559Y-92060910D01*
X145198569Y-92273110D01*
X145147560Y-92525000D01*
X145147560Y-94075000D01*
X145191838Y-94310317D01*
X145275287Y-94440000D01*
X142060000Y-94440000D01*
X142060000Y-92550000D01*
X142025033Y-92374210D01*
X142002148Y-92259160D01*
X141837401Y-92012599D01*
X140210552Y-90385750D01*
X144815000Y-90385750D01*
X144815000Y-90601310D01*
X144911673Y-90834699D01*
X145090302Y-91013327D01*
X145323691Y-91110000D01*
X145564250Y-91110000D01*
X145723000Y-90951250D01*
X145723000Y-90227000D01*
X144973750Y-90227000D01*
X144815000Y-90385750D01*
X140210552Y-90385750D01*
X140097440Y-90272638D01*
X140097440Y-90000000D01*
X140053162Y-89764683D01*
X139946349Y-89598690D01*
X144815000Y-89598690D01*
X144815000Y-89814250D01*
X144973750Y-89973000D01*
X145723000Y-89973000D01*
X145723000Y-89248750D01*
X145564250Y-89090000D01*
X145323691Y-89090000D01*
X145090302Y-89186673D01*
X144911673Y-89365301D01*
X144815000Y-89598690D01*
X139946349Y-89598690D01*
X139914090Y-89548559D01*
X139701890Y-89403569D01*
X139450000Y-89352560D01*
X138550000Y-89352560D01*
X138314683Y-89396838D01*
X138169905Y-89490000D01*
X136828386Y-89490000D01*
X136701890Y-89403569D01*
X136450000Y-89352560D01*
X135550000Y-89352560D01*
X135314683Y-89396838D01*
X135098559Y-89535910D01*
X134953569Y-89748110D01*
X134902560Y-90000000D01*
X134902560Y-90500000D01*
X134946838Y-90735317D01*
X135085910Y-90951441D01*
X135155711Y-90999134D01*
X135098559Y-91035910D01*
X134953569Y-91248110D01*
X134902560Y-91500000D01*
X134902560Y-92000000D01*
X134946838Y-92235317D01*
X135085910Y-92451441D01*
X135240000Y-92556726D01*
X135240000Y-92785198D01*
X135110198Y-92915000D01*
X134347440Y-92915000D01*
X134347440Y-92825000D01*
X134303162Y-92589683D01*
X134164090Y-92373559D01*
X134135000Y-92353683D01*
X134135000Y-90689975D01*
X134246431Y-90526890D01*
X134297440Y-90275000D01*
X134297440Y-89525000D01*
X134253162Y-89289683D01*
X134135000Y-89106054D01*
X134135000Y-86585000D01*
X146480000Y-86585000D01*
X146480000Y-89132950D01*
X146480000Y-89132950D01*
G37*
X146480000Y-89132950D02*
X146376309Y-89090000D01*
X146135750Y-89090000D01*
X145977000Y-89248750D01*
X145977000Y-89973000D01*
X145997000Y-89973000D01*
X145997000Y-90227000D01*
X145977000Y-90227000D01*
X145977000Y-90951250D01*
X146135750Y-91110000D01*
X146376309Y-91110000D01*
X146480000Y-91067050D01*
X146480000Y-91894773D01*
X146395000Y-91877560D01*
X145795000Y-91877560D01*
X145559683Y-91921838D01*
X145343559Y-92060910D01*
X145198569Y-92273110D01*
X145147560Y-92525000D01*
X145147560Y-94075000D01*
X145191838Y-94310317D01*
X145275287Y-94440000D01*
X142060000Y-94440000D01*
X142060000Y-92550000D01*
X142025033Y-92374210D01*
X142002148Y-92259160D01*
X141837401Y-92012599D01*
X140210552Y-90385750D01*
X144815000Y-90385750D01*
X144815000Y-90601310D01*
X144911673Y-90834699D01*
X145090302Y-91013327D01*
X145323691Y-91110000D01*
X145564250Y-91110000D01*
X145723000Y-90951250D01*
X145723000Y-90227000D01*
X144973750Y-90227000D01*
X144815000Y-90385750D01*
X140210552Y-90385750D01*
X140097440Y-90272638D01*
X140097440Y-90000000D01*
X140053162Y-89764683D01*
X139946349Y-89598690D01*
X144815000Y-89598690D01*
X144815000Y-89814250D01*
X144973750Y-89973000D01*
X145723000Y-89973000D01*
X145723000Y-89248750D01*
X145564250Y-89090000D01*
X145323691Y-89090000D01*
X145090302Y-89186673D01*
X144911673Y-89365301D01*
X144815000Y-89598690D01*
X139946349Y-89598690D01*
X139914090Y-89548559D01*
X139701890Y-89403569D01*
X139450000Y-89352560D01*
X138550000Y-89352560D01*
X138314683Y-89396838D01*
X138169905Y-89490000D01*
X136828386Y-89490000D01*
X136701890Y-89403569D01*
X136450000Y-89352560D01*
X135550000Y-89352560D01*
X135314683Y-89396838D01*
X135098559Y-89535910D01*
X134953569Y-89748110D01*
X134902560Y-90000000D01*
X134902560Y-90500000D01*
X134946838Y-90735317D01*
X135085910Y-90951441D01*
X135155711Y-90999134D01*
X135098559Y-91035910D01*
X134953569Y-91248110D01*
X134902560Y-91500000D01*
X134902560Y-92000000D01*
X134946838Y-92235317D01*
X135085910Y-92451441D01*
X135240000Y-92556726D01*
X135240000Y-92785198D01*
X135110198Y-92915000D01*
X134347440Y-92915000D01*
X134347440Y-92825000D01*
X134303162Y-92589683D01*
X134164090Y-92373559D01*
X134135000Y-92353683D01*
X134135000Y-90689975D01*
X134246431Y-90526890D01*
X134297440Y-90275000D01*
X134297440Y-89525000D01*
X134253162Y-89289683D01*
X134135000Y-89106054D01*
X134135000Y-86585000D01*
X146480000Y-86585000D01*
X146480000Y-89132950D01*
G36*
X167451397Y-87434346D02*
X167539135Y-87565655D01*
X167697434Y-87802566D01*
X168697434Y-88802567D01*
X169065655Y-89048604D01*
X169500000Y-89135000D01*
X171553565Y-89135000D01*
X171362599Y-89262599D01*
X166660000Y-93965198D01*
X166660000Y-89497440D01*
X166750000Y-89497440D01*
X166985317Y-89453162D01*
X167201441Y-89314090D01*
X167346431Y-89101890D01*
X167397440Y-88850000D01*
X167397440Y-87163086D01*
X167451397Y-87434346D01*
X167451397Y-87434346D01*
G37*
X167451397Y-87434346D02*
X167539135Y-87565655D01*
X167697434Y-87802566D01*
X168697434Y-88802567D01*
X169065655Y-89048604D01*
X169500000Y-89135000D01*
X171553565Y-89135000D01*
X171362599Y-89262599D01*
X166660000Y-93965198D01*
X166660000Y-89497440D01*
X166750000Y-89497440D01*
X166985317Y-89453162D01*
X167201441Y-89314090D01*
X167346431Y-89101890D01*
X167397440Y-88850000D01*
X167397440Y-87163086D01*
X167451397Y-87434346D01*
M02*
