%TF.GenerationSoftware,KiCad,Pcbnew,4.0.7-e2-6376~58~ubuntu16.04.1*%
%TF.CreationDate,2017-09-12T10:21:48+02:00*%
%TF.ProjectId,flt06,666C7430362E6B696361645F70636200,1*%
%TF.FileFunction,Soldermask,Top*%
%FSLAX46Y46*%
G04 Gerber Fmt 4.6, Leading zero omitted, Abs format (unit mm)*
G04 Created by KiCad (PCBNEW 4.0.7-e2-6376~58~ubuntu16.04.1) date Tue Sep 12 10:21:48 2017*
%MOMM*%
%LPD*%
G01*
G04 APERTURE LIST*
%ADD10C,0.100000*%
%ADD11C,0.300000*%
%ADD12R,2.100000X2.100000*%
%ADD13C,5.900000*%
%ADD14R,1.400000X2.900000*%
%ADD15R,1.150000X1.200000*%
%ADD16R,1.200000X1.150000*%
%ADD17R,2.900000X2.200000*%
%ADD18R,2.200000X2.900000*%
%ADD19C,2.800000*%
%ADD20R,2.800000X2.800000*%
%ADD21O,2.800000X2.800000*%
%ADD22R,1.300000X0.900000*%
%ADD23R,2.100000X1.300000*%
%ADD24R,1.300000X2.100000*%
%ADD25R,1.500000X0.800000*%
%ADD26R,1.000000X1.950000*%
%ADD27R,1.050000X1.460000*%
%ADD28R,2.200000X2.200000*%
%ADD29O,2.200000X2.200000*%
%ADD30R,1.300000X1.200000*%
G04 APERTURE END LIST*
D10*
D11*
X127628573Y-149592857D02*
X127128573Y-149592857D01*
X127128573Y-150378571D02*
X127128573Y-148878571D01*
X127842859Y-148878571D01*
X129128573Y-150378571D02*
X128414287Y-150378571D01*
X128414287Y-148878571D01*
X129414287Y-148878571D02*
X130271430Y-148878571D01*
X129842859Y-150378571D02*
X129842859Y-148878571D01*
X131057144Y-148878571D02*
X131200001Y-148878571D01*
X131342858Y-148950000D01*
X131414287Y-149021429D01*
X131485716Y-149164286D01*
X131557144Y-149450000D01*
X131557144Y-149807143D01*
X131485716Y-150092857D01*
X131414287Y-150235714D01*
X131342858Y-150307143D01*
X131200001Y-150378571D01*
X131057144Y-150378571D01*
X130914287Y-150307143D01*
X130842858Y-150235714D01*
X130771430Y-150092857D01*
X130700001Y-149807143D01*
X130700001Y-149450000D01*
X130771430Y-149164286D01*
X130842858Y-149021429D01*
X130914287Y-148950000D01*
X131057144Y-148878571D01*
X132842858Y-148878571D02*
X132557144Y-148878571D01*
X132414287Y-148950000D01*
X132342858Y-149021429D01*
X132200001Y-149235714D01*
X132128572Y-149521429D01*
X132128572Y-150092857D01*
X132200001Y-150235714D01*
X132271429Y-150307143D01*
X132414287Y-150378571D01*
X132700001Y-150378571D01*
X132842858Y-150307143D01*
X132914287Y-150235714D01*
X132985715Y-150092857D01*
X132985715Y-149735714D01*
X132914287Y-149592857D01*
X132842858Y-149521429D01*
X132700001Y-149450000D01*
X132414287Y-149450000D01*
X132271429Y-149521429D01*
X132200001Y-149592857D01*
X132128572Y-149735714D01*
X133628572Y-150378571D02*
X133628572Y-149378571D01*
X133628572Y-149664286D02*
X133700000Y-149521429D01*
X133771429Y-149450000D01*
X133914286Y-149378571D01*
X134057143Y-149378571D01*
X135342857Y-150378571D02*
X134485714Y-150378571D01*
X134914286Y-150378571D02*
X134914286Y-148878571D01*
X134771429Y-149092857D01*
X134628571Y-149235714D01*
X134485714Y-149307143D01*
D10*
G36*
X163579097Y-136117203D02*
X163603733Y-138580494D01*
X163663701Y-138566009D01*
X163721405Y-138546209D01*
X163776567Y-138521372D01*
X163828911Y-138491775D01*
X163878158Y-138457694D01*
X163924032Y-138419407D01*
X163966254Y-138377190D01*
X164004548Y-138331320D01*
X164038637Y-138282075D01*
X164068242Y-138229731D01*
X164093086Y-138174566D01*
X164112892Y-138116855D01*
X164127383Y-138056876D01*
X164136281Y-137994906D01*
X164139308Y-137931222D01*
X164139308Y-131980477D01*
X164136281Y-131916793D01*
X164127383Y-131854823D01*
X164112892Y-131794843D01*
X164093086Y-131737132D01*
X164068242Y-131681966D01*
X164038637Y-131629622D01*
X164004548Y-131580377D01*
X163966254Y-131534508D01*
X163924032Y-131492291D01*
X163878158Y-131454004D01*
X163828911Y-131419923D01*
X163776567Y-131390326D01*
X163721405Y-131365489D01*
X163663701Y-131345690D01*
X163603733Y-131331204D01*
X163541778Y-131322310D01*
X163478115Y-131319284D01*
X158519166Y-131319284D01*
X158455482Y-131322310D01*
X158393512Y-131331204D01*
X158333533Y-131345690D01*
X158275822Y-131365489D01*
X158220656Y-131390326D01*
X158168312Y-131419923D01*
X158119067Y-131454004D01*
X158073197Y-131492291D01*
X158030981Y-131534508D01*
X157992693Y-131580377D01*
X157958612Y-131629622D01*
X157929015Y-131681966D01*
X157904178Y-131737132D01*
X157884378Y-131794843D01*
X157869893Y-131854823D01*
X157860998Y-131916793D01*
X157857972Y-131980477D01*
X157857972Y-137931222D01*
X157860998Y-137994906D01*
X157869893Y-138056876D01*
X157884378Y-138116855D01*
X157904178Y-138174566D01*
X157929015Y-138229731D01*
X157958612Y-138282075D01*
X157992693Y-138331320D01*
X158030981Y-138377190D01*
X158073197Y-138419407D01*
X158119067Y-138457694D01*
X158168312Y-138491775D01*
X158220656Y-138521372D01*
X158275822Y-138546209D01*
X158333533Y-138566009D01*
X158393512Y-138580494D01*
X158455482Y-138589389D01*
X158519166Y-138592415D01*
X163478115Y-138592415D01*
X163541778Y-138589389D01*
X163603733Y-138580494D01*
X163579097Y-136117203D01*
X162785665Y-136483968D01*
X162785665Y-133528475D01*
X159274762Y-133528475D01*
X159274762Y-136483968D01*
X162785665Y-136483968D01*
X163579097Y-136117203D01*
X163577805Y-136203534D01*
X163573927Y-136285513D01*
X163567465Y-136363141D01*
X163558420Y-136436421D01*
X163546791Y-136505356D01*
X163532581Y-136569947D01*
X163515788Y-136630197D01*
X163496415Y-136686110D01*
X163474461Y-136737686D01*
X163449928Y-136784929D01*
X163422815Y-136827842D01*
X163393124Y-136866426D01*
X163360856Y-136900684D01*
X163325068Y-136931518D01*
X163284820Y-136959880D01*
X163240110Y-136985772D01*
X163190938Y-137009195D01*
X163137304Y-137030149D01*
X163079207Y-137048634D01*
X163016648Y-137064653D01*
X162949624Y-137078205D01*
X162878137Y-137089291D01*
X162802185Y-137097913D01*
X162721769Y-137104070D01*
X162636887Y-137107763D01*
X162547540Y-137108994D01*
X159512626Y-137108994D01*
X159421902Y-137107791D01*
X159335804Y-137104180D01*
X159254335Y-137098162D01*
X159177496Y-137089736D01*
X159105289Y-137078904D01*
X159037714Y-137065664D01*
X158974773Y-137050018D01*
X158916469Y-137031964D01*
X158862801Y-137011504D01*
X158813772Y-136988637D01*
X158769383Y-136963363D01*
X158729636Y-136935682D01*
X158694531Y-136905594D01*
X158662959Y-136872045D01*
X158633920Y-136833980D01*
X158607414Y-136791399D01*
X158583439Y-136744302D01*
X158561994Y-136692690D01*
X158543077Y-136636561D01*
X158526686Y-136575916D01*
X158512821Y-136510755D01*
X158501480Y-136441077D01*
X158492662Y-136366884D01*
X158486365Y-136288173D01*
X158482588Y-136204946D01*
X158481329Y-136117203D01*
X158481329Y-133905295D01*
X158482620Y-133818983D01*
X158486491Y-133736945D01*
X158492944Y-133659182D01*
X158501978Y-133585695D01*
X158513593Y-133516485D01*
X158527789Y-133451553D01*
X158544566Y-133390901D01*
X158563925Y-133334528D01*
X158585865Y-133282436D01*
X158610387Y-133234627D01*
X158637490Y-133191101D01*
X158667174Y-133151859D01*
X158699440Y-133116902D01*
X158735230Y-133085379D01*
X158775483Y-133056373D01*
X158820201Y-133029887D01*
X158869380Y-133005921D01*
X158923021Y-132984474D01*
X158981122Y-132965549D01*
X159043682Y-132949145D01*
X159110700Y-132935263D01*
X159182175Y-132923904D01*
X159258107Y-132915068D01*
X159338493Y-132908756D01*
X159423333Y-132904968D01*
X159512626Y-132903706D01*
X162547540Y-132903706D01*
X162636887Y-132904968D01*
X162721769Y-132908756D01*
X162802185Y-132915068D01*
X162878137Y-132923904D01*
X162949624Y-132935263D01*
X163016648Y-132949145D01*
X163079207Y-132965549D01*
X163137304Y-132984474D01*
X163190938Y-133005921D01*
X163240110Y-133029887D01*
X163284820Y-133056373D01*
X163325068Y-133085379D01*
X163360856Y-133116902D01*
X163393124Y-133151859D01*
X163422815Y-133191101D01*
X163449928Y-133234627D01*
X163474461Y-133282436D01*
X163496415Y-133334528D01*
X163515788Y-133390901D01*
X163532581Y-133451553D01*
X163546791Y-133516485D01*
X163558420Y-133585695D01*
X163567465Y-133659182D01*
X163573927Y-133736945D01*
X163577805Y-133818983D01*
X163579097Y-133905295D01*
X163579097Y-136117203D01*
X163579097Y-136117203D01*
G37*
G36*
X157585300Y-135962889D02*
X157574905Y-136014367D01*
X157546555Y-136056419D01*
X157504505Y-136084779D01*
X157453008Y-136095180D01*
X157345548Y-136095180D01*
X157345386Y-135437876D01*
X157284427Y-135437651D01*
X157101614Y-135437651D01*
X156914672Y-135437651D01*
X156864903Y-135437876D01*
X156864906Y-136095180D01*
X156758477Y-136095180D01*
X156706981Y-136084779D01*
X156664930Y-136056419D01*
X156636581Y-136014367D01*
X156626185Y-135962889D01*
X156626185Y-131977602D01*
X156636581Y-131926106D01*
X156664930Y-131884055D01*
X156706981Y-131855706D01*
X156758477Y-131845311D01*
X157453008Y-131845311D01*
X157504505Y-131855706D01*
X157546555Y-131884055D01*
X157574905Y-131926106D01*
X157585300Y-131977602D01*
X157585300Y-135962889D01*
X157585300Y-135962889D01*
G37*
G36*
X161264663Y-127872168D02*
X161257674Y-127932825D01*
X161237765Y-127988512D01*
X161206528Y-128037639D01*
X161165550Y-128078616D01*
X161116423Y-128109854D01*
X161060737Y-128129762D01*
X161000080Y-128136752D01*
X160939409Y-128129762D01*
X160883717Y-128109854D01*
X160834591Y-128078616D01*
X160793619Y-128037639D01*
X160762387Y-127988512D01*
X160742484Y-127932825D01*
X160735497Y-127872168D01*
X160742484Y-127811512D01*
X160762387Y-127755825D01*
X160793619Y-127706698D01*
X160834591Y-127665721D01*
X160883717Y-127634483D01*
X160939409Y-127614575D01*
X161000080Y-127607585D01*
X161060737Y-127614575D01*
X161116423Y-127634483D01*
X161165550Y-127665721D01*
X161206528Y-127706698D01*
X161237765Y-127755825D01*
X161257674Y-127811512D01*
X161264663Y-127872168D01*
X161264663Y-127872168D01*
G37*
G36*
X162488361Y-129700911D02*
X162467591Y-129074113D01*
X162565859Y-129079376D01*
X162653793Y-129094397D01*
X162731967Y-129118029D01*
X162800956Y-129149125D01*
X162861333Y-129186535D01*
X162913672Y-129229111D01*
X162958548Y-129275707D01*
X162996535Y-129325172D01*
X163028206Y-129376360D01*
X163054137Y-129428122D01*
X163074900Y-129479309D01*
X163091071Y-129528775D01*
X163103223Y-129575370D01*
X163111930Y-129617947D01*
X163117767Y-129655357D01*
X163121307Y-129686452D01*
X163123125Y-129710084D01*
X163123795Y-129725106D01*
X163123890Y-129730368D01*
X163123890Y-131058488D01*
X158876226Y-131058488D01*
X158876226Y-129730368D01*
X158881488Y-129632107D01*
X158896509Y-129544179D01*
X158920142Y-129466010D01*
X158951237Y-129397026D01*
X158988647Y-129336653D01*
X159031224Y-129284318D01*
X159077819Y-129239445D01*
X159127284Y-129201461D01*
X159178472Y-129169791D01*
X159230234Y-129143862D01*
X159281422Y-129123100D01*
X159330887Y-129106931D01*
X159377482Y-129094780D01*
X159420059Y-129086073D01*
X159457469Y-129080237D01*
X159488564Y-129076697D01*
X159512197Y-129074879D01*
X159527218Y-129074209D01*
X159532480Y-129074113D01*
X162467591Y-129074113D01*
X162488361Y-129700911D01*
X162474469Y-129656389D01*
X162437960Y-129624754D01*
X162386585Y-129612717D01*
X159613575Y-129612717D01*
X159562200Y-129624754D01*
X159525691Y-129656389D01*
X159511799Y-129700911D01*
X159511799Y-129789061D01*
X159525691Y-129833595D01*
X159562200Y-129865252D01*
X159613575Y-129877300D01*
X162386585Y-129877300D01*
X162437960Y-129865252D01*
X162474469Y-129833595D01*
X162488361Y-129789061D01*
X162488361Y-129700911D01*
X162488361Y-129700911D01*
G37*
G36*
X161066230Y-129315047D02*
X160933939Y-129315047D01*
X160933939Y-127826766D01*
X161066230Y-127826766D01*
X161066230Y-129315047D01*
X161066230Y-129315047D01*
G37*
G36*
X165373815Y-135963162D02*
X165363419Y-136014640D01*
X165335070Y-136056692D01*
X165293019Y-136085052D01*
X165241523Y-136095454D01*
X165134062Y-136095454D01*
X165133901Y-135438149D01*
X165072942Y-135437924D01*
X164890128Y-135437924D01*
X164703186Y-135437924D01*
X164653417Y-135438149D01*
X164653420Y-136095454D01*
X164546992Y-136095454D01*
X164495495Y-136085052D01*
X164453445Y-136056692D01*
X164425095Y-136014640D01*
X164414700Y-135963162D01*
X164414700Y-131977876D01*
X164425095Y-131926379D01*
X164453445Y-131884329D01*
X164495495Y-131855979D01*
X164546992Y-131845584D01*
X165241523Y-131845584D01*
X165293019Y-131855979D01*
X165335070Y-131884329D01*
X165363419Y-131926379D01*
X165373815Y-131977876D01*
X165373815Y-135963162D01*
X165373815Y-135963162D01*
G37*
G36*
X122815484Y-145138461D02*
X123003726Y-143959760D01*
X120357893Y-143959760D01*
X120294493Y-143965443D01*
X120234816Y-143981828D01*
X120179860Y-144007920D01*
X120130622Y-144042721D01*
X120088099Y-144085238D01*
X120053290Y-144134474D01*
X120027191Y-144189433D01*
X120010800Y-144249120D01*
X120005115Y-144312538D01*
X120005115Y-147487538D01*
X120010800Y-147550954D01*
X120027191Y-147610639D01*
X120053290Y-147665598D01*
X120088099Y-147714834D01*
X120130622Y-147757351D01*
X120179860Y-147792154D01*
X120234816Y-147818247D01*
X120294493Y-147834632D01*
X120357893Y-147840316D01*
X123003726Y-147840316D01*
X123067144Y-147834632D01*
X123126831Y-147818247D01*
X123181790Y-147792154D01*
X123231026Y-147757351D01*
X123273542Y-147714834D01*
X123308344Y-147665598D01*
X123334436Y-147610639D01*
X123350821Y-147550954D01*
X123356504Y-147487538D01*
X123356504Y-144312538D01*
X123350821Y-144249120D01*
X123334436Y-144189433D01*
X123308344Y-144134474D01*
X123273542Y-144085238D01*
X123231026Y-144042721D01*
X123181790Y-144007920D01*
X123126831Y-143981828D01*
X123067144Y-143965443D01*
X123003726Y-143959760D01*
X122815484Y-145138461D01*
X121005707Y-145138461D01*
X121005707Y-145831617D01*
X122026972Y-145831617D01*
X122026972Y-146159797D01*
X121005707Y-146159797D01*
X121005707Y-147048832D01*
X120582374Y-147048832D01*
X120582374Y-144805113D01*
X122815484Y-144805113D01*
X122815484Y-145138461D01*
X122815484Y-145138461D01*
G37*
G36*
X126507317Y-147048836D02*
X126731455Y-143959755D01*
X124085621Y-143959755D01*
X124022203Y-143965438D01*
X123962516Y-143981823D01*
X123907557Y-144007914D01*
X123858322Y-144042716D01*
X123815805Y-144085233D01*
X123781003Y-144134469D01*
X123754911Y-144189428D01*
X123738526Y-144249114D01*
X123732843Y-144312533D01*
X123732843Y-147487533D01*
X123738526Y-147550951D01*
X123754911Y-147610638D01*
X123781003Y-147665597D01*
X123815805Y-147714832D01*
X123858322Y-147757349D01*
X123907557Y-147792151D01*
X123962516Y-147818242D01*
X124022203Y-147834627D01*
X124085621Y-147840310D01*
X126731455Y-147840310D01*
X126794854Y-147834627D01*
X126854531Y-147818242D01*
X126909487Y-147792151D01*
X126958725Y-147757349D01*
X127001248Y-147714832D01*
X127036057Y-147665597D01*
X127062156Y-147610638D01*
X127078547Y-147550951D01*
X127084232Y-147487533D01*
X127084232Y-144312533D01*
X127078547Y-144249114D01*
X127062156Y-144189428D01*
X127036057Y-144134469D01*
X127001248Y-144085233D01*
X126958725Y-144042716D01*
X126909487Y-144007914D01*
X126854531Y-143981823D01*
X126794854Y-143965438D01*
X126731455Y-143959755D01*
X126507317Y-147048836D01*
X124337663Y-147048836D01*
X124337663Y-144805116D01*
X124760997Y-144805116D01*
X124760997Y-146710187D01*
X126507317Y-146710187D01*
X126507317Y-147048836D01*
X126507317Y-147048836D01*
G37*
G36*
X130361346Y-146519669D02*
X130459118Y-143959684D01*
X127813285Y-143959684D01*
X127749885Y-143965368D01*
X127690208Y-143981753D01*
X127635252Y-144007846D01*
X127586014Y-144042649D01*
X127543491Y-144085166D01*
X127508682Y-144134402D01*
X127482583Y-144189361D01*
X127466192Y-144249046D01*
X127460507Y-144312462D01*
X127460507Y-147487533D01*
X127466192Y-147550951D01*
X127482583Y-147610638D01*
X127508682Y-147665597D01*
X127543491Y-147714832D01*
X127586014Y-147757349D01*
X127635252Y-147792151D01*
X127690208Y-147818242D01*
X127749885Y-147834627D01*
X127813285Y-147840310D01*
X130459118Y-147840310D01*
X130522518Y-147834627D01*
X130582194Y-147818242D01*
X130637151Y-147792151D01*
X130686389Y-147757349D01*
X130728911Y-147714832D01*
X130763721Y-147665597D01*
X130789820Y-147610638D01*
X130806211Y-147550951D01*
X130811896Y-147487533D01*
X130811896Y-144312462D01*
X130806211Y-144249046D01*
X130789820Y-144189361D01*
X130763721Y-144134402D01*
X130728911Y-144085166D01*
X130686389Y-144042649D01*
X130637151Y-144007846D01*
X130582194Y-143981753D01*
X130522518Y-143965368D01*
X130459118Y-143959684D01*
X130361346Y-146519669D01*
X130359026Y-146603365D01*
X130352070Y-146679054D01*
X130340480Y-146746744D01*
X130324261Y-146806445D01*
X130303417Y-146858164D01*
X130277951Y-146901911D01*
X130247866Y-146937693D01*
X130211134Y-146967196D01*
X130165904Y-146992152D01*
X130112174Y-147012565D01*
X130049940Y-147028438D01*
X129979200Y-147039772D01*
X129899953Y-147046570D01*
X129812194Y-147048836D01*
X128423414Y-147048836D01*
X128336993Y-147046570D01*
X128258752Y-147039772D01*
X128188698Y-147028438D01*
X128126833Y-147012565D01*
X128073165Y-146992152D01*
X128027696Y-146967196D01*
X127990432Y-146937693D01*
X127959590Y-146901911D01*
X127933503Y-146858164D01*
X127912167Y-146806445D01*
X127895578Y-146746744D01*
X127883734Y-146679054D01*
X127876630Y-146603365D01*
X127874262Y-146519669D01*
X127874262Y-144805116D01*
X128297596Y-144805116D01*
X128297596Y-146715355D01*
X129938012Y-146715355D01*
X129938012Y-144805116D01*
X130361346Y-144805116D01*
X130361346Y-146519669D01*
X130361346Y-146519669D01*
G37*
G36*
X133501068Y-147048836D02*
X131188098Y-147487533D01*
X131193783Y-147550951D01*
X131210174Y-147610638D01*
X131236273Y-147665597D01*
X131271083Y-147714832D01*
X131313605Y-147757349D01*
X131362843Y-147792151D01*
X131417799Y-147818242D01*
X131477476Y-147834627D01*
X131540876Y-147840310D01*
X134186709Y-147840310D01*
X134250109Y-147834627D01*
X134309786Y-147818242D01*
X134364742Y-147792151D01*
X134413980Y-147757349D01*
X134456502Y-147714832D01*
X134491312Y-147665597D01*
X134517411Y-147610638D01*
X134533802Y-147550951D01*
X134539487Y-147487533D01*
X134539487Y-144312533D01*
X134533802Y-144249114D01*
X134517411Y-144189428D01*
X134491312Y-144134469D01*
X134456502Y-144085233D01*
X134413980Y-144042716D01*
X134364742Y-144007914D01*
X134309786Y-143981823D01*
X134250109Y-143965438D01*
X134186709Y-143959755D01*
X131540876Y-143959755D01*
X131477476Y-143965438D01*
X131417799Y-143981823D01*
X131362843Y-144007914D01*
X131313605Y-144042716D01*
X131271083Y-144085233D01*
X131236273Y-144134469D01*
X131210174Y-144189428D01*
X131193783Y-144249114D01*
X131188098Y-144312533D01*
X131188098Y-147487533D01*
X133501068Y-147048836D01*
X132003482Y-146043349D01*
X132003482Y-147048836D01*
X131580149Y-147048836D01*
X131580149Y-144805116D01*
X132003482Y-144805116D01*
X132003482Y-145768155D01*
X133421622Y-144805116D01*
X134009015Y-144805116D01*
X132352750Y-145889908D01*
X134194223Y-147048836D01*
X133501068Y-147048836D01*
X133501068Y-147048836D01*
G37*
G36*
X137785457Y-146517602D02*
X137914371Y-143959760D01*
X135268537Y-143959760D01*
X135205138Y-143965443D01*
X135145461Y-143981828D01*
X135090505Y-144007920D01*
X135041267Y-144042721D01*
X134998744Y-144085238D01*
X134963935Y-144134474D01*
X134937836Y-144189433D01*
X134921445Y-144249120D01*
X134915760Y-144312538D01*
X134915760Y-147487538D01*
X134921445Y-147550954D01*
X134937836Y-147610639D01*
X134963935Y-147665598D01*
X134998744Y-147714834D01*
X135041267Y-147757351D01*
X135090505Y-147792154D01*
X135145461Y-147818247D01*
X135205138Y-147834632D01*
X135268537Y-147840316D01*
X137914371Y-147840316D01*
X137977789Y-147834632D01*
X138037476Y-147818247D01*
X138092435Y-147792154D01*
X138141671Y-147757351D01*
X138184187Y-147714834D01*
X138218989Y-147665598D01*
X138245081Y-147610639D01*
X138261466Y-147550954D01*
X138267149Y-147487538D01*
X138267149Y-144312538D01*
X138261466Y-144249120D01*
X138245081Y-144189433D01*
X138218989Y-144134474D01*
X138184187Y-144085238D01*
X138141671Y-144042721D01*
X138092435Y-144007920D01*
X138037476Y-143981828D01*
X137977789Y-143965443D01*
X137914371Y-143959760D01*
X137785457Y-146517602D01*
X137783133Y-146601591D01*
X137776162Y-146677566D01*
X137764548Y-146745527D01*
X137748292Y-146805472D01*
X137727398Y-146857401D01*
X137701867Y-146901315D01*
X137671704Y-146937213D01*
X137635009Y-146966828D01*
X137590012Y-146991886D01*
X137536711Y-147012388D01*
X137475104Y-147028333D01*
X137405191Y-147039722D01*
X137326971Y-147046555D01*
X137240442Y-147048832D01*
X135875148Y-147048832D01*
X135787171Y-147046597D01*
X135707738Y-147039895D01*
X135636844Y-147028728D01*
X135574485Y-147013101D01*
X135520658Y-146993017D01*
X135475360Y-146968478D01*
X135438585Y-146939489D01*
X135408373Y-146904198D01*
X135382815Y-146860925D01*
X135361910Y-146809670D01*
X135345654Y-146750434D01*
X135334045Y-146683216D01*
X135327082Y-146608016D01*
X135324761Y-146524834D01*
X135324761Y-146461448D01*
X135711168Y-146382073D01*
X135711168Y-146715351D01*
X137404431Y-146715351D01*
X137404431Y-146080422D01*
X135959832Y-146080422D01*
X135873295Y-146078153D01*
X135795058Y-146071347D01*
X135725126Y-146060007D01*
X135663506Y-146044135D01*
X135610203Y-146023733D01*
X135565226Y-145998804D01*
X135528579Y-145969350D01*
X135498390Y-145933582D01*
X135472848Y-145889824D01*
X135451954Y-145838076D01*
X135435704Y-145778338D01*
X135424099Y-145710610D01*
X135417137Y-145634892D01*
X135414817Y-145551185D01*
X135414817Y-145339518D01*
X135417137Y-145254439D01*
X135424099Y-145177561D01*
X135435704Y-145108884D01*
X135451954Y-145048407D01*
X135472848Y-144996132D01*
X135498390Y-144952058D01*
X135528579Y-144916185D01*
X135565226Y-144886708D01*
X135610203Y-144861771D01*
X135663506Y-144841370D01*
X135725126Y-144825505D01*
X135795058Y-144814175D01*
X135873295Y-144807378D01*
X135959832Y-144805113D01*
X137208683Y-144805113D01*
X137291228Y-144807273D01*
X137366537Y-144813752D01*
X137434613Y-144824551D01*
X137495458Y-144839671D01*
X137549074Y-144859109D01*
X137595463Y-144882868D01*
X137634627Y-144910946D01*
X137667617Y-144944767D01*
X137695535Y-144985698D01*
X137718379Y-145033745D01*
X137736148Y-145088914D01*
X137748842Y-145151210D01*
X137756459Y-145220641D01*
X137758999Y-145297211D01*
X137758999Y-145350198D01*
X137372733Y-145434742D01*
X137372733Y-145138461D01*
X135801082Y-145138461D01*
X135801082Y-145715174D01*
X137240442Y-145715174D01*
X137326971Y-145717451D01*
X137405191Y-145724284D01*
X137475104Y-145735673D01*
X137536711Y-145751618D01*
X137590012Y-145772119D01*
X137635009Y-145797177D01*
X137671704Y-145826792D01*
X137701867Y-145862717D01*
X137727398Y-145906649D01*
X137748292Y-145958592D01*
X137764548Y-146018544D01*
X137776162Y-146086508D01*
X137783133Y-146162485D01*
X137785457Y-146246475D01*
X137785457Y-146517602D01*
X137785457Y-146517602D01*
G37*
G36*
X141695985Y-146519669D02*
X141705507Y-147834627D01*
X141765184Y-147818242D01*
X141820140Y-147792151D01*
X141869378Y-147757349D01*
X141911901Y-147714832D01*
X141946710Y-147665597D01*
X141972809Y-147610638D01*
X141989200Y-147550951D01*
X141994885Y-147487533D01*
X141994885Y-144312533D01*
X141989200Y-144249114D01*
X141972809Y-144189428D01*
X141946710Y-144134469D01*
X141911901Y-144085233D01*
X141869378Y-144042716D01*
X141820140Y-144007914D01*
X141765184Y-143981823D01*
X141705507Y-143965438D01*
X141642107Y-143959755D01*
X138996274Y-143959755D01*
X138932856Y-143965438D01*
X138873169Y-143981823D01*
X138818210Y-144007914D01*
X138768974Y-144042716D01*
X138726458Y-144085233D01*
X138691656Y-144134469D01*
X138665564Y-144189428D01*
X138649179Y-144249114D01*
X138643496Y-144312533D01*
X138643496Y-147487533D01*
X138649179Y-147550951D01*
X138665564Y-147610638D01*
X138691656Y-147665597D01*
X138726458Y-147714832D01*
X138768974Y-147757349D01*
X138818210Y-147792151D01*
X138873169Y-147818242D01*
X138932856Y-147834627D01*
X138996274Y-147840310D01*
X141642107Y-147840310D01*
X141705507Y-147834627D01*
X141695985Y-146519669D01*
X141272652Y-146715355D01*
X141272652Y-145138465D01*
X139399420Y-145138465D01*
X139399420Y-146715355D01*
X141272652Y-146715355D01*
X141695985Y-146519669D01*
X141693607Y-146603365D01*
X141686472Y-146679054D01*
X141674584Y-146746744D01*
X141657945Y-146806445D01*
X141636556Y-146858164D01*
X141610421Y-146901911D01*
X141579542Y-146937693D01*
X141542187Y-146967196D01*
X141496622Y-146992152D01*
X141442846Y-147012565D01*
X141380857Y-147028438D01*
X141310654Y-147039772D01*
X141232235Y-147046570D01*
X141145599Y-147048836D01*
X139526332Y-147048836D01*
X139438400Y-147046621D01*
X139358985Y-147039976D01*
X139288093Y-147028902D01*
X139225727Y-147013398D01*
X139171893Y-146993466D01*
X139126595Y-146969104D01*
X139089840Y-146940313D01*
X139059631Y-146905152D01*
X139034084Y-146861681D01*
X139013192Y-146809900D01*
X138996951Y-146749809D01*
X138985356Y-146681406D01*
X138978403Y-146604693D01*
X138976086Y-146519669D01*
X138976086Y-145339513D01*
X138978461Y-145255804D01*
X138985586Y-145179961D01*
X138997460Y-145111988D01*
X139014084Y-145051889D01*
X139035459Y-144999667D01*
X139061584Y-144955326D01*
X139092459Y-144918869D01*
X139129818Y-144888703D01*
X139175390Y-144863172D01*
X139229172Y-144842277D01*
X139291161Y-144826023D01*
X139361353Y-144814409D01*
X139439744Y-144807440D01*
X139526332Y-144805116D01*
X141145599Y-144805116D01*
X141232235Y-144807440D01*
X141310654Y-144814409D01*
X141380857Y-144826023D01*
X141442846Y-144842277D01*
X141496622Y-144863172D01*
X141542187Y-144888703D01*
X141579542Y-144918869D01*
X141610421Y-144955326D01*
X141636556Y-144999667D01*
X141657945Y-145051889D01*
X141674584Y-145111988D01*
X141686472Y-145179961D01*
X141693607Y-145255804D01*
X141695985Y-145339513D01*
X141695985Y-146519669D01*
X141695985Y-146519669D01*
G37*
D12*
X122000000Y-102000000D03*
D13*
X161000000Y-84000000D03*
X161000000Y-146000000D03*
X109000000Y-84000000D03*
X109000000Y-146000000D03*
D14*
X132500000Y-67000000D03*
X129500000Y-67000000D03*
X129500000Y-71000000D03*
X132500000Y-71000000D03*
D15*
X130000000Y-103250000D03*
X130000000Y-104750000D03*
D14*
X120500000Y-97000000D03*
X123500000Y-97000000D03*
D16*
X131750000Y-89900000D03*
X133250000Y-89900000D03*
X145850000Y-90100000D03*
X147350000Y-90100000D03*
X157550000Y-92000000D03*
X156050000Y-92000000D03*
X128850000Y-98000000D03*
X127350000Y-98000000D03*
X149950000Y-102000000D03*
X148450000Y-102000000D03*
X157050000Y-100000000D03*
X158550000Y-100000000D03*
D15*
X139000000Y-99750000D03*
X139000000Y-98250000D03*
X130000000Y-131250000D03*
X130000000Y-132750000D03*
X139000000Y-128750000D03*
X139000000Y-127250000D03*
D16*
X150150000Y-130500000D03*
X148650000Y-130500000D03*
X128850000Y-126500000D03*
X127350000Y-126500000D03*
X146150000Y-118900000D03*
X147650000Y-118900000D03*
D17*
X135000000Y-62000000D03*
X131000000Y-62000000D03*
X131000000Y-76000000D03*
X135000000Y-76000000D03*
D18*
X137000000Y-71000000D03*
X137000000Y-67000000D03*
X117000000Y-93000000D03*
X117000000Y-97000000D03*
X117000000Y-101000000D03*
X117000000Y-105000000D03*
X117000000Y-122000000D03*
X117000000Y-126000000D03*
X117000000Y-130000000D03*
X117000000Y-134000000D03*
D19*
X110000000Y-74500000D03*
X110000000Y-78000000D03*
D20*
X110000000Y-71000000D03*
D19*
X110000000Y-63500000D03*
D20*
X110000000Y-60000000D03*
D19*
X110000000Y-100500000D03*
D20*
X110000000Y-97000000D03*
D19*
X176000000Y-84500000D03*
D20*
X176000000Y-88000000D03*
D19*
X110000000Y-129500000D03*
D20*
X110000000Y-126000000D03*
D19*
X176000000Y-118500000D03*
D20*
X176000000Y-122000000D03*
D12*
X122000000Y-91000000D03*
X128000000Y-89000000D03*
X137000000Y-104000000D03*
X165900000Y-79600000D03*
X165900000Y-88000000D03*
X122000000Y-120000000D03*
X122000000Y-131000000D03*
X128000000Y-118000000D03*
X137500000Y-132500000D03*
X166000000Y-123000000D03*
D19*
X119000000Y-62000000D03*
D21*
X124080000Y-62000000D03*
D19*
X119000000Y-69000000D03*
D21*
X124080000Y-69000000D03*
D19*
X119000000Y-76000000D03*
D21*
X124080000Y-76000000D03*
D22*
X133000000Y-104750000D03*
X133000000Y-103250000D03*
X133000000Y-98250000D03*
X133000000Y-99750000D03*
X136000000Y-99750000D03*
X136000000Y-98250000D03*
X125100000Y-100250000D03*
X125100000Y-101750000D03*
D23*
X168500000Y-82350000D03*
X168500000Y-85250000D03*
D22*
X139000000Y-90250000D03*
X139000000Y-91750000D03*
X139000000Y-94250000D03*
X139000000Y-95750000D03*
X133500000Y-132750000D03*
X133500000Y-131250000D03*
X133000000Y-127250000D03*
X133000000Y-128750000D03*
X136000000Y-128750000D03*
X136000000Y-127250000D03*
X125600000Y-129150000D03*
X125600000Y-130650000D03*
X139000000Y-119250000D03*
X139000000Y-120750000D03*
X139000000Y-123250000D03*
X139000000Y-124750000D03*
D24*
X172450000Y-101000000D03*
X169550000Y-101000000D03*
X172450000Y-113000000D03*
X169550000Y-113000000D03*
X172450000Y-135000000D03*
X169550000Y-135000000D03*
X172450000Y-147000000D03*
X169550000Y-147000000D03*
D25*
X128850000Y-93025000D03*
X128850000Y-93675000D03*
X128850000Y-94325000D03*
X128850000Y-94975000D03*
X133150000Y-94975000D03*
X133150000Y-94325000D03*
X133150000Y-93675000D03*
X133150000Y-93025000D03*
D26*
X146095000Y-98700000D03*
X147365000Y-98700000D03*
X148635000Y-98700000D03*
X149905000Y-98700000D03*
X149905000Y-93300000D03*
X148635000Y-93300000D03*
X147365000Y-93300000D03*
X146095000Y-93300000D03*
D27*
X156050000Y-97100000D03*
X157000000Y-97100000D03*
X157950000Y-97100000D03*
X157950000Y-94900000D03*
X156050000Y-94900000D03*
D25*
X128850000Y-122025000D03*
X128850000Y-122675000D03*
X128850000Y-123325000D03*
X128850000Y-123975000D03*
X133150000Y-123975000D03*
X133150000Y-123325000D03*
X133150000Y-122675000D03*
X133150000Y-122025000D03*
D26*
X149905000Y-122300000D03*
X148635000Y-122300000D03*
X147365000Y-122300000D03*
X146095000Y-122300000D03*
X146095000Y-127700000D03*
X147365000Y-127700000D03*
X148635000Y-127700000D03*
X149905000Y-127700000D03*
D12*
X166000000Y-118000000D03*
D28*
X176000000Y-72000000D03*
D29*
X179700000Y-73700000D03*
X176000000Y-75400000D03*
X179700000Y-77100000D03*
X176000000Y-78800000D03*
D28*
X176000000Y-94000000D03*
D29*
X179700000Y-95700000D03*
X176000000Y-97400000D03*
X179700000Y-99100000D03*
X176000000Y-100800000D03*
D28*
X176000000Y-106000000D03*
D29*
X179700000Y-107700000D03*
X176000000Y-109400000D03*
X179700000Y-111100000D03*
X176000000Y-112800000D03*
D28*
X176000000Y-128000000D03*
D29*
X179700000Y-129700000D03*
X176000000Y-131400000D03*
X179700000Y-133100000D03*
X176000000Y-134800000D03*
D28*
X176000000Y-140000000D03*
D29*
X179700000Y-141700000D03*
X176000000Y-143400000D03*
X179700000Y-145100000D03*
X176000000Y-146800000D03*
D14*
X120500000Y-126000000D03*
X123500000Y-126000000D03*
D16*
X131750000Y-119500000D03*
X133250000Y-119500000D03*
D22*
X136000000Y-91750000D03*
X136000000Y-90250000D03*
X136000000Y-120750000D03*
X136000000Y-119250000D03*
D19*
X158000000Y-65000000D03*
D20*
X158000000Y-61500000D03*
D19*
X176000000Y-61500000D03*
D20*
X176000000Y-65000000D03*
D30*
X166000000Y-62050000D03*
X166000000Y-63950000D03*
X168000000Y-63000000D03*
M02*
