M48
;DRILL file {KiCad 4.0.7-e2-6376~58~ubuntu16.04.1} date Tue Sep 12 10:19:13 2017
;FORMAT={-:-/ absolute / metric / decimal}
FMAT,2
METRIC,TZ
T1C0.400
T2C1.000
T3C1.200
T4C3.100
%
G90
G05
M71
T1
X125.1Y-103.1
X125.6Y-132.1
X125.8Y-98.
X125.8Y-126.5
X127.5Y-67.
X127.5Y-71.
X130.3Y-119.5
X131.7Y-88.3
X134.2Y-134.4
X137.3Y-95.8
X137.4Y-124.8
X139.Y-101.3
X139.Y-130.2
X144.2Y-90.1
X144.5Y-98.7
X146.7Y-102.
X149.7Y-118.9
X150.1Y-131.9
X151.5Y-89.
X151.9Y-96.
X153.2Y-125.
X154.3Y-96.
X157.9Y-90.2
X161.5Y-97.4
X168.7Y-90.4
X178.6Y-78.8
T2
X122.Y-91.
X122.Y-102.
X122.Y-120.
X122.Y-131.
X128.Y-89.
X128.Y-118.
X137.Y-104.
X137.5Y-132.5
X165.9Y-79.6
X165.9Y-88.
X166.Y-118.
X166.Y-123.
X176.Y-72.
X176.Y-75.4
X176.Y-78.8
X176.Y-94.
X176.Y-97.4
X176.Y-100.8
X176.Y-106.
X176.Y-109.4
X176.Y-112.8
X176.Y-128.
X176.Y-131.4
X176.Y-134.8
X176.Y-140.
X176.Y-143.4
X176.Y-146.8
X179.7Y-73.7
X179.7Y-77.1
X179.7Y-95.7
X179.7Y-99.1
X179.7Y-107.7
X179.7Y-111.1
X179.7Y-129.7
X179.7Y-133.1
X179.7Y-141.7
X179.7Y-145.1
T3
X110.Y-60.
X110.Y-63.5
X110.Y-71.
X110.Y-74.5
X110.Y-78.
X110.Y-97.
X110.Y-100.5
X110.Y-126.
X110.Y-129.5
X119.Y-62.
X119.Y-69.
X119.Y-76.
X124.08Y-62.
X124.08Y-69.
X124.08Y-76.
X158.Y-61.5
X158.Y-65.
X176.Y-61.5
X176.Y-65.
X176.Y-84.5
X176.Y-88.
X176.Y-118.5
X176.Y-122.
T4
X109.Y-84.
X109.Y-146.
X161.Y-84.
X161.Y-146.
T0
M30
