<?xml version="1.0" encoding="UTF-8" standalone="no"?>
<!-- Created with Inkscape (http://www.inkscape.org/) -->

<svg
   xmlns:dc="http://purl.org/dc/elements/1.1/"
   xmlns:cc="http://creativecommons.org/ns#"
   xmlns:rdf="http://www.w3.org/1999/02/22-rdf-syntax-ns#"
   xmlns:svg="http://www.w3.org/2000/svg"
   xmlns="http://www.w3.org/2000/svg"
   xmlns:sodipodi="http://sodipodi.sourceforge.net/DTD/sodipodi-0.dtd"
   xmlns:inkscape="http://www.inkscape.org/namespaces/inkscape"
   id="svg4772"
   version="1.1"
   inkscape:version="0.91 r13725"
   xml:space="preserve"
   width="3750"
   height="875"
   viewBox="0 0 3750 875"
   sodipodi:docname="flukso_bw_Cu.svg"><metadata
     id="metadata4778"><rdf:RDF><cc:Work
         rdf:about=""><dc:format>image/svg+xml</dc:format><dc:type
           rdf:resource="http://purl.org/dc/dcmitype/StillImage" /><dc:title></dc:title></cc:Work></rdf:RDF></metadata><defs
     id="defs4776"><clipPath
       clipPathUnits="userSpaceOnUse"
       id="clipPath4786"><path
         d="M 0,700 3000,700 3000,0 0,0 0,700 Z"
         id="path4788"
         inkscape:connector-curvature="0" /></clipPath></defs><sodipodi:namedview
     pagecolor="#ffffff"
     bordercolor="#666666"
     borderopacity="1"
     objecttolerance="10"
     gridtolerance="10"
     guidetolerance="10"
     inkscape:pageopacity="0"
     inkscape:pageshadow="2"
     inkscape:window-width="2560"
     inkscape:window-height="1389"
     id="namedview4774"
     showgrid="false"
     inkscape:zoom="0.55706667"
     inkscape:cx="1884.8731"
     inkscape:cy="796.52346"
     inkscape:window-x="0"
     inkscape:window-y="25"
     inkscape:window-maximized="1"
     inkscape:current-layer="g4780" /><g
     id="g4780"
     inkscape:groupmode="layer"
     inkscape:label="Mask"
     transform="matrix(1.25,0,0,-1.25,0,875)"><g
       id="g4782"><g
         id="g4784"
         clip-path="url(#clipPath4786)"><g
           id="g4790"
           transform="translate(574.0625,436.1797)"><path
             d="m 0,0 -205.203,0 0,-78.594 115.797,0 0,-37.211 -115.797,0 0,-100.804 -48,0 0,254.406 L 0,37.797 0,0 Z m 21.344,133.648 -300,0 c -22.086,0 -40,-17.906 -40,-40 l 0,-360 c 0,-22.093 17.914,-40 40,-40 l 300,0 c 22.094,0 40,17.907 40,40 l 0,360 c 0,22.094 -17.906,40 -40,40"
             style="fill:#231f20;fill-opacity:1;fill-rule:nonzero;stroke:none"
             id="path4792"
             inkscape:connector-curvature="0" /></g><g
           id="g4794"
           transform="translate(992.6641,219.5703)"><path
             d="m 0,0 -246.008,0 0,254.406 48,0 0,-216.008 L 0,38.398 0,0 Z m 25.414,350.258 -300,0 c -22.094,0 -40,-17.906 -40,-40 l 0,-360 c 0,-22.094 17.906,-40 40,-40 l 300,0 c 22.086,0 40,17.906 40,40 l 0,360 c 0,22.094 -17.914,40 -40,40"
             style="fill:#231f20;fill-opacity:1;fill-rule:nonzero;stroke:none"
             id="path4796"
             inkscape:connector-curvature="0" /></g><g
           id="g4798"
           transform="translate(1429.6563,279.5703)"><path
             d="M 0,0 C 0,-23.203 -4.297,-38.984 -12.867,-47.398 -21.461,-55.805 -37.922,-60 -62.266,-60 l -157.468,0 c -23.946,0 -40.321,4.195 -49.094,12.602 C -277.617,-38.984 -282,-23.203 -282,0 l 0,194.406 48,0 0,-216.594 186,0 0,216.594 48,0 L 0,0 Z m 11.086,290.266 -300,0 c -22.086,0 -40,-17.907 -40,-40 l 0,-360.008 c 0,-22.094 17.914,-40 40,-40 l 300,0 c 22.086,0 40,17.906 40,40 l 0,360.008 c 0,22.093 -17.914,40 -40,40"
             style="fill:#231f20;fill-opacity:1;fill-rule:nonzero;stroke:none"
             id="path4800"
             inkscape:connector-curvature="0" /></g><g
           id="g4802"
           transform="translate(1785.6563,219.5703)"><path
             d="m 0,0 -169.805,114.008 0,-114.008 -48,0 0,254.406 48,0 0,-109.195 160.797,109.195 66.602,0 -187.797,-123 L 78.594,0 0,0 Z m 77.742,350.258 -300,0 c -22.086,0 -40,-17.906 -40,-40 l 0,-360 c 0,-22.094 17.914,-40 40,-40 l 300,0 c 22.086,0 40,17.906 40,40 l 0,360 c 0,22.094 -17.914,40 -40,40"
             style="fill:#231f20;fill-opacity:1;fill-rule:nonzero;stroke:none"
             id="path4804"
             inkscape:connector-curvature="0" /></g><g
           id="g4806"
           transform="translate(2271.4453,279.8047)"><path
             d="m 0,0 c 0,-23.281 -4.305,-39.141 -12.898,-47.578 -8.61,-8.438 -24.907,-12.656 -48.899,-12.656 l -154.805,0 c -24.406,0 -40.898,4.14 -49.5,12.398 -8.609,8.281 -12.906,23.953 -12.906,47.016 l 0,7.187 43.813,9 0,-37.789 191.992,0 0,71.992 -163.797,0 c -23.992,0 -40.305,4.203 -48.898,12.594 -8.602,8.406 -12.899,24.211 -12.899,47.414 l 0,24 c 0,23.594 4.297,39.594 12.899,48 8.593,8.399 24.906,12.594 48.898,12.594 l 141.602,0 c 22.796,0 38.89,-4 48.296,-12 C -7.703,174.164 -3,159.578 -3,138.375 l 0,-6.008 -43.797,-9.586 0,33.594 -178.203,0 0,-65.391 163.203,0 c 23.992,0 40.289,-4.218 48.899,-12.656 C -4.305,69.883 0,54.023 0,30.742 L 0,0 Z m 14.617,290.023 -300,0 c -22.086,0 -40,-17.906 -40,-40 l 0,-360 c 0,-22.093 17.914,-40 40,-40 l 300,0 c 22.094,0 40,17.907 40,40 l 0,360 c 0,22.094 -17.906,40 -40,40"
             style="fill:#231f20;fill-opacity:1;fill-rule:nonzero;stroke:none"
             id="path4808"
             inkscape:connector-curvature="0" /></g><g
           id="g4810"
           transform="translate(2714.8438,279.5703)"><path
             d="M 0,0 C 0,-23.203 -4.406,-38.984 -13.203,-47.398 -22,-55.805 -38.398,-60 -62.406,-60 l -183.602,0 c -24.39,0 -40.898,4.102 -49.492,12.305 -8.609,8.203 -12.898,24.101 -12.898,47.695 l 0,133.813 c 0,23.187 4.398,39.093 13.195,47.695 8.797,8.594 25.203,12.898 49.195,12.898 l 183.602,0 c 24.008,0 40.406,-4.304 49.203,-12.898 C -4.406,172.906 0,157 0,133.813 L 0,0 Z m -6.109,290.258 -300,0 c -22.094,0 -40,-17.906 -40,-40 l 0,-360 c 0,-22.094 17.906,-40 40,-40 l 300,0 c 22.086,0 40,17.906 40,40 l 0,360 c 0,22.094 -17.914,40 -40,40 m -254.289,-312.446 212.398,0 0,178.797 -212.398,0 0,-178.797 z"
             style="fill:#231f20;fill-opacity:1;fill-rule:nonzero;stroke:none"
             id="path4812"
             inkscape:connector-curvature="0" /></g></g></g></g></svg>